<?xml version="1.0" encoding="utf-8" standalone="no"?>
<!DOCTYPE svg PUBLIC "-//W3C//DTD SVG 1.1//EN"
  "http://www.w3.org/Graphics/SVG/1.1/DTD/svg11.dtd">
<svg xmlns:xlink="http://www.w3.org/1999/xlink" width="401.690625pt" height="266.794375pt" viewBox="0 0 401.690625 266.794375" xmlns="http://www.w3.org/2000/svg" version="1.1">
 <metadata>
  <rdf:RDF xmlns:dc="http://purl.org/dc/elements/1.1/" xmlns:cc="http://creativecommons.org/ns#" xmlns:rdf="http://www.w3.org/1999/02/22-rdf-syntax-ns#">
   <cc:Work>
    <dc:type rdf:resource="http://purl.org/dc/dcmitype/StillImage"/>
    <dc:date>2026-01-05T09:16:52.688813</dc:date>
    <dc:format>image/svg+xml</dc:format>
    <dc:creator>
     <cc:Agent>
      <dc:title>Matplotlib v3.10.8, https://matplotlib.org/</dc:title>
     </cc:Agent>
    </dc:creator>
   </cc:Work>
  </rdf:RDF>
 </metadata>
 <defs>
  <style type="text/css">*{stroke-linejoin: round; stroke-linecap: butt}</style>
 </defs>
 <g id="figure_1">
  <g id="patch_1">
   <path d="M 0 266.794375 
L 401.690625 266.794375 
L 401.690625 0 
L 0 0 
z
" style="fill: #ffffff"/>
  </g>
  <g id="axes_1">
   <g id="patch_2">
    <path d="M 59.690625 228.96 
L 394.490625 228.96 
L 394.490625 7.2 
L 59.690625 7.2 
z
" style="fill: #ffffff"/>
   </g>
   <g id="matplotlib.axis_1">
    <g id="xtick_1">
     <g id="line2d_1">
      <defs>
       <path id="mabf5ab2d28" d="M 0 0 
L 0 3.5 
" style="stroke: #000000; stroke-width: 0.8"/>
      </defs>
      <g>
       <use xlink:href="#mabf5ab2d28" x="105.34517" y="228.96" style="stroke: #000000; stroke-width: 0.8"/>
      </g>
     </g>
     <g id="text_1">
      <!-- −0.04 -->
      <g transform="translate(90.022514 243.558437) scale(0.1 -0.1)">
       <defs>
        <path id="DejaVuSans-2212" d="M 678 2272 
L 4684 2272 
L 4684 1741 
L 678 1741 
L 678 2272 
z
" transform="scale(0.015625)"/>
        <path id="DejaVuSans-30" d="M 2034 4250 
Q 1547 4250 1301 3770 
Q 1056 3291 1056 2328 
Q 1056 1369 1301 889 
Q 1547 409 2034 409 
Q 2525 409 2770 889 
Q 3016 1369 3016 2328 
Q 3016 3291 2770 3770 
Q 2525 4250 2034 4250 
z
M 2034 4750 
Q 2819 4750 3233 4129 
Q 3647 3509 3647 2328 
Q 3647 1150 3233 529 
Q 2819 -91 2034 -91 
Q 1250 -91 836 529 
Q 422 1150 422 2328 
Q 422 3509 836 4129 
Q 1250 4750 2034 4750 
z
" transform="scale(0.015625)"/>
        <path id="DejaVuSans-2e" d="M 684 794 
L 1344 794 
L 1344 0 
L 684 0 
L 684 794 
z
" transform="scale(0.015625)"/>
        <path id="DejaVuSans-34" d="M 2419 4116 
L 825 1625 
L 2419 1625 
L 2419 4116 
z
M 2253 4666 
L 3047 4666 
L 3047 1625 
L 3713 1625 
L 3713 1100 
L 3047 1100 
L 3047 0 
L 2419 0 
L 2419 1100 
L 313 1100 
L 313 1709 
L 2253 4666 
z
" transform="scale(0.015625)"/>
       </defs>
       <use xlink:href="#DejaVuSans-2212"/>
       <use xlink:href="#DejaVuSans-30" transform="translate(83.789062 0)"/>
       <use xlink:href="#DejaVuSans-2e" transform="translate(147.412109 0)"/>
       <use xlink:href="#DejaVuSans-30" transform="translate(179.199219 0)"/>
       <use xlink:href="#DejaVuSans-34" transform="translate(242.822266 0)"/>
      </g>
     </g>
    </g>
    <g id="xtick_2">
     <g id="line2d_2">
      <g>
       <use xlink:href="#mabf5ab2d28" x="166.217898" y="228.96" style="stroke: #000000; stroke-width: 0.8"/>
      </g>
     </g>
     <g id="text_2">
      <!-- −0.02 -->
      <g transform="translate(150.895241 243.558437) scale(0.1 -0.1)">
       <defs>
        <path id="DejaVuSans-32" d="M 1228 531 
L 3431 531 
L 3431 0 
L 469 0 
L 469 531 
Q 828 903 1448 1529 
Q 2069 2156 2228 2338 
Q 2531 2678 2651 2914 
Q 2772 3150 2772 3378 
Q 2772 3750 2511 3984 
Q 2250 4219 1831 4219 
Q 1534 4219 1204 4116 
Q 875 4013 500 3803 
L 500 4441 
Q 881 4594 1212 4672 
Q 1544 4750 1819 4750 
Q 2544 4750 2975 4387 
Q 3406 4025 3406 3419 
Q 3406 3131 3298 2873 
Q 3191 2616 2906 2266 
Q 2828 2175 2409 1742 
Q 1991 1309 1228 531 
z
" transform="scale(0.015625)"/>
       </defs>
       <use xlink:href="#DejaVuSans-2212"/>
       <use xlink:href="#DejaVuSans-30" transform="translate(83.789062 0)"/>
       <use xlink:href="#DejaVuSans-2e" transform="translate(147.412109 0)"/>
       <use xlink:href="#DejaVuSans-30" transform="translate(179.199219 0)"/>
       <use xlink:href="#DejaVuSans-32" transform="translate(242.822266 0)"/>
      </g>
     </g>
    </g>
    <g id="xtick_3">
     <g id="line2d_3">
      <g>
       <use xlink:href="#mabf5ab2d28" x="227.090625" y="228.96" style="stroke: #000000; stroke-width: 0.8"/>
      </g>
     </g>
     <g id="text_3">
      <!-- 0.00 -->
      <g transform="translate(215.957813 243.558437) scale(0.1 -0.1)">
       <use xlink:href="#DejaVuSans-30"/>
       <use xlink:href="#DejaVuSans-2e" transform="translate(63.623047 0)"/>
       <use xlink:href="#DejaVuSans-30" transform="translate(95.410156 0)"/>
       <use xlink:href="#DejaVuSans-30" transform="translate(159.033203 0)"/>
      </g>
     </g>
    </g>
    <g id="xtick_4">
     <g id="line2d_4">
      <g>
       <use xlink:href="#mabf5ab2d28" x="287.963352" y="228.96" style="stroke: #000000; stroke-width: 0.8"/>
      </g>
     </g>
     <g id="text_4">
      <!-- 0.02 -->
      <g transform="translate(276.83054 243.558437) scale(0.1 -0.1)">
       <use xlink:href="#DejaVuSans-30"/>
       <use xlink:href="#DejaVuSans-2e" transform="translate(63.623047 0)"/>
       <use xlink:href="#DejaVuSans-30" transform="translate(95.410156 0)"/>
       <use xlink:href="#DejaVuSans-32" transform="translate(159.033203 0)"/>
      </g>
     </g>
    </g>
    <g id="xtick_5">
     <g id="line2d_5">
      <g>
       <use xlink:href="#mabf5ab2d28" x="348.83608" y="228.96" style="stroke: #000000; stroke-width: 0.8"/>
      </g>
     </g>
     <g id="text_5">
      <!-- 0.04 -->
      <g transform="translate(337.703267 243.558437) scale(0.1 -0.1)">
       <use xlink:href="#DejaVuSans-30"/>
       <use xlink:href="#DejaVuSans-2e" transform="translate(63.623047 0)"/>
       <use xlink:href="#DejaVuSans-30" transform="translate(95.410156 0)"/>
       <use xlink:href="#DejaVuSans-34" transform="translate(159.033203 0)"/>
      </g>
     </g>
    </g>
    <g id="text_6">
     <!-- energy_transfer [meV] -->
     <g transform="translate(170.564063 257.236562) scale(0.1 -0.1)">
      <defs>
       <path id="DejaVuSans-65" d="M 3597 1894 
L 3597 1613 
L 953 1613 
Q 991 1019 1311 708 
Q 1631 397 2203 397 
Q 2534 397 2845 478 
Q 3156 559 3463 722 
L 3463 178 
Q 3153 47 2828 -22 
Q 2503 -91 2169 -91 
Q 1331 -91 842 396 
Q 353 884 353 1716 
Q 353 2575 817 3079 
Q 1281 3584 2069 3584 
Q 2775 3584 3186 3129 
Q 3597 2675 3597 1894 
z
M 3022 2063 
Q 3016 2534 2758 2815 
Q 2500 3097 2075 3097 
Q 1594 3097 1305 2825 
Q 1016 2553 972 2059 
L 3022 2063 
z
" transform="scale(0.015625)"/>
       <path id="DejaVuSans-6e" d="M 3513 2113 
L 3513 0 
L 2938 0 
L 2938 2094 
Q 2938 2591 2744 2837 
Q 2550 3084 2163 3084 
Q 1697 3084 1428 2787 
Q 1159 2491 1159 1978 
L 1159 0 
L 581 0 
L 581 3500 
L 1159 3500 
L 1159 2956 
Q 1366 3272 1645 3428 
Q 1925 3584 2291 3584 
Q 2894 3584 3203 3211 
Q 3513 2838 3513 2113 
z
" transform="scale(0.015625)"/>
       <path id="DejaVuSans-72" d="M 2631 2963 
Q 2534 3019 2420 3045 
Q 2306 3072 2169 3072 
Q 1681 3072 1420 2755 
Q 1159 2438 1159 1844 
L 1159 0 
L 581 0 
L 581 3500 
L 1159 3500 
L 1159 2956 
Q 1341 3275 1631 3429 
Q 1922 3584 2338 3584 
Q 2397 3584 2469 3576 
Q 2541 3569 2628 3553 
L 2631 2963 
z
" transform="scale(0.015625)"/>
       <path id="DejaVuSans-67" d="M 2906 1791 
Q 2906 2416 2648 2759 
Q 2391 3103 1925 3103 
Q 1463 3103 1205 2759 
Q 947 2416 947 1791 
Q 947 1169 1205 825 
Q 1463 481 1925 481 
Q 2391 481 2648 825 
Q 2906 1169 2906 1791 
z
M 3481 434 
Q 3481 -459 3084 -895 
Q 2688 -1331 1869 -1331 
Q 1566 -1331 1297 -1286 
Q 1028 -1241 775 -1147 
L 775 -588 
Q 1028 -725 1275 -790 
Q 1522 -856 1778 -856 
Q 2344 -856 2625 -561 
Q 2906 -266 2906 331 
L 2906 616 
Q 2728 306 2450 153 
Q 2172 0 1784 0 
Q 1141 0 747 490 
Q 353 981 353 1791 
Q 353 2603 747 3093 
Q 1141 3584 1784 3584 
Q 2172 3584 2450 3431 
Q 2728 3278 2906 2969 
L 2906 3500 
L 3481 3500 
L 3481 434 
z
" transform="scale(0.015625)"/>
       <path id="DejaVuSans-79" d="M 2059 -325 
Q 1816 -950 1584 -1140 
Q 1353 -1331 966 -1331 
L 506 -1331 
L 506 -850 
L 844 -850 
Q 1081 -850 1212 -737 
Q 1344 -625 1503 -206 
L 1606 56 
L 191 3500 
L 800 3500 
L 1894 763 
L 2988 3500 
L 3597 3500 
L 2059 -325 
z
" transform="scale(0.015625)"/>
       <path id="DejaVuSans-5f" d="M 3263 -1063 
L 3263 -1509 
L -63 -1509 
L -63 -1063 
L 3263 -1063 
z
" transform="scale(0.015625)"/>
       <path id="DejaVuSans-74" d="M 1172 4494 
L 1172 3500 
L 2356 3500 
L 2356 3053 
L 1172 3053 
L 1172 1153 
Q 1172 725 1289 603 
Q 1406 481 1766 481 
L 2356 481 
L 2356 0 
L 1766 0 
Q 1100 0 847 248 
Q 594 497 594 1153 
L 594 3053 
L 172 3053 
L 172 3500 
L 594 3500 
L 594 4494 
L 1172 4494 
z
" transform="scale(0.015625)"/>
       <path id="DejaVuSans-61" d="M 2194 1759 
Q 1497 1759 1228 1600 
Q 959 1441 959 1056 
Q 959 750 1161 570 
Q 1363 391 1709 391 
Q 2188 391 2477 730 
Q 2766 1069 2766 1631 
L 2766 1759 
L 2194 1759 
z
M 3341 1997 
L 3341 0 
L 2766 0 
L 2766 531 
Q 2569 213 2275 61 
Q 1981 -91 1556 -91 
Q 1019 -91 701 211 
Q 384 513 384 1019 
Q 384 1609 779 1909 
Q 1175 2209 1959 2209 
L 2766 2209 
L 2766 2266 
Q 2766 2663 2505 2880 
Q 2244 3097 1772 3097 
Q 1472 3097 1187 3025 
Q 903 2953 641 2809 
L 641 3341 
Q 956 3463 1253 3523 
Q 1550 3584 1831 3584 
Q 2591 3584 2966 3190 
Q 3341 2797 3341 1997 
z
" transform="scale(0.015625)"/>
       <path id="DejaVuSans-73" d="M 2834 3397 
L 2834 2853 
Q 2591 2978 2328 3040 
Q 2066 3103 1784 3103 
Q 1356 3103 1142 2972 
Q 928 2841 928 2578 
Q 928 2378 1081 2264 
Q 1234 2150 1697 2047 
L 1894 2003 
Q 2506 1872 2764 1633 
Q 3022 1394 3022 966 
Q 3022 478 2636 193 
Q 2250 -91 1575 -91 
Q 1294 -91 989 -36 
Q 684 19 347 128 
L 347 722 
Q 666 556 975 473 
Q 1284 391 1588 391 
Q 1994 391 2212 530 
Q 2431 669 2431 922 
Q 2431 1156 2273 1281 
Q 2116 1406 1581 1522 
L 1381 1569 
Q 847 1681 609 1914 
Q 372 2147 372 2553 
Q 372 3047 722 3315 
Q 1072 3584 1716 3584 
Q 2034 3584 2315 3537 
Q 2597 3491 2834 3397 
z
" transform="scale(0.015625)"/>
       <path id="DejaVuSans-66" d="M 2375 4863 
L 2375 4384 
L 1825 4384 
Q 1516 4384 1395 4259 
Q 1275 4134 1275 3809 
L 1275 3500 
L 2222 3500 
L 2222 3053 
L 1275 3053 
L 1275 0 
L 697 0 
L 697 3053 
L 147 3053 
L 147 3500 
L 697 3500 
L 697 3744 
Q 697 4328 969 4595 
Q 1241 4863 1831 4863 
L 2375 4863 
z
" transform="scale(0.015625)"/>
       <path id="DejaVuSans-20" transform="scale(0.015625)"/>
       <path id="DejaVuSans-5b" d="M 550 4863 
L 1875 4863 
L 1875 4416 
L 1125 4416 
L 1125 -397 
L 1875 -397 
L 1875 -844 
L 550 -844 
L 550 4863 
z
" transform="scale(0.015625)"/>
       <path id="DejaVuSans-6d" d="M 3328 2828 
Q 3544 3216 3844 3400 
Q 4144 3584 4550 3584 
Q 5097 3584 5394 3201 
Q 5691 2819 5691 2113 
L 5691 0 
L 5113 0 
L 5113 2094 
Q 5113 2597 4934 2840 
Q 4756 3084 4391 3084 
Q 3944 3084 3684 2787 
Q 3425 2491 3425 1978 
L 3425 0 
L 2847 0 
L 2847 2094 
Q 2847 2600 2669 2842 
Q 2491 3084 2119 3084 
Q 1678 3084 1418 2786 
Q 1159 2488 1159 1978 
L 1159 0 
L 581 0 
L 581 3500 
L 1159 3500 
L 1159 2956 
Q 1356 3278 1631 3431 
Q 1906 3584 2284 3584 
Q 2666 3584 2933 3390 
Q 3200 3197 3328 2828 
z
" transform="scale(0.015625)"/>
       <path id="DejaVuSans-56" d="M 1831 0 
L 50 4666 
L 709 4666 
L 2188 738 
L 3669 4666 
L 4325 4666 
L 2547 0 
L 1831 0 
z
" transform="scale(0.015625)"/>
       <path id="DejaVuSans-5d" d="M 1947 4863 
L 1947 -844 
L 622 -844 
L 622 -397 
L 1369 -397 
L 1369 4416 
L 622 4416 
L 622 4863 
L 1947 4863 
z
" transform="scale(0.015625)"/>
      </defs>
      <use xlink:href="#DejaVuSans-65"/>
      <use xlink:href="#DejaVuSans-6e" transform="translate(61.523438 0)"/>
      <use xlink:href="#DejaVuSans-65" transform="translate(124.902344 0)"/>
      <use xlink:href="#DejaVuSans-72" transform="translate(186.425781 0)"/>
      <use xlink:href="#DejaVuSans-67" transform="translate(225.789062 0)"/>
      <use xlink:href="#DejaVuSans-79" transform="translate(289.265625 0)"/>
      <use xlink:href="#DejaVuSans-5f" transform="translate(348.445312 0)"/>
      <use xlink:href="#DejaVuSans-74" transform="translate(398.445312 0)"/>
      <use xlink:href="#DejaVuSans-72" transform="translate(437.654297 0)"/>
      <use xlink:href="#DejaVuSans-61" transform="translate(478.767578 0)"/>
      <use xlink:href="#DejaVuSans-6e" transform="translate(540.046875 0)"/>
      <use xlink:href="#DejaVuSans-73" transform="translate(603.425781 0)"/>
      <use xlink:href="#DejaVuSans-66" transform="translate(655.525391 0)"/>
      <use xlink:href="#DejaVuSans-65" transform="translate(690.730469 0)"/>
      <use xlink:href="#DejaVuSans-72" transform="translate(752.253906 0)"/>
      <use xlink:href="#DejaVuSans-20" transform="translate(793.367188 0)"/>
      <use xlink:href="#DejaVuSans-5b" transform="translate(825.154297 0)"/>
      <use xlink:href="#DejaVuSans-6d" transform="translate(864.167969 0)"/>
      <use xlink:href="#DejaVuSans-65" transform="translate(961.580078 0)"/>
      <use xlink:href="#DejaVuSans-56" transform="translate(1023.103516 0)"/>
      <use xlink:href="#DejaVuSans-5d" transform="translate(1091.511719 0)"/>
     </g>
    </g>
   </g>
   <g id="matplotlib.axis_2">
    <g id="ytick_1">
     <g id="line2d_6">
      <defs>
       <path id="me4b9aa0d66" d="M 0 0 
L -3.5 0 
" style="stroke: #000000; stroke-width: 0.8"/>
      </defs>
      <g>
       <use xlink:href="#me4b9aa0d66" x="59.690625" y="218.88" style="stroke: #000000; stroke-width: 0.8"/>
      </g>
     </g>
     <g id="text_7">
      <!-- 0 -->
      <g transform="translate(46.328125 222.679219) scale(0.1 -0.1)">
       <use xlink:href="#DejaVuSans-30"/>
      </g>
     </g>
    </g>
    <g id="ytick_2">
     <g id="line2d_7">
      <g>
       <use xlink:href="#me4b9aa0d66" x="59.690625" y="176.107489" style="stroke: #000000; stroke-width: 0.8"/>
      </g>
     </g>
     <g id="text_8">
      <!-- 5000 -->
      <g transform="translate(27.240625 179.906708) scale(0.1 -0.1)">
       <defs>
        <path id="DejaVuSans-35" d="M 691 4666 
L 3169 4666 
L 3169 4134 
L 1269 4134 
L 1269 2991 
Q 1406 3038 1543 3061 
Q 1681 3084 1819 3084 
Q 2600 3084 3056 2656 
Q 3513 2228 3513 1497 
Q 3513 744 3044 326 
Q 2575 -91 1722 -91 
Q 1428 -91 1123 -41 
Q 819 9 494 109 
L 494 744 
Q 775 591 1075 516 
Q 1375 441 1709 441 
Q 2250 441 2565 725 
Q 2881 1009 2881 1497 
Q 2881 1984 2565 2268 
Q 2250 2553 1709 2553 
Q 1456 2553 1204 2497 
Q 953 2441 691 2322 
L 691 4666 
z
" transform="scale(0.015625)"/>
       </defs>
       <use xlink:href="#DejaVuSans-35"/>
       <use xlink:href="#DejaVuSans-30" transform="translate(63.623047 0)"/>
       <use xlink:href="#DejaVuSans-30" transform="translate(127.246094 0)"/>
       <use xlink:href="#DejaVuSans-30" transform="translate(190.869141 0)"/>
      </g>
     </g>
    </g>
    <g id="ytick_3">
     <g id="line2d_8">
      <g>
       <use xlink:href="#me4b9aa0d66" x="59.690625" y="133.334978" style="stroke: #000000; stroke-width: 0.8"/>
      </g>
     </g>
     <g id="text_9">
      <!-- 10000 -->
      <g transform="translate(20.878125 137.134196) scale(0.1 -0.1)">
       <defs>
        <path id="DejaVuSans-31" d="M 794 531 
L 1825 531 
L 1825 4091 
L 703 3866 
L 703 4441 
L 1819 4666 
L 2450 4666 
L 2450 531 
L 3481 531 
L 3481 0 
L 794 0 
L 794 531 
z
" transform="scale(0.015625)"/>
       </defs>
       <use xlink:href="#DejaVuSans-31"/>
       <use xlink:href="#DejaVuSans-30" transform="translate(63.623047 0)"/>
       <use xlink:href="#DejaVuSans-30" transform="translate(127.246094 0)"/>
       <use xlink:href="#DejaVuSans-30" transform="translate(190.869141 0)"/>
       <use xlink:href="#DejaVuSans-30" transform="translate(254.492188 0)"/>
      </g>
     </g>
    </g>
    <g id="ytick_4">
     <g id="line2d_9">
      <g>
       <use xlink:href="#me4b9aa0d66" x="59.690625" y="90.562466" style="stroke: #000000; stroke-width: 0.8"/>
      </g>
     </g>
     <g id="text_10">
      <!-- 15000 -->
      <g transform="translate(20.878125 94.361685) scale(0.1 -0.1)">
       <use xlink:href="#DejaVuSans-31"/>
       <use xlink:href="#DejaVuSans-35" transform="translate(63.623047 0)"/>
       <use xlink:href="#DejaVuSans-30" transform="translate(127.246094 0)"/>
       <use xlink:href="#DejaVuSans-30" transform="translate(190.869141 0)"/>
       <use xlink:href="#DejaVuSans-30" transform="translate(254.492188 0)"/>
      </g>
     </g>
    </g>
    <g id="ytick_5">
     <g id="line2d_10">
      <g>
       <use xlink:href="#me4b9aa0d66" x="59.690625" y="47.789955" style="stroke: #000000; stroke-width: 0.8"/>
      </g>
     </g>
     <g id="text_11">
      <!-- 20000 -->
      <g transform="translate(20.878125 51.589174) scale(0.1 -0.1)">
       <use xlink:href="#DejaVuSans-32"/>
       <use xlink:href="#DejaVuSans-30" transform="translate(63.623047 0)"/>
       <use xlink:href="#DejaVuSans-30" transform="translate(127.246094 0)"/>
       <use xlink:href="#DejaVuSans-30" transform="translate(190.869141 0)"/>
       <use xlink:href="#DejaVuSans-30" transform="translate(254.492188 0)"/>
      </g>
     </g>
    </g>
    <g id="text_12">
     <!-- [100m*counts*s^-1*A^-1] -->
     <g transform="translate(14.798438 184.981562) rotate(-90) scale(0.1 -0.1)">
      <defs>
       <path id="DejaVuSans-2a" d="M 3009 3897 
L 1888 3291 
L 3009 2681 
L 2828 2375 
L 1778 3009 
L 1778 1831 
L 1422 1831 
L 1422 3009 
L 372 2375 
L 191 2681 
L 1313 3291 
L 191 3897 
L 372 4206 
L 1422 3572 
L 1422 4750 
L 1778 4750 
L 1778 3572 
L 2828 4206 
L 3009 3897 
z
" transform="scale(0.015625)"/>
       <path id="DejaVuSans-63" d="M 3122 3366 
L 3122 2828 
Q 2878 2963 2633 3030 
Q 2388 3097 2138 3097 
Q 1578 3097 1268 2742 
Q 959 2388 959 1747 
Q 959 1106 1268 751 
Q 1578 397 2138 397 
Q 2388 397 2633 464 
Q 2878 531 3122 666 
L 3122 134 
Q 2881 22 2623 -34 
Q 2366 -91 2075 -91 
Q 1284 -91 818 406 
Q 353 903 353 1747 
Q 353 2603 823 3093 
Q 1294 3584 2113 3584 
Q 2378 3584 2631 3529 
Q 2884 3475 3122 3366 
z
" transform="scale(0.015625)"/>
       <path id="DejaVuSans-6f" d="M 1959 3097 
Q 1497 3097 1228 2736 
Q 959 2375 959 1747 
Q 959 1119 1226 758 
Q 1494 397 1959 397 
Q 2419 397 2687 759 
Q 2956 1122 2956 1747 
Q 2956 2369 2687 2733 
Q 2419 3097 1959 3097 
z
M 1959 3584 
Q 2709 3584 3137 3096 
Q 3566 2609 3566 1747 
Q 3566 888 3137 398 
Q 2709 -91 1959 -91 
Q 1206 -91 779 398 
Q 353 888 353 1747 
Q 353 2609 779 3096 
Q 1206 3584 1959 3584 
z
" transform="scale(0.015625)"/>
       <path id="DejaVuSans-75" d="M 544 1381 
L 544 3500 
L 1119 3500 
L 1119 1403 
Q 1119 906 1312 657 
Q 1506 409 1894 409 
Q 2359 409 2629 706 
Q 2900 1003 2900 1516 
L 2900 3500 
L 3475 3500 
L 3475 0 
L 2900 0 
L 2900 538 
Q 2691 219 2414 64 
Q 2138 -91 1772 -91 
Q 1169 -91 856 284 
Q 544 659 544 1381 
z
M 1991 3584 
L 1991 3584 
z
" transform="scale(0.015625)"/>
       <path id="DejaVuSans-5e" d="M 2988 4666 
L 4684 2925 
L 4056 2925 
L 2681 4159 
L 1306 2925 
L 678 2925 
L 2375 4666 
L 2988 4666 
z
" transform="scale(0.015625)"/>
       <path id="DejaVuSans-2d" d="M 313 2009 
L 1997 2009 
L 1997 1497 
L 313 1497 
L 313 2009 
z
" transform="scale(0.015625)"/>
       <path id="DejaVuSans-41" d="M 2188 4044 
L 1331 1722 
L 3047 1722 
L 2188 4044 
z
M 1831 4666 
L 2547 4666 
L 4325 0 
L 3669 0 
L 3244 1197 
L 1141 1197 
L 716 0 
L 50 0 
L 1831 4666 
z
" transform="scale(0.015625)"/>
      </defs>
      <use xlink:href="#DejaVuSans-5b"/>
      <use xlink:href="#DejaVuSans-31" transform="translate(39.013672 0)"/>
      <use xlink:href="#DejaVuSans-30" transform="translate(102.636719 0)"/>
      <use xlink:href="#DejaVuSans-30" transform="translate(166.259766 0)"/>
      <use xlink:href="#DejaVuSans-6d" transform="translate(229.882812 0)"/>
      <use xlink:href="#DejaVuSans-2a" transform="translate(327.294922 0)"/>
      <use xlink:href="#DejaVuSans-63" transform="translate(377.294922 0)"/>
      <use xlink:href="#DejaVuSans-6f" transform="translate(432.275391 0)"/>
      <use xlink:href="#DejaVuSans-75" transform="translate(493.457031 0)"/>
      <use xlink:href="#DejaVuSans-6e" transform="translate(556.835938 0)"/>
      <use xlink:href="#DejaVuSans-74" transform="translate(620.214844 0)"/>
      <use xlink:href="#DejaVuSans-73" transform="translate(659.423828 0)"/>
      <use xlink:href="#DejaVuSans-2a" transform="translate(711.523438 0)"/>
      <use xlink:href="#DejaVuSans-73" transform="translate(761.523438 0)"/>
      <use xlink:href="#DejaVuSans-5e" transform="translate(813.623047 0)"/>
      <use xlink:href="#DejaVuSans-2d" transform="translate(897.412109 0)"/>
      <use xlink:href="#DejaVuSans-31" transform="translate(933.496094 0)"/>
      <use xlink:href="#DejaVuSans-2a" transform="translate(997.119141 0)"/>
      <use xlink:href="#DejaVuSans-41" transform="translate(1047.119141 0)"/>
      <use xlink:href="#DejaVuSans-5e" transform="translate(1115.527344 0)"/>
      <use xlink:href="#DejaVuSans-2d" transform="translate(1199.316406 0)"/>
      <use xlink:href="#DejaVuSans-31" transform="translate(1235.400391 0)"/>
      <use xlink:href="#DejaVuSans-5d" transform="translate(1299.023438 0)"/>
     </g>
    </g>
   </g>
   <g id="line2d_11">
    <path d="M 74.908807 218.88 
L 116.204376 218.795557 
L 116.204376 218.596466 
L 117.733841 218.596466 
L 117.733841 218.348521 
L 120.792772 218.248028 
L 120.792772 218.130359 
L 122.322238 218.130359 
L 122.322238 217.29886 
L 123.851703 217.29886 
L 123.851703 217.54756 
L 125.381169 217.54756 
L 125.381169 216.884442 
L 126.910634 216.884442 
L 126.910634 216.105549 
L 128.4401 216.105549 
L 128.4401 215.82914 
L 129.969565 215.82914 
L 129.969565 214.917486 
L 131.499031 214.917486 
L 131.499031 214.593943 
L 133.028496 214.593943 
L 133.028496 214.219291 
L 134.557962 214.219291 
L 134.557962 213.271407 
L 137.616893 213.267922 
L 137.616893 211.898379 
L 139.146358 211.898379 
L 139.146358 210.814425 
L 140.675824 210.814425 
L 140.675824 209.683322 
L 142.205289 209.683322 
L 142.205289 209.283599 
L 143.734755 209.283599 
L 143.734755 207.355842 
L 145.26422 207.355842 
L 145.26422 207.022274 
L 146.793686 207.022274 
L 146.793686 203.33492 
L 149.852617 203.352716 
L 149.852617 202.081144 
L 151.382082 202.081144 
L 151.382082 198.729022 
L 152.911548 198.729022 
L 152.911548 196.456455 
L 154.441013 196.456455 
L 154.441013 195.215663 
L 155.970479 195.215663 
L 155.970479 191.287949 
L 157.499944 191.287949 
L 157.499944 186.836453 
L 159.02941 186.836453 
L 159.02941 185.487027 
L 160.558875 185.487027 
L 160.558875 182.745093 
L 162.088341 182.745093 
L 162.088341 178.462407 
L 163.617806 178.462407 
L 163.617806 174.442224 
L 165.147272 174.442224 
L 165.147272 171.203729 
L 166.676737 171.203729 
L 166.676737 165.30824 
L 168.206203 165.30824 
L 168.206203 163.15874 
L 169.735668 163.15874 
L 169.735668 156.937053 
L 171.265134 156.937053 
L 171.265134 152.597747 
L 172.794599 152.597747 
L 172.794599 145.481485 
L 174.324065 145.481485 
L 174.324065 142.919724 
L 175.85353 142.919724 
L 175.85353 140.260908 
L 177.382996 140.260908 
L 177.382996 133.502903 
L 178.912461 133.502903 
L 178.912461 127.09115 
L 180.441927 127.09115 
L 180.441927 123.558432 
L 181.971392 123.558432 
L 181.971392 117.857739 
L 183.500858 117.857739 
L 183.500858 112.643759 
L 185.030323 112.643759 
L 185.030323 104.714584 
L 186.559789 104.714584 
L 186.559789 95.772741 
L 188.089255 95.772741 
L 188.089255 89.197052 
L 189.61872 89.197052 
L 189.61872 83.424912 
L 191.148186 83.424912 
L 191.148186 80.758707 
L 192.677651 80.758707 
L 192.677651 71.397086 
L 194.207117 71.397086 
L 194.207117 65.374211 
L 195.736582 65.374211 
L 195.736582 60.085565 
L 197.266048 60.085565 
L 197.266048 60.566906 
L 198.795513 60.566906 
L 198.795513 54.323792 
L 200.324979 54.323792 
L 200.324979 47.371635 
L 201.854444 47.371635 
L 201.854444 45.788039 
L 203.38391 45.788039 
L 203.38391 44.898523 
L 204.913375 44.898523 
L 204.913375 40.16918 
L 206.442841 40.16918 
L 206.442841 37.522985 
L 207.972306 37.522985 
L 207.972306 33.213646 
L 209.501772 33.213646 
L 209.501772 36.274656 
L 211.031237 36.274656 
L 211.031237 34.146286 
L 212.560703 34.146286 
L 212.560703 31.158173 
L 214.090168 31.158173 
L 214.090168 33.097587 
L 215.619634 33.097587 
L 215.619634 32.704902 
L 217.149099 32.704902 
L 217.149099 26.593156 
L 218.678565 26.593156 
L 218.678565 30.04376 
L 220.20803 30.04376 
L 220.20803 29.414387 
L 221.737496 29.414387 
L 221.737496 28.605557 
L 223.266961 28.605557 
L 223.266961 27.783833 
L 224.796427 27.783833 
L 224.796427 26.561095 
L 226.325892 26.561095 
L 226.325892 21.920575 
L 227.855358 21.920575 
L 227.855358 19.369017 
L 229.384823 19.369017 
L 229.384823 24.868813 
L 230.914289 24.868813 
L 230.914289 22.192983 
L 232.443754 22.192983 
L 232.443754 19.719922 
L 233.97322 19.719922 
L 233.97322 23.787673 
L 235.502685 23.787673 
L 235.502685 26.984327 
L 237.032151 26.984327 
L 237.032151 30.978424 
L 238.561616 30.978424 
L 238.561616 30.398221 
L 240.091082 30.398221 
L 240.091082 29.671274 
L 241.620547 29.671274 
L 241.620547 35.766386 
L 243.150013 35.766386 
L 243.150013 39.524615 
L 244.679478 39.524615 
L 244.679478 43.660076 
L 246.208944 43.660076 
L 246.208944 44.205865 
L 247.738409 44.205865 
L 247.738409 54.842781 
L 249.267875 54.842781 
L 249.267875 54.219238 
L 250.79734 54.219238 
L 250.79734 64.069788 
L 252.326806 64.069788 
L 252.326806 68.86642 
L 253.856271 68.86642 
L 253.856271 73.608938 
L 255.385737 73.608938 
L 255.385737 75.51693 
L 256.915202 75.51693 
L 256.915202 81.346771 
L 258.444668 81.346771 
L 258.444668 86.890941 
L 259.974133 86.890941 
L 259.974133 95.334241 
L 261.503599 95.334241 
L 261.503599 99.071871 
L 263.033064 99.071871 
L 263.033064 102.462037 
L 264.56253 102.462037 
L 264.56253 110.034935 
L 266.091995 110.034935 
L 266.091995 113.154236 
L 267.621461 113.154236 
L 267.621461 117.471243 
L 269.150927 117.471243 
L 269.150927 123.598028 
L 270.680392 123.598028 
L 270.680392 127.461792 
L 272.209858 127.461792 
L 272.209858 132.317685 
L 273.739323 132.317685 
L 273.739323 135.867338 
L 275.268789 135.867338 
L 275.268789 143.902575 
L 276.798254 143.902575 
L 276.798254 146.741412 
L 278.32772 146.741412 
L 278.32772 151.747323 
L 279.857185 151.747323 
L 279.857185 154.869669 
L 281.386651 154.869669 
L 281.386651 157.59813 
L 282.916116 157.59813 
L 282.916116 160.980317 
L 284.445582 160.980317 
L 284.445582 164.971534 
L 285.975047 164.971534 
L 285.975047 169.36383 
L 287.504513 169.36383 
L 287.504513 172.732263 
L 289.033978 172.732263 
L 289.033978 176.089541 
L 290.563444 176.089541 
L 290.563444 175.893783 
L 292.092909 175.893783 
L 292.092909 179.871787 
L 293.622375 179.871787 
L 293.622375 184.381851 
L 295.15184 184.381851 
L 295.15184 185.860656 
L 296.681306 185.860656 
L 296.681306 190.17456 
L 298.210771 190.17456 
L 298.210771 192.153898 
L 299.740237 192.153898 
L 299.740237 194.701686 
L 301.269702 194.701686 
L 301.269702 198.228808 
L 302.799168 198.228808 
L 302.799168 198.735992 
L 304.328633 198.735992 
L 304.328633 200.951969 
L 305.858099 200.951969 
L 305.858099 203.157328 
L 307.387564 203.157328 
L 307.387564 205.738793 
L 308.91703 205.738793 
L 308.91703 207.76217 
L 310.446495 207.76217 
L 310.446495 208.323843 
L 311.975961 208.323843 
L 311.975961 209.986381 
L 313.505426 209.986381 
L 313.505426 211.044219 
L 315.034892 211.044219 
L 315.034892 211.508454 
L 316.564357 211.508454 
L 316.564357 212.353772 
L 318.093823 212.353772 
L 318.093823 213.664687 
L 319.623288 213.664687 
L 319.623288 213.970827 
L 321.152754 213.970827 
L 321.152754 214.842905 
L 322.682219 214.842905 
L 322.682219 214.983409 
L 324.211685 214.983409 
L 324.211685 216.212801 
L 327.270616 216.176271 
L 327.270616 216.899905 
L 328.800081 216.899905 
L 328.800081 217.281652 
L 330.329547 217.281652 
L 330.329547 217.825124 
L 331.859012 217.825124 
L 331.859012 217.699108 
L 333.388478 217.699108 
L 333.388478 218.063162 
L 334.917943 218.063162 
L 334.917943 218.466983 
L 337.976874 218.454239 
L 337.976874 218.758876 
L 344.094736 218.819296 
L 344.094736 218.88 
L 379.272443 218.88 
L 379.272443 218.88 
" clip-path="url(#p334c180723)" style="fill: none; stroke: #1f77b4; stroke-width: 1.5; stroke-linecap: square"/>
   </g>
   <g id="LineCollection_1">
    <path d="M 75.67354 218.88 
L 75.67354 218.88 
" clip-path="url(#p334c180723)" style="fill: none; stroke: #1f77b4; stroke-width: 1.5"/>
    <path d="M 77.203005 218.88 
L 77.203005 218.88 
" clip-path="url(#p334c180723)" style="fill: none; stroke: #1f77b4; stroke-width: 1.5"/>
    <path d="M 78.732471 218.88 
L 78.732471 218.88 
" clip-path="url(#p334c180723)" style="fill: none; stroke: #1f77b4; stroke-width: 1.5"/>
    <path d="M 80.261936 218.88 
L 80.261936 218.88 
" clip-path="url(#p334c180723)" style="fill: none; stroke: #1f77b4; stroke-width: 1.5"/>
    <path d="M 81.791402 218.88 
L 81.791402 218.88 
" clip-path="url(#p334c180723)" style="fill: none; stroke: #1f77b4; stroke-width: 1.5"/>
    <path d="M 83.320867 218.88 
L 83.320867 218.88 
" clip-path="url(#p334c180723)" style="fill: none; stroke: #1f77b4; stroke-width: 1.5"/>
    <path d="M 84.850333 218.88 
L 84.850333 218.88 
" clip-path="url(#p334c180723)" style="fill: none; stroke: #1f77b4; stroke-width: 1.5"/>
    <path d="M 86.379798 218.88 
L 86.379798 218.88 
" clip-path="url(#p334c180723)" style="fill: none; stroke: #1f77b4; stroke-width: 1.5"/>
    <path d="M 87.909264 218.88 
L 87.909264 218.88 
" clip-path="url(#p334c180723)" style="fill: none; stroke: #1f77b4; stroke-width: 1.5"/>
    <path d="M 89.438729 218.88 
L 89.438729 218.88 
" clip-path="url(#p334c180723)" style="fill: none; stroke: #1f77b4; stroke-width: 1.5"/>
    <path d="M 90.968195 218.88 
L 90.968195 218.88 
" clip-path="url(#p334c180723)" style="fill: none; stroke: #1f77b4; stroke-width: 1.5"/>
    <path d="M 92.49766 218.88 
L 92.49766 218.88 
" clip-path="url(#p334c180723)" style="fill: none; stroke: #1f77b4; stroke-width: 1.5"/>
    <path d="M 94.027126 218.88 
L 94.027126 218.88 
" clip-path="url(#p334c180723)" style="fill: none; stroke: #1f77b4; stroke-width: 1.5"/>
    <path d="M 95.556591 218.88 
L 95.556591 218.88 
" clip-path="url(#p334c180723)" style="fill: none; stroke: #1f77b4; stroke-width: 1.5"/>
    <path d="M 97.086057 218.88 
L 97.086057 218.88 
" clip-path="url(#p334c180723)" style="fill: none; stroke: #1f77b4; stroke-width: 1.5"/>
    <path d="M 98.615522 218.88 
L 98.615522 218.88 
" clip-path="url(#p334c180723)" style="fill: none; stroke: #1f77b4; stroke-width: 1.5"/>
    <path d="M 100.144988 218.88 
L 100.144988 218.88 
" clip-path="url(#p334c180723)" style="fill: none; stroke: #1f77b4; stroke-width: 1.5"/>
    <path d="M 101.674453 218.88 
L 101.674453 218.88 
" clip-path="url(#p334c180723)" style="fill: none; stroke: #1f77b4; stroke-width: 1.5"/>
    <path d="M 103.203919 218.88 
L 103.203919 218.88 
" clip-path="url(#p334c180723)" style="fill: none; stroke: #1f77b4; stroke-width: 1.5"/>
    <path d="M 104.733384 218.88 
L 104.733384 218.88 
" clip-path="url(#p334c180723)" style="fill: none; stroke: #1f77b4; stroke-width: 1.5"/>
    <path d="M 106.26285 218.88 
L 106.26285 218.88 
" clip-path="url(#p334c180723)" style="fill: none; stroke: #1f77b4; stroke-width: 1.5"/>
    <path d="M 107.792315 218.88 
L 107.792315 218.88 
" clip-path="url(#p334c180723)" style="fill: none; stroke: #1f77b4; stroke-width: 1.5"/>
    <path d="M 109.321781 218.88 
L 109.321781 218.88 
" clip-path="url(#p334c180723)" style="fill: none; stroke: #1f77b4; stroke-width: 1.5"/>
    <path d="M 110.851246 218.88 
L 110.851246 218.846961 
" clip-path="url(#p334c180723)" style="fill: none; stroke: #1f77b4; stroke-width: 1.5"/>
    <path d="M 112.380712 218.88 
L 112.380712 218.88 
" clip-path="url(#p334c180723)" style="fill: none; stroke: #1f77b4; stroke-width: 1.5"/>
    <path d="M 113.910177 218.859116 
L 113.910177 218.802057 
" clip-path="url(#p334c180723)" style="fill: none; stroke: #1f77b4; stroke-width: 1.5"/>
    <path d="M 115.439643 218.833327 
L 115.439643 218.757787 
" clip-path="url(#p334c180723)" style="fill: none; stroke: #1f77b4; stroke-width: 1.5"/>
    <path d="M 116.969108 218.665246 
L 116.969108 218.527685 
" clip-path="url(#p334c180723)" style="fill: none; stroke: #1f77b4; stroke-width: 1.5"/>
    <path d="M 118.498574 218.442488 
L 118.498574 218.254554 
" clip-path="url(#p334c180723)" style="fill: none; stroke: #1f77b4; stroke-width: 1.5"/>
    <path d="M 120.028039 218.350563 
L 120.028039 218.145494 
" clip-path="url(#p334c180723)" style="fill: none; stroke: #1f77b4; stroke-width: 1.5"/>
    <path d="M 121.557505 218.242131 
L 121.557505 218.018588 
" clip-path="url(#p334c180723)" style="fill: none; stroke: #1f77b4; stroke-width: 1.5"/>
    <path d="M 123.08697 217.461109 
L 123.08697 217.136611 
" clip-path="url(#p334c180723)" style="fill: none; stroke: #1f77b4; stroke-width: 1.5"/>
    <path d="M 124.616436 217.69656 
L 124.616436 217.39856 
" clip-path="url(#p334c180723)" style="fill: none; stroke: #1f77b4; stroke-width: 1.5"/>
    <path d="M 126.145901 217.066649 
L 126.145901 216.702234 
" clip-path="url(#p334c180723)" style="fill: none; stroke: #1f77b4; stroke-width: 1.5"/>
    <path d="M 127.675367 216.320939 
L 127.675367 215.89016 
" clip-path="url(#p334c180723)" style="fill: none; stroke: #1f77b4; stroke-width: 1.5"/>
    <path d="M 129.204832 216.054713 
L 129.204832 215.603567 
" clip-path="url(#p334c180723)" style="fill: none; stroke: #1f77b4; stroke-width: 1.5"/>
    <path d="M 130.734298 215.174387 
L 130.734298 214.660584 
" clip-path="url(#p334c180723)" style="fill: none; stroke: #1f77b4; stroke-width: 1.5"/>
    <path d="M 132.263763 214.861364 
L 132.263763 214.326523 
" clip-path="url(#p334c180723)" style="fill: none; stroke: #1f77b4; stroke-width: 1.5"/>
    <path d="M 133.793229 214.497888 
L 133.793229 213.940693 
" clip-path="url(#p334c180723)" style="fill: none; stroke: #1f77b4; stroke-width: 1.5"/>
    <path d="M 135.322694 213.577469 
L 135.322694 212.965345 
" clip-path="url(#p334c180723)" style="fill: none; stroke: #1f77b4; stroke-width: 1.5"/>
    <path d="M 136.85216 213.574175 
L 136.85216 212.961669 
" clip-path="url(#p334c180723)" style="fill: none; stroke: #1f77b4; stroke-width: 1.5"/>
    <path d="M 138.381625 212.240072 
L 138.381625 211.556686 
" clip-path="url(#p334c180723)" style="fill: none; stroke: #1f77b4; stroke-width: 1.5"/>
    <path d="M 139.911091 211.182432 
L 139.911091 210.446419 
" clip-path="url(#p334c180723)" style="fill: none; stroke: #1f77b4; stroke-width: 1.5"/>
    <path d="M 141.440556 210.076561 
L 141.440556 209.290082 
" clip-path="url(#p334c180723)" style="fill: none; stroke: #1f77b4; stroke-width: 1.5"/>
    <path d="M 142.970022 209.68909 
L 142.970022 208.878107 
" clip-path="url(#p334c180723)" style="fill: none; stroke: #1f77b4; stroke-width: 1.5"/>
    <path d="M 144.499487 207.801501 
L 144.499487 206.910184 
" clip-path="url(#p334c180723)" style="fill: none; stroke: #1f77b4; stroke-width: 1.5"/>
    <path d="M 146.028953 207.476582 
L 146.028953 206.567966 
" clip-path="url(#p334c180723)" style="fill: none; stroke: #1f77b4; stroke-width: 1.5"/>
    <path d="M 147.558419 203.857278 
L 147.558419 202.812562 
" clip-path="url(#p334c180723)" style="fill: none; stroke: #1f77b4; stroke-width: 1.5"/>
    <path d="M 149.087884 203.880639 
L 149.087884 202.824793 
" clip-path="url(#p334c180723)" style="fill: none; stroke: #1f77b4; stroke-width: 1.5"/>
    <path d="M 150.61735 202.634989 
L 150.61735 201.527299 
" clip-path="url(#p334c180723)" style="fill: none; stroke: #1f77b4; stroke-width: 1.5"/>
    <path d="M 152.146815 199.340201 
L 152.146815 198.117844 
" clip-path="url(#p334c180723)" style="fill: none; stroke: #1f77b4; stroke-width: 1.5"/>
    <path d="M 153.676281 197.104059 
L 153.676281 195.808851 
" clip-path="url(#p334c180723)" style="fill: none; stroke: #1f77b4; stroke-width: 1.5"/>
    <path d="M 155.205746 195.887916 
L 155.205746 194.54341 
" clip-path="url(#p334c180723)" style="fill: none; stroke: #1f77b4; stroke-width: 1.5"/>
    <path d="M 156.735212 192.020752 
L 156.735212 190.555145 
" clip-path="url(#p334c180723)" style="fill: none; stroke: #1f77b4; stroke-width: 1.5"/>
    <path d="M 158.264677 187.629958 
L 158.264677 186.042947 
" clip-path="url(#p334c180723)" style="fill: none; stroke: #1f77b4; stroke-width: 1.5"/>
    <path d="M 159.794143 186.298238 
L 159.794143 184.675816 
" clip-path="url(#p334c180723)" style="fill: none; stroke: #1f77b4; stroke-width: 1.5"/>
    <path d="M 161.323608 183.602287 
L 161.323608 181.887899 
" clip-path="url(#p334c180723)" style="fill: none; stroke: #1f77b4; stroke-width: 1.5"/>
    <path d="M 162.853074 179.371158 
L 162.853074 177.553656 
" clip-path="url(#p334c180723)" style="fill: none; stroke: #1f77b4; stroke-width: 1.5"/>
    <path d="M 164.382539 175.406227 
L 164.382539 173.478221 
" clip-path="url(#p334c180723)" style="fill: none; stroke: #1f77b4; stroke-width: 1.5"/>
    <path d="M 165.912005 172.195851 
L 165.912005 170.211608 
" clip-path="url(#p334c180723)" style="fill: none; stroke: #1f77b4; stroke-width: 1.5"/>
    <path d="M 167.44147 166.368672 
L 167.44147 164.247808 
" clip-path="url(#p334c180723)" style="fill: none; stroke: #1f77b4; stroke-width: 1.5"/>
    <path d="M 168.970936 164.24511 
L 168.970936 162.07237 
" clip-path="url(#p334c180723)" style="fill: none; stroke: #1f77b4; stroke-width: 1.5"/>
    <path d="M 170.500401 158.087543 
L 170.500401 155.786563 
" clip-path="url(#p334c180723)" style="fill: none; stroke: #1f77b4; stroke-width: 1.5"/>
    <path d="M 172.029867 153.78881 
L 172.029867 151.406684 
" clip-path="url(#p334c180723)" style="fill: none; stroke: #1f77b4; stroke-width: 1.5"/>
    <path d="M 173.559332 146.743266 
L 173.559332 144.219704 
" clip-path="url(#p334c180723)" style="fill: none; stroke: #1f77b4; stroke-width: 1.5"/>
    <path d="M 175.088798 144.203151 
L 175.088798 141.636298 
" clip-path="url(#p334c180723)" style="fill: none; stroke: #1f77b4; stroke-width: 1.5"/>
    <path d="M 176.618263 141.571335 
L 176.618263 138.950481 
" clip-path="url(#p334c180723)" style="fill: none; stroke: #1f77b4; stroke-width: 1.5"/>
    <path d="M 178.147729 134.868911 
L 178.147729 132.136895 
" clip-path="url(#p334c180723)" style="fill: none; stroke: #1f77b4; stroke-width: 1.5"/>
    <path d="M 179.677194 128.505034 
L 179.677194 125.677266 
" clip-path="url(#p334c180723)" style="fill: none; stroke: #1f77b4; stroke-width: 1.5"/>
    <path d="M 181.20666 125.005751 
L 181.20666 122.111113 
" clip-path="url(#p334c180723)" style="fill: none; stroke: #1f77b4; stroke-width: 1.5"/>
    <path d="M 182.736125 119.347964 
L 182.736125 116.367514 
" clip-path="url(#p334c180723)" style="fill: none; stroke: #1f77b4; stroke-width: 1.5"/>
    <path d="M 184.265591 114.176161 
L 184.265591 111.111356 
" clip-path="url(#p334c180723)" style="fill: none; stroke: #1f77b4; stroke-width: 1.5"/>
    <path d="M 185.795056 106.301138 
L 185.795056 103.12803 
" clip-path="url(#p334c180723)" style="fill: none; stroke: #1f77b4; stroke-width: 1.5"/>
    <path d="M 187.324522 97.422792 
L 187.324522 94.12269 
" clip-path="url(#p334c180723)" style="fill: none; stroke: #1f77b4; stroke-width: 1.5"/>
    <path d="M 188.853987 90.891384 
L 188.853987 87.50272 
" clip-path="url(#p334c180723)" style="fill: none; stroke: #1f77b4; stroke-width: 1.5"/>
    <path d="M 190.383453 85.158329 
L 190.383453 81.691496 
" clip-path="url(#p334c180723)" style="fill: none; stroke: #1f77b4; stroke-width: 1.5"/>
    <path d="M 191.912918 82.509607 
L 191.912918 79.007808 
" clip-path="url(#p334c180723)" style="fill: none; stroke: #1f77b4; stroke-width: 1.5"/>
    <path d="M 193.442384 73.210692 
L 193.442384 69.583481 
" clip-path="url(#p334c180723)" style="fill: none; stroke: #1f77b4; stroke-width: 1.5"/>
    <path d="M 194.971849 67.222576 
L 194.971849 63.525847 
" clip-path="url(#p334c180723)" style="fill: none; stroke: #1f77b4; stroke-width: 1.5"/>
    <path d="M 196.501315 61.962382 
L 196.501315 58.208748 
" clip-path="url(#p334c180723)" style="fill: none; stroke: #1f77b4; stroke-width: 1.5"/>
    <path d="M 198.03078 62.442695 
L 198.03078 58.691117 
" clip-path="url(#p334c180723)" style="fill: none; stroke: #1f77b4; stroke-width: 1.5"/>
    <path d="M 199.560246 56.234068 
L 199.560246 52.413515 
" clip-path="url(#p334c180723)" style="fill: none; stroke: #1f77b4; stroke-width: 1.5"/>
    <path d="M 201.089711 49.322481 
L 201.089711 45.420789 
" clip-path="url(#p334c180723)" style="fill: none; stroke: #1f77b4; stroke-width: 1.5"/>
    <path d="M 202.619177 47.748968 
L 202.619177 43.82711 
" clip-path="url(#p334c180723)" style="fill: none; stroke: #1f77b4; stroke-width: 1.5"/>
    <path d="M 204.148642 46.85797 
L 204.148642 42.939077 
" clip-path="url(#p334c180723)" style="fill: none; stroke: #1f77b4; stroke-width: 1.5"/>
    <path d="M 205.678108 42.155924 
L 205.678108 38.182437 
" clip-path="url(#p334c180723)" style="fill: none; stroke: #1f77b4; stroke-width: 1.5"/>
    <path d="M 207.207573 39.5264 
L 207.207573 35.519569 
" clip-path="url(#p334c180723)" style="fill: none; stroke: #1f77b4; stroke-width: 1.5"/>
    <path d="M 208.737039 35.236738 
L 208.737039 31.190555 
" clip-path="url(#p334c180723)" style="fill: none; stroke: #1f77b4; stroke-width: 1.5"/>
    <path d="M 210.266504 38.271442 
L 210.266504 34.277871 
" clip-path="url(#p334c180723)" style="fill: none; stroke: #1f77b4; stroke-width: 1.5"/>
    <path d="M 211.79597 36.156103 
L 211.79597 32.136468 
" clip-path="url(#p334c180723)" style="fill: none; stroke: #1f77b4; stroke-width: 1.5"/>
    <path d="M 213.325435 33.179807 
L 213.325435 29.136538 
" clip-path="url(#p334c180723)" style="fill: none; stroke: #1f77b4; stroke-width: 1.5"/>
    <path d="M 214.854901 35.101681 
L 214.854901 31.093493 
" clip-path="url(#p334c180723)" style="fill: none; stroke: #1f77b4; stroke-width: 1.5"/>
    <path d="M 216.384366 34.711936 
L 216.384366 30.697869 
" clip-path="url(#p334c180723)" style="fill: none; stroke: #1f77b4; stroke-width: 1.5"/>
    <path d="M 217.913832 28.639062 
L 217.913832 24.54725 
" clip-path="url(#p334c180723)" style="fill: none; stroke: #1f77b4; stroke-width: 1.5"/>
    <path d="M 219.443297 32.069956 
L 219.443297 28.017563 
" clip-path="url(#p334c180723)" style="fill: none; stroke: #1f77b4; stroke-width: 1.5"/>
    <path d="M 220.972763 31.441753 
L 220.972763 27.38702 
" clip-path="url(#p334c180723)" style="fill: none; stroke: #1f77b4; stroke-width: 1.5"/>
    <path d="M 222.502228 30.639018 
L 222.502228 26.572096 
" clip-path="url(#p334c180723)" style="fill: none; stroke: #1f77b4; stroke-width: 1.5"/>
    <path d="M 224.031694 29.823933 
L 224.031694 25.743733 
" clip-path="url(#p334c180723)" style="fill: none; stroke: #1f77b4; stroke-width: 1.5"/>
    <path d="M 225.561159 28.608311 
L 225.561159 24.513878 
" clip-path="url(#p334c180723)" style="fill: none; stroke: #1f77b4; stroke-width: 1.5"/>
    <path d="M 227.090625 23.996026 
L 227.090625 19.845123 
" clip-path="url(#p334c180723)" style="fill: none; stroke: #1f77b4; stroke-width: 1.5"/>
    <path d="M 228.620091 21.458034 
L 228.620091 17.28 
" clip-path="url(#p334c180723)" style="fill: none; stroke: #1f77b4; stroke-width: 1.5"/>
    <path d="M 230.149556 26.928428 
L 230.149556 22.809198 
" clip-path="url(#p334c180723)" style="fill: none; stroke: #1f77b4; stroke-width: 1.5"/>
    <path d="M 231.679022 24.267158 
L 231.679022 20.118808 
" clip-path="url(#p334c180723)" style="fill: none; stroke: #1f77b4; stroke-width: 1.5"/>
    <path d="M 233.208487 21.811295 
L 233.208487 17.628549 
" clip-path="url(#p334c180723)" style="fill: none; stroke: #1f77b4; stroke-width: 1.5"/>
    <path d="M 234.737953 25.858303 
L 234.737953 21.717043 
" clip-path="url(#p334c180723)" style="fill: none; stroke: #1f77b4; stroke-width: 1.5"/>
    <path d="M 236.267418 29.032412 
L 236.267418 24.936241 
" clip-path="url(#p334c180723)" style="fill: none; stroke: #1f77b4; stroke-width: 1.5"/>
    <path d="M 237.796884 33.004434 
L 237.796884 28.952414 
" clip-path="url(#p334c180723)" style="fill: none; stroke: #1f77b4; stroke-width: 1.5"/>
    <path d="M 239.326349 32.429217 
L 239.326349 28.367225 
" clip-path="url(#p334c180723)" style="fill: none; stroke: #1f77b4; stroke-width: 1.5"/>
    <path d="M 240.855815 31.710103 
L 240.855815 27.632446 
" clip-path="url(#p334c180723)" style="fill: none; stroke: #1f77b4; stroke-width: 1.5"/>
    <path d="M 242.38528 37.765682 
L 242.38528 33.76709 
" clip-path="url(#p334c180723)" style="fill: none; stroke: #1f77b4; stroke-width: 1.5"/>
    <path d="M 243.914746 41.504872 
L 243.914746 37.544358 
" clip-path="url(#p334c180723)" style="fill: none; stroke: #1f77b4; stroke-width: 1.5"/>
    <path d="M 245.444211 45.615516 
L 245.444211 41.704636 
" clip-path="url(#p334c180723)" style="fill: none; stroke: #1f77b4; stroke-width: 1.5"/>
    <path d="M 246.973677 46.158217 
L 246.973677 42.253513 
" clip-path="url(#p334c180723)" style="fill: none; stroke: #1f77b4; stroke-width: 1.5"/>
    <path d="M 248.503142 56.731418 
L 248.503142 52.954143 
" clip-path="url(#p334c180723)" style="fill: none; stroke: #1f77b4; stroke-width: 1.5"/>
    <path d="M 250.032608 56.110036 
L 250.032608 52.32844 
" clip-path="url(#p334c180723)" style="fill: none; stroke: #1f77b4; stroke-width: 1.5"/>
    <path d="M 251.562073 65.900753 
L 251.562073 62.238823 
" clip-path="url(#p334c180723)" style="fill: none; stroke: #1f77b4; stroke-width: 1.5"/>
    <path d="M 253.091539 70.667494 
L 253.091539 67.065346 
" clip-path="url(#p334c180723)" style="fill: none; stroke: #1f77b4; stroke-width: 1.5"/>
    <path d="M 254.621004 75.379914 
L 254.621004 71.837962 
" clip-path="url(#p334c180723)" style="fill: none; stroke: #1f77b4; stroke-width: 1.5"/>
    <path d="M 256.15047 77.271853 
L 256.15047 73.762007 
" clip-path="url(#p334c180723)" style="fill: none; stroke: #1f77b4; stroke-width: 1.5"/>
    <path d="M 257.679935 83.06712 
L 257.679935 79.626422 
" clip-path="url(#p334c180723)" style="fill: none; stroke: #1f77b4; stroke-width: 1.5"/>
    <path d="M 259.209401 88.576338 
L 259.209401 85.205543 
" clip-path="url(#p334c180723)" style="fill: none; stroke: #1f77b4; stroke-width: 1.5"/>
    <path d="M 260.738866 96.960141 
L 260.738866 93.708341 
" clip-path="url(#p334c180723)" style="fill: none; stroke: #1f77b4; stroke-width: 1.5"/>
    <path d="M 262.268332 100.671077 
L 262.268332 97.472666 
" clip-path="url(#p334c180723)" style="fill: none; stroke: #1f77b4; stroke-width: 1.5"/>
    <path d="M 263.797797 104.035516 
L 263.797797 100.888557 
" clip-path="url(#p334c180723)" style="fill: none; stroke: #1f77b4; stroke-width: 1.5"/>
    <path d="M 265.327263 111.552326 
L 265.327263 108.517544 
" clip-path="url(#p334c180723)" style="fill: none; stroke: #1f77b4; stroke-width: 1.5"/>
    <path d="M 266.856728 114.648205 
L 266.856728 111.660267 
" clip-path="url(#p334c180723)" style="fill: none; stroke: #1f77b4; stroke-width: 1.5"/>
    <path d="M 268.386194 118.928116 
L 268.386194 116.014371 
" clip-path="url(#p334c180723)" style="fill: none; stroke: #1f77b4; stroke-width: 1.5"/>
    <path d="M 269.915659 125.00841 
L 269.915659 122.187646 
" clip-path="url(#p334c180723)" style="fill: none; stroke: #1f77b4; stroke-width: 1.5"/>
    <path d="M 271.445125 128.842797 
L 271.445125 126.080787 
" clip-path="url(#p334c180723)" style="fill: none; stroke: #1f77b4; stroke-width: 1.5"/>
    <path d="M 272.97459 133.655536 
L 272.97459 130.979834 
" clip-path="url(#p334c180723)" style="fill: none; stroke: #1f77b4; stroke-width: 1.5"/>
    <path d="M 274.504056 137.174829 
L 274.504056 134.559847 
" clip-path="url(#p334c180723)" style="fill: none; stroke: #1f77b4; stroke-width: 1.5"/>
    <path d="M 276.033521 145.137765 
L 276.033521 142.667386 
" clip-path="url(#p334c180723)" style="fill: none; stroke: #1f77b4; stroke-width: 1.5"/>
    <path d="M 277.562987 147.946696 
L 277.562987 145.536128 
" clip-path="url(#p334c180723)" style="fill: none; stroke: #1f77b4; stroke-width: 1.5"/>
    <path d="M 279.092452 152.908211 
L 279.092452 150.586435 
" clip-path="url(#p334c180723)" style="fill: none; stroke: #1f77b4; stroke-width: 1.5"/>
    <path d="M 280.621918 156.000806 
L 280.621918 153.738531 
" clip-path="url(#p334c180723)" style="fill: none; stroke: #1f77b4; stroke-width: 1.5"/>
    <path d="M 282.151383 158.699534 
L 282.151383 156.496726 
" clip-path="url(#p334c180723)" style="fill: none; stroke: #1f77b4; stroke-width: 1.5"/>
    <path d="M 283.680849 162.046689 
L 283.680849 159.913945 
" clip-path="url(#p334c180723)" style="fill: none; stroke: #1f77b4; stroke-width: 1.5"/>
    <path d="M 285.210314 166.000204 
L 285.210314 163.942864 
" clip-path="url(#p334c180723)" style="fill: none; stroke: #1f77b4; stroke-width: 1.5"/>
    <path d="M 286.73978 170.343343 
L 286.73978 168.384316 
" clip-path="url(#p334c180723)" style="fill: none; stroke: #1f77b4; stroke-width: 1.5"/>
    <path d="M 288.269245 173.676994 
L 288.269245 171.787532 
" clip-path="url(#p334c180723)" style="fill: none; stroke: #1f77b4; stroke-width: 1.5"/>
    <path d="M 289.798711 176.996869 
L 289.798711 175.182213 
" clip-path="url(#p334c180723)" style="fill: none; stroke: #1f77b4; stroke-width: 1.5"/>
    <path d="M 291.328176 176.80121 
L 291.328176 174.986356 
" clip-path="url(#p334c180723)" style="fill: none; stroke: #1f77b4; stroke-width: 1.5"/>
    <path d="M 292.857642 180.73794 
L 292.857642 179.005633 
" clip-path="url(#p334c180723)" style="fill: none; stroke: #1f77b4; stroke-width: 1.5"/>
    <path d="M 294.387107 185.193092 
L 294.387107 183.57061 
" clip-path="url(#p334c180723)" style="fill: none; stroke: #1f77b4; stroke-width: 1.5"/>
    <path d="M 295.916573 186.653769 
L 295.916573 185.067544 
" clip-path="url(#p334c180723)" style="fill: none; stroke: #1f77b4; stroke-width: 1.5"/>
    <path d="M 297.446038 190.905821 
L 297.446038 189.4433 
" clip-path="url(#p334c180723)" style="fill: none; stroke: #1f77b4; stroke-width: 1.5"/>
    <path d="M 298.975504 192.857937 
L 298.975504 191.449859 
" clip-path="url(#p334c180723)" style="fill: none; stroke: #1f77b4; stroke-width: 1.5"/>
    <path d="M 300.504969 195.373072 
L 300.504969 194.030301 
" clip-path="url(#p334c180723)" style="fill: none; stroke: #1f77b4; stroke-width: 1.5"/>
    <path d="M 302.034435 198.839726 
L 302.034435 197.617891 
" clip-path="url(#p334c180723)" style="fill: none; stroke: #1f77b4; stroke-width: 1.5"/>
    <path d="M 303.5639 199.340224 
L 303.5639 198.131759 
" clip-path="url(#p334c180723)" style="fill: none; stroke: #1f77b4; stroke-width: 1.5"/>
    <path d="M 305.093366 201.517569 
L 305.093366 200.386368 
" clip-path="url(#p334c180723)" style="fill: none; stroke: #1f77b4; stroke-width: 1.5"/>
    <path d="M 306.622831 203.677893 
L 306.622831 202.636764 
" clip-path="url(#p334c180723)" style="fill: none; stroke: #1f77b4; stroke-width: 1.5"/>
    <path d="M 308.152297 206.216774 
L 308.152297 205.260812 
" clip-path="url(#p334c180723)" style="fill: none; stroke: #1f77b4; stroke-width: 1.5"/>
    <path d="M 309.681763 208.196427 
L 309.681763 207.327914 
" clip-path="url(#p334c180723)" style="fill: none; stroke: #1f77b4; stroke-width: 1.5"/>
    <path d="M 311.211228 208.743048 
L 311.211228 207.904638 
" clip-path="url(#p334c180723)" style="fill: none; stroke: #1f77b4; stroke-width: 1.5"/>
    <path d="M 312.740694 210.366828 
L 312.740694 209.605934 
" clip-path="url(#p334c180723)" style="fill: none; stroke: #1f77b4; stroke-width: 1.5"/>
    <path d="M 314.270159 211.398116 
L 314.270159 210.690321 
" clip-path="url(#p334c180723)" style="fill: none; stroke: #1f77b4; stroke-width: 1.5"/>
    <path d="M 315.799625 211.850252 
L 315.799625 211.166655 
" clip-path="url(#p334c180723)" style="fill: none; stroke: #1f77b4; stroke-width: 1.5"/>
    <path d="M 317.32909 212.673603 
L 317.32909 212.033942 
" clip-path="url(#p334c180723)" style="fill: none; stroke: #1f77b4; stroke-width: 1.5"/>
    <path d="M 318.858556 213.9507 
L 318.858556 213.378675 
" clip-path="url(#p334c180723)" style="fill: none; stroke: #1f77b4; stroke-width: 1.5"/>
    <path d="M 320.388021 214.248087 
L 320.388021 213.693566 
" clip-path="url(#p334c180723)" style="fill: none; stroke: #1f77b4; stroke-width: 1.5"/>
    <path d="M 321.917487 215.093451 
L 321.917487 214.592358 
" clip-path="url(#p334c180723)" style="fill: none; stroke: #1f77b4; stroke-width: 1.5"/>
    <path d="M 323.446952 215.229537 
L 323.446952 214.73728 
" clip-path="url(#p334c180723)" style="fill: none; stroke: #1f77b4; stroke-width: 1.5"/>
    <path d="M 324.976418 216.416318 
L 324.976418 216.009283 
" clip-path="url(#p334c180723)" style="fill: none; stroke: #1f77b4; stroke-width: 1.5"/>
    <path d="M 326.505883 216.380784 
L 326.505883 215.971758 
" clip-path="url(#p334c180723)" style="fill: none; stroke: #1f77b4; stroke-width: 1.5"/>
    <path d="M 328.035349 217.075036 
L 328.035349 216.724773 
" clip-path="url(#p334c180723)" style="fill: none; stroke: #1f77b4; stroke-width: 1.5"/>
    <path d="M 329.564814 217.439253 
L 329.564814 217.12405 
" clip-path="url(#p334c180723)" style="fill: none; stroke: #1f77b4; stroke-width: 1.5"/>
    <path d="M 331.09428 217.95216 
L 331.09428 217.698089 
" clip-path="url(#p334c180723)" style="fill: none; stroke: #1f77b4; stroke-width: 1.5"/>
    <path d="M 332.623745 217.833737 
L 332.623745 217.564479 
" clip-path="url(#p334c180723)" style="fill: none; stroke: #1f77b4; stroke-width: 1.5"/>
    <path d="M 334.153211 218.175423 
L 334.153211 217.9509 
" clip-path="url(#p334c180723)" style="fill: none; stroke: #1f77b4; stroke-width: 1.5"/>
    <path d="M 335.682676 218.546495 
L 335.682676 218.387472 
" clip-path="url(#p334c180723)" style="fill: none; stroke: #1f77b4; stroke-width: 1.5"/>
    <path d="M 337.212142 218.534712 
L 337.212142 218.373767 
" clip-path="url(#p334c180723)" style="fill: none; stroke: #1f77b4; stroke-width: 1.5"/>
    <path d="M 338.741607 218.8017 
L 338.741607 218.716052 
" clip-path="url(#p334c180723)" style="fill: none; stroke: #1f77b4; stroke-width: 1.5"/>
    <path d="M 340.271073 218.849733 
L 340.271073 218.789199 
" clip-path="url(#p334c180723)" style="fill: none; stroke: #1f77b4; stroke-width: 1.5"/>
    <path d="M 341.800538 218.871143 
L 341.800538 218.82838 
" clip-path="url(#p334c180723)" style="fill: none; stroke: #1f77b4; stroke-width: 1.5"/>
    <path d="M 343.330004 218.849648 
L 343.330004 218.788944 
" clip-path="url(#p334c180723)" style="fill: none; stroke: #1f77b4; stroke-width: 1.5"/>
    <path d="M 344.859469 218.88 
L 344.859469 218.88 
" clip-path="url(#p334c180723)" style="fill: none; stroke: #1f77b4; stroke-width: 1.5"/>
    <path d="M 346.388935 218.88 
L 346.388935 218.88 
" clip-path="url(#p334c180723)" style="fill: none; stroke: #1f77b4; stroke-width: 1.5"/>
    <path d="M 347.9184 218.88 
L 347.9184 218.88 
" clip-path="url(#p334c180723)" style="fill: none; stroke: #1f77b4; stroke-width: 1.5"/>
    <path d="M 349.447866 218.88 
L 349.447866 218.88 
" clip-path="url(#p334c180723)" style="fill: none; stroke: #1f77b4; stroke-width: 1.5"/>
    <path d="M 350.977331 218.88 
L 350.977331 218.88 
" clip-path="url(#p334c180723)" style="fill: none; stroke: #1f77b4; stroke-width: 1.5"/>
    <path d="M 352.506797 218.88 
L 352.506797 218.88 
" clip-path="url(#p334c180723)" style="fill: none; stroke: #1f77b4; stroke-width: 1.5"/>
    <path d="M 354.036262 218.88 
L 354.036262 218.88 
" clip-path="url(#p334c180723)" style="fill: none; stroke: #1f77b4; stroke-width: 1.5"/>
    <path d="M 355.565728 218.88 
L 355.565728 218.88 
" clip-path="url(#p334c180723)" style="fill: none; stroke: #1f77b4; stroke-width: 1.5"/>
    <path d="M 357.095193 218.88 
L 357.095193 218.88 
" clip-path="url(#p334c180723)" style="fill: none; stroke: #1f77b4; stroke-width: 1.5"/>
    <path d="M 358.624659 218.88 
L 358.624659 218.88 
" clip-path="url(#p334c180723)" style="fill: none; stroke: #1f77b4; stroke-width: 1.5"/>
    <path d="M 360.154124 218.88 
L 360.154124 218.88 
" clip-path="url(#p334c180723)" style="fill: none; stroke: #1f77b4; stroke-width: 1.5"/>
    <path d="M 361.68359 218.88 
L 361.68359 218.88 
" clip-path="url(#p334c180723)" style="fill: none; stroke: #1f77b4; stroke-width: 1.5"/>
    <path d="M 363.213055 218.88 
L 363.213055 218.88 
" clip-path="url(#p334c180723)" style="fill: none; stroke: #1f77b4; stroke-width: 1.5"/>
    <path d="M 364.742521 218.88 
L 364.742521 218.88 
" clip-path="url(#p334c180723)" style="fill: none; stroke: #1f77b4; stroke-width: 1.5"/>
    <path d="M 366.271986 218.88 
L 366.271986 218.88 
" clip-path="url(#p334c180723)" style="fill: none; stroke: #1f77b4; stroke-width: 1.5"/>
    <path d="M 367.801452 218.88 
L 367.801452 218.88 
" clip-path="url(#p334c180723)" style="fill: none; stroke: #1f77b4; stroke-width: 1.5"/>
    <path d="M 369.330917 218.88 
L 369.330917 218.88 
" clip-path="url(#p334c180723)" style="fill: none; stroke: #1f77b4; stroke-width: 1.5"/>
    <path d="M 370.860383 218.88 
L 370.860383 218.88 
" clip-path="url(#p334c180723)" style="fill: none; stroke: #1f77b4; stroke-width: 1.5"/>
    <path d="M 372.389848 218.88 
L 372.389848 218.88 
" clip-path="url(#p334c180723)" style="fill: none; stroke: #1f77b4; stroke-width: 1.5"/>
    <path d="M 373.919314 218.88 
L 373.919314 218.88 
" clip-path="url(#p334c180723)" style="fill: none; stroke: #1f77b4; stroke-width: 1.5"/>
    <path d="M 375.448779 218.88 
L 375.448779 218.88 
" clip-path="url(#p334c180723)" style="fill: none; stroke: #1f77b4; stroke-width: 1.5"/>
    <path d="M 376.978245 218.88 
L 376.978245 218.88 
" clip-path="url(#p334c180723)" style="fill: none; stroke: #1f77b4; stroke-width: 1.5"/>
    <path d="M 378.50771 218.88 
L 378.50771 218.88 
" clip-path="url(#p334c180723)" style="fill: none; stroke: #1f77b4; stroke-width: 1.5"/>
   </g>
   <g id="patch_3">
    <path d="M 59.690625 228.96 
L 59.690625 7.2 
" style="fill: none; stroke: #000000; stroke-width: 0.8; stroke-linejoin: miter; stroke-linecap: square"/>
   </g>
   <g id="patch_4">
    <path d="M 394.490625 228.96 
L 394.490625 7.2 
" style="fill: none; stroke: #000000; stroke-width: 0.8; stroke-linejoin: miter; stroke-linecap: square"/>
   </g>
   <g id="patch_5">
    <path d="M 59.690625 228.96 
L 394.490625 228.96 
" style="fill: none; stroke: #000000; stroke-width: 0.8; stroke-linejoin: miter; stroke-linecap: square"/>
   </g>
   <g id="patch_6">
    <path d="M 59.690625 7.2 
L 394.490625 7.2 
" style="fill: none; stroke: #000000; stroke-width: 0.8; stroke-linejoin: miter; stroke-linecap: square"/>
   </g>
  </g>
 </g>
 <defs>
  <clipPath id="p334c180723">
   <rect x="59.690625" y="7.2" width="334.8" height="221.76"/>
  </clipPath>
 </defs>
</svg>
