<?xml version="1.0" encoding="UTF-8" standalone="no"?>
<!DOCTYPE svg PUBLIC "-//W3C//DTD SVG 1.1//EN"
 "http://www.w3.org/Graphics/SVG/1.1/DTD/svg11.dtd">
<!-- Generated by graphviz version 2.43.0 (0)
 -->
<!-- Title: %3 Pages: 1 -->
<svg width="4129pt" height="411pt"
 viewBox="0.00 0.00 4129.00 410.50" xmlns="http://www.w3.org/2000/svg" xmlns:xlink="http://www.w3.org/1999/xlink">
<g id="graph0" class="graph" transform="scale(1 1) rotate(0) translate(4 406.5)">
<title>%3</title>
<polygon fill="white" stroke="transparent" points="-4,4 -4,-406.5 4125,-406.5 4125,4 -4,4"/>
<g id="clust16" class="cluster">
<title>cluster_NeXusClass</title>
<polygon fill="#f0f0ff" stroke="#f0f0ff" points="551,-288.5 551,-394.5 761,-394.5 761,-288.5 551,-288.5"/>
<text text-anchor="middle" x="656" y="-379.3" font-family="Times,serif" font-size="14.00">NeXusClass</text>
</g>
<g id="clust25" class="cluster">
<title>cluster_Position</title>
<polygon fill="#f0f0ff" stroke="#f0f0ff" points="2555.5,-163.5 2555.5,-259.5 2735.5,-259.5 2735.5,-163.5 2555.5,-163.5"/>
<text text-anchor="start" x="2616.5" y="-245.3" font-family="Times,serif" font-size="14.00">Position</text>
<text text-anchor="start" x="2585.5" y="-233.7" font-family="Times,serif" font-size="11.00">via:</text>
<text text-anchor="start" x="2606.5" y="-233.7" font-family="Times,serif" font-style="italic" font-size="11.00">compute_position</text>
</g>
<g id="clust17" class="cluster">
<title>cluster_NeXusComponentLocationSpec</title>
<polygon fill="#f0f0ff" stroke="#f0f0ff" points="536,-139.5 536,-280.5 776,-280.5 776,-139.5 536,-139.5"/>
<text text-anchor="middle" x="656" y="-265.3" font-family="Times,serif" font-size="14.00">NeXusComponentLocationSpec</text>
</g>
<g id="clust18" class="cluster">
<title>cluster_NeXusComponent</title>
<polygon fill="#f0f0ff" stroke="#f0f0ff" points="840,-186.5 840,-327.5 1026,-327.5 1026,-186.5 840,-186.5"/>
<text text-anchor="middle" x="933" y="-312.3" font-family="Times,serif" font-size="14.00">NeXusComponent</text>
</g>
<g id="clust23" class="cluster">
<title>cluster_NeXusTransformationChain</title>
<polygon fill="#f0f0ff" stroke="#f0f0ff" points="1090,-211.5 1090,-332.5 1305,-332.5 1305,-211.5 1090,-211.5"/>
<text text-anchor="start" x="1098" y="-318.3" font-family="Times,serif" font-size="14.00">NeXusTransformationChain</text>
<text text-anchor="start" x="1115.5" y="-306.7" font-family="Times,serif" font-size="11.00">via:</text>
<text text-anchor="start" x="1136.5" y="-306.7" font-family="Times,serif" font-style="italic" font-size="11.00">get_transformation_chain</text>
</g>
<g id="clust24" class="cluster">
<title>cluster_NeXusTransformation</title>
<polygon fill="#f0f0ff" stroke="#f0f0ff" points="1471,-201.5 1471,-322.5 1657,-322.5 1657,-201.5 1471,-201.5"/>
<text text-anchor="start" x="1485.5" y="-308.3" font-family="Times,serif" font-size="14.00">NeXusTransformation</text>
<text text-anchor="start" x="1503" y="-296.7" font-family="Times,serif" font-size="11.00">via:</text>
<text text-anchor="start" x="1524" y="-296.7" font-family="Times,serif" font-style="italic" font-size="11.00">to_transformation</text>
</g>
<!-- QDetector[SampleRun] -->
<g id="node1" class="node">
<title>QDetector[SampleRun]</title>
<polygon fill="none" stroke="black" points="3763,-147 3581,-147 3581,-114 3763,-114 3763,-147"/>
<text text-anchor="start" x="3589" y="-132.8" font-family="Times,serif" font-size="14.00">QDetector[SampleRun]</text>
<text text-anchor="start" x="3591" y="-121.2" font-family="Times,serif" font-size="11.00">via:</text>
<text text-anchor="start" x="3612" y="-121.2" font-family="Times,serif" font-style="italic" font-size="11.00">convert_wavelength_to_q</text>
</g>
<!-- CountsWithQMapCoords[SampleRun] -->
<g id="node2" class="node">
<title>CountsWithQMapCoords[SampleRun]</title>
<polygon fill="none" stroke="black" points="4121,-165 3835,-165 3835,-132 4121,-132 4121,-165"/>
<text text-anchor="start" x="3843" y="-150.8" font-family="Times,serif" font-size="14.00">CountsWithQMapCoords[SampleRun]</text>
<text text-anchor="start" x="3888" y="-139.2" font-family="Times,serif" font-size="11.00">via:</text>
<text text-anchor="start" x="3909" y="-139.2" font-family="Times,serif" font-style="italic" font-size="11.00">project_momentum_transfer</text>
</g>
<!-- QDetector[SampleRun]&#45;&gt;CountsWithQMapCoords[SampleRun] -->
<g id="edge1" class="edge">
<title>QDetector[SampleRun]:e&#45;&gt;CountsWithQMapCoords[SampleRun]:w</title>
<path fill="none" stroke="black" d="M3763,-130.5C3792.25,-130.5 3800.3,-144.65 3824.75,-147.86"/>
<polygon fill="black" stroke="black" points="3824.8,-151.37 3835,-148.5 3825.24,-144.38 3824.8,-151.37"/>
</g>
<!-- QProjection -->
<g id="node3" class="node">
<title>QProjection</title>
<polygon fill="none" stroke="black" points="3747.5,-184 3596.5,-184 3596.5,-151 3747.5,-151 3747.5,-184"/>
<text text-anchor="start" x="3629.5" y="-169.8" font-family="Times,serif" font-size="14.00">QProjection</text>
<text text-anchor="start" x="3604.5" y="-158.2" font-family="Times,serif" font-size="11.00">via:</text>
<text text-anchor="start" x="3625.5" y="-158.2" font-family="Times,serif" font-style="italic" font-size="11.00">default_q_projection</text>
</g>
<!-- QProjection&#45;&gt;CountsWithQMapCoords[SampleRun] -->
<g id="edge2" class="edge">
<title>QProjection:e&#45;&gt;CountsWithQMapCoords[SampleRun]:w</title>
<path fill="none" stroke="black" d="M3749,-167.5C3784.47,-167.5 3794.13,-151.9 3824.77,-148.97"/>
<polygon fill="black" stroke="black" points="3825.17,-152.45 3835,-148.5 3824.85,-145.46 3825.17,-152.45"/>
</g>
<!-- RawDetector[SampleRun] -->
<g id="node4" class="node">
<title>RawDetector[SampleRun]</title>
<polygon fill="none" stroke="black" points="2791,-118 2500,-118 2500,-85 2791,-85 2791,-118"/>
<text text-anchor="start" x="2552.5" y="-103.8" font-family="Times,serif" font-size="14.00">RawDetector[SampleRun]</text>
<text text-anchor="start" x="2508" y="-92.2" font-family="Times,serif" font-size="11.00">via:</text>
<text text-anchor="start" x="2529" y="-92.2" font-family="Times,serif" font-style="italic" font-size="11.00">convert_simulated_time_to_event_time_offset</text>
</g>
<!-- DataGroupedByRotation[SampleRun] -->
<g id="node5" class="node">
<title>DataGroupedByRotation[SampleRun]</title>
<polygon fill="none" stroke="black" points="3164.5,-98 2880.5,-98 2880.5,-65 3164.5,-65 3164.5,-98"/>
<text text-anchor="start" x="2888.5" y="-83.8" font-family="Times,serif" font-size="14.00">DataGroupedByRotation[SampleRun]</text>
<text text-anchor="start" x="2961.5" y="-72.2" font-family="Times,serif" font-size="11.00">via:</text>
<text text-anchor="start" x="2982.5" y="-72.2" font-family="Times,serif" font-style="italic" font-size="11.00">group_by_rotation</text>
</g>
<!-- RawDetector[SampleRun]&#45;&gt;DataGroupedByRotation[SampleRun] -->
<g id="edge3" class="edge">
<title>RawDetector[SampleRun]:e&#45;&gt;DataGroupedByRotation[SampleRun]:w</title>
<path fill="none" stroke="black" d="M2791,-101.5C2827.7,-101.5 2837.5,-84.93 2869.37,-81.96"/>
<polygon fill="black" stroke="black" points="2869.67,-85.45 2879.5,-81.5 2869.35,-78.45 2869.67,-85.45"/>
</g>
<!-- DetectorLtotal[SampleRun] -->
<g id="node9" class="node">
<title>DetectorLtotal[SampleRun]</title>
<polygon fill="none" stroke="black" points="3179.5,-135 2865.5,-135 2865.5,-102 3179.5,-102 3179.5,-135"/>
<text text-anchor="start" x="2924" y="-120.8" font-family="Times,serif" font-size="14.00">DetectorLtotal[SampleRun]</text>
<text text-anchor="start" x="2873.5" y="-109.2" font-family="Times,serif" font-size="11.00">via:</text>
<text text-anchor="start" x="2894.5" y="-109.2" font-family="Times,serif" font-style="italic" font-size="11.00">detector_ltotal_from_straight_line_approximation</text>
</g>
<!-- RawDetector[SampleRun]&#45;&gt;DetectorLtotal[SampleRun] -->
<g id="edge6" class="edge">
<title>RawDetector[SampleRun]:e&#45;&gt;DetectorLtotal[SampleRun]:w</title>
<path fill="none" stroke="black" d="M2791,-101.5C2820.86,-101.5 2829.24,-114.98 2854.4,-117.93"/>
<polygon fill="black" stroke="black" points="2854.32,-121.44 2864.5,-118.5 2854.71,-114.45 2854.32,-121.44"/>
</g>
<!-- WavelengthDetector[SampleRun] -->
<g id="node44" class="node">
<title>WavelengthDetector[SampleRun]</title>
<polygon fill="none" stroke="black" points="3509,-135 3254,-135 3254,-102 3509,-102 3509,-135"/>
<text text-anchor="start" x="3262" y="-120.8" font-family="Times,serif" font-size="14.00">WavelengthDetector[SampleRun]</text>
<text text-anchor="start" x="3297" y="-109.2" font-family="Times,serif" font-size="11.00">via:</text>
<text text-anchor="start" x="3318" y="-109.2" font-family="Times,serif" font-style="italic" font-size="11.00">detector_wavelength_data</text>
</g>
<!-- DataGroupedByRotation[SampleRun]&#45;&gt;WavelengthDetector[SampleRun] -->
<g id="edge54" class="edge">
<title>DataGroupedByRotation[SampleRun]:e&#45;&gt;WavelengthDetector[SampleRun]:w</title>
<path fill="none" stroke="black" d="M3165.5,-81.5C3204.47,-81.5 3210.52,-112.41 3243.83,-117.73"/>
<polygon fill="black" stroke="black" points="3243.76,-121.23 3254,-118.5 3244.29,-114.25 3243.76,-121.23"/>
</g>
<!-- SampleAngle[SampleRun] -->
<g id="node6" class="node">
<title>SampleAngle[SampleRun]</title>
<polygon fill="none" stroke="black" points="757.5,-121 554.5,-121 554.5,-88 757.5,-88 757.5,-121"/>
<text text-anchor="start" x="562.5" y="-106.8" font-family="Times,serif" font-size="14.00">SampleAngle[SampleRun]</text>
<text text-anchor="start" x="592.5" y="-95.2" font-family="Times,serif" font-size="11.00">via:</text>
<text text-anchor="start" x="613.5" y="-95.2" font-family="Times,serif" font-style="italic" font-size="11.00">load_sample_angle</text>
</g>
<!-- SampleAngle[SampleRun]&#45;&gt;DataGroupedByRotation[SampleRun] -->
<g id="edge4" class="edge">
<title>SampleAngle[SampleRun]:e&#45;&gt;DataGroupedByRotation[SampleRun]:w</title>
<path fill="none" stroke="black" d="M758,-104.5C953.04,-104.5 1000.96,-77.5 1196,-77.5 1196,-77.5 1196,-77.5 2301.5,-77.5 2555.01,-77.5 2620.88,-81.4 2869.44,-81.5"/>
<polygon fill="black" stroke="black" points="2869.5,-85 2879.5,-81.5 2869.5,-78 2869.5,-85"/>
</g>
<!-- InstrumentAngle[SampleRun] -->
<g id="node7" class="node">
<title>InstrumentAngle[SampleRun]</title>
<polygon fill="none" stroke="black" points="771,-84 541,-84 541,-51 771,-51 771,-84"/>
<text text-anchor="start" x="549" y="-69.8" font-family="Times,serif" font-size="14.00">InstrumentAngle[SampleRun]</text>
<text text-anchor="start" x="582" y="-58.2" font-family="Times,serif" font-size="11.00">via:</text>
<text text-anchor="start" x="603" y="-58.2" font-family="Times,serif" font-style="italic" font-size="11.00">load_instrument_angle</text>
</g>
<!-- InstrumentAngle[SampleRun]&#45;&gt;DataGroupedByRotation[SampleRun] -->
<g id="edge5" class="edge">
<title>InstrumentAngle[SampleRun]:e&#45;&gt;DataGroupedByRotation[SampleRun]:w</title>
<path fill="none" stroke="black" d="M772,-67.5C960.44,-67.5 1007.56,-67.5 1196,-67.5 1196,-67.5 1196,-67.5 2301.5,-67.5 2519.08,-67.5 2573.66,-64.36 2791,-74.5 2826.72,-76.17 2837.98,-80.56 2869.14,-81.37"/>
<polygon fill="black" stroke="black" points="2869.46,-84.88 2879.5,-81.5 2869.54,-77.88 2869.46,-84.88"/>
</g>
<!-- DetectorBankSizes -->
<g id="node8" class="node">
<title>DetectorBankSizes</title>
<polygon fill="none" stroke="black" points="1640,-193 1488,-193 1488,-170 1640,-170 1640,-193"/>
<text text-anchor="middle" x="1564" y="-177.8" font-family="Times,serif" font-size="14.00">DetectorBankSizes</text>
</g>
<!-- EmptyDetector[SampleRun] -->
<g id="node16" class="node">
<title>EmptyDetector[SampleRun]</title>
<polygon fill="none" stroke="black" points="2071,-179 1853,-179 1853,-146 2071,-146 2071,-179"/>
<text text-anchor="start" x="1861" y="-164.8" font-family="Times,serif" font-size="14.00">EmptyDetector[SampleRun]</text>
<text text-anchor="start" x="1885" y="-153.2" font-family="Times,serif" font-size="11.00">via:</text>
<text text-anchor="start" x="1906" y="-153.2" font-family="Times,serif" font-style="italic" font-size="11.00">get_calibrated_detector</text>
</g>
<!-- DetectorBankSizes&#45;&gt;EmptyDetector[SampleRun] -->
<g id="edge16" class="edge">
<title>DetectorBankSizes:e&#45;&gt;EmptyDetector[SampleRun]:w</title>
<path fill="none" stroke="black" d="M1641,-181.5C1731.66,-181.5 1756.06,-163.88 1841.81,-162.58"/>
<polygon fill="black" stroke="black" points="1842.03,-166.08 1852,-162.5 1841.97,-159.08 1842.03,-166.08"/>
</g>
<!-- DetectorLtotal[SampleRun]&#45;&gt;WavelengthDetector[SampleRun] -->
<g id="edge56" class="edge">
<title>DetectorLtotal[SampleRun]:e&#45;&gt;WavelengthDetector[SampleRun]:w</title>
<path fill="none" stroke="black" d="M3180.5,-118.5C3209.47,-118.5 3219.17,-118.5 3243.77,-118.5"/>
<polygon fill="black" stroke="black" points="3244,-122 3254,-118.5 3244,-115 3244,-122"/>
</g>
<!-- Position[NXsource, SampleRun] -->
<g id="node10" class="node">
<title>Position[NXsource, SampleRun]</title>
<polygon fill="none" stroke="black" points="2726,-218 2565,-218 2565,-197 2726,-197 2726,-218"/>
<text text-anchor="start" x="2573" y="-204.4" font-family="Times,serif" font-size="12.00">[NXsource, SampleRun]</text>
</g>
<!-- Position[NXsource, SampleRun]&#45;&gt;DetectorLtotal[SampleRun] -->
<g id="edge7" class="edge">
<title>Position[NXsource, SampleRun]:e&#45;&gt;DetectorLtotal[SampleRun]:w</title>
<path fill="none" stroke="black" d="M2727.5,-207.5C2756.4,-207.5 2765.72,-207.51 2791,-193.5 2828.47,-172.73 2819.75,-126.89 2854.18,-119.51"/>
<polygon fill="black" stroke="black" points="2854.89,-122.96 2864.5,-118.5 2854.21,-115.99 2854.89,-122.96"/>
</g>
<!-- ElasticCoordTransformGraph[SampleRun] -->
<g id="node14" class="node">
<title>ElasticCoordTransformGraph[SampleRun]</title>
<polygon fill="none" stroke="black" points="3182,-199 2863,-199 2863,-166 3182,-166 3182,-199"/>
<text text-anchor="start" x="2871" y="-184.8" font-family="Times,serif" font-size="14.00">ElasticCoordTransformGraph[SampleRun]</text>
<text text-anchor="start" x="2877" y="-173.2" font-family="Times,serif" font-size="11.00">via:</text>
<text text-anchor="start" x="2898" y="-173.2" font-family="Times,serif" font-style="italic" font-size="11.00">single_crystal_coordinate_transformation_graph</text>
</g>
<!-- Position[NXsource, SampleRun]&#45;&gt;ElasticCoordTransformGraph[SampleRun] -->
<g id="edge10" class="edge">
<title>Position[NXsource, SampleRun]:e&#45;&gt;ElasticCoordTransformGraph[SampleRun]:w</title>
<path fill="none" stroke="black" d="M2727.5,-207.5C2785.15,-207.5 2800.07,-185.34 2852.71,-182.75"/>
<polygon fill="black" stroke="black" points="2853.09,-186.24 2863,-182.5 2852.92,-179.24 2853.09,-186.24"/>
</g>
<!-- Position[NXsample, SampleRun] -->
<g id="node11" class="node">
<title>Position[NXsample, SampleRun]</title>
<polygon fill="none" stroke="black" points="2727.5,-193 2563.5,-193 2563.5,-172 2727.5,-172 2727.5,-193"/>
<text text-anchor="start" x="2571.5" y="-179.4" font-family="Times,serif" font-size="12.00">[NXsample, SampleRun]</text>
</g>
<!-- Position[NXsample, SampleRun]&#45;&gt;DetectorLtotal[SampleRun] -->
<g id="edge8" class="edge">
<title>Position[NXsample, SampleRun]:e&#45;&gt;DetectorLtotal[SampleRun]:w</title>
<path fill="none" stroke="black" d="M2728.5,-182.5C2758.42,-182.5 2763.86,-170.09 2791,-157.5 2821.14,-143.52 2826.6,-123.18 2854.22,-119.19"/>
<polygon fill="black" stroke="black" points="2854.76,-122.66 2864.5,-118.5 2854.29,-115.68 2854.76,-122.66"/>
</g>
<!-- Position[NXsample, SampleRun]&#45;&gt;ElasticCoordTransformGraph[SampleRun] -->
<g id="edge11" class="edge">
<title>Position[NXsample, SampleRun]:e&#45;&gt;ElasticCoordTransformGraph[SampleRun]:w</title>
<path fill="none" stroke="black" d="M2728.5,-182.5C2784.78,-182.5 2801.32,-182.5 2852.94,-182.5"/>
<polygon fill="black" stroke="black" points="2853,-186 2863,-182.5 2853,-179 2853,-186"/>
</g>
<!-- GravityVector -->
<g id="node12" class="node">
<title>GravityVector</title>
<polygon fill="none" stroke="black" points="2722.5,-155 2568.5,-155 2568.5,-122 2722.5,-122 2722.5,-155"/>
<text text-anchor="start" x="2595.5" y="-140.8" font-family="Times,serif" font-size="14.00">GravityVector</text>
<text text-anchor="start" x="2576.5" y="-129.2" font-family="Times,serif" font-size="11.00">via:</text>
<text text-anchor="start" x="2597.5" y="-129.2" font-family="Times,serif" font-style="italic" font-size="11.00">gravity_vector_neg_y</text>
</g>
<!-- GravityVector&#45;&gt;DetectorLtotal[SampleRun] -->
<g id="edge9" class="edge">
<title>GravityVector:e&#45;&gt;DetectorLtotal[SampleRun]:w</title>
<path fill="none" stroke="black" d="M2723.5,-138.5C2783.21,-138.5 2799.42,-120.7 2854.2,-118.69"/>
<polygon fill="black" stroke="black" points="2854.56,-122.18 2864.5,-118.5 2854.44,-115.18 2854.56,-122.18"/>
</g>
<!-- GravityVector&#45;&gt;ElasticCoordTransformGraph[SampleRun] -->
<g id="edge12" class="edge">
<title>GravityVector:e&#45;&gt;ElasticCoordTransformGraph[SampleRun]:w</title>
<path fill="none" stroke="black" d="M2723.5,-138.5C2784.96,-138.5 2796.79,-177.82 2852.81,-182.12"/>
<polygon fill="black" stroke="black" points="2852.88,-185.62 2863,-182.5 2853.14,-178.63 2852.88,-185.62"/>
</g>
<!-- DetectorPositionOffset[SampleRun] -->
<g id="node13" class="node">
<title>DetectorPositionOffset[SampleRun]</title>
<polygon fill="none" stroke="black" points="1699.5,-155 1428.5,-155 1428.5,-122 1699.5,-122 1699.5,-155"/>
<text text-anchor="start" x="1436.5" y="-140.8" font-family="Times,serif" font-size="14.00">DetectorPositionOffset[SampleRun]</text>
<text text-anchor="start" x="1476.5" y="-129.2" font-family="Times,serif" font-size="11.00">via:</text>
<text text-anchor="start" x="1497.5" y="-129.2" font-family="Times,serif" font-style="italic" font-size="11.00">no_detector_position_offset</text>
</g>
<!-- DetectorPositionOffset[SampleRun]&#45;&gt;EmptyDetector[SampleRun] -->
<g id="edge15" class="edge">
<title>DetectorPositionOffset[SampleRun]:e&#45;&gt;EmptyDetector[SampleRun]:w</title>
<path fill="none" stroke="black" d="M1701,-138.5C1765.37,-138.5 1782.31,-160.04 1841.68,-162.31"/>
<polygon fill="black" stroke="black" points="1841.94,-165.81 1852,-162.5 1842.07,-158.81 1841.94,-165.81"/>
</g>
<!-- ElasticCoordTransformGraph[SampleRun]&#45;&gt;QDetector[SampleRun] -->
<g id="edge50" class="edge">
<title>ElasticCoordTransformGraph[SampleRun]:e&#45;&gt;QDetector[SampleRun]:w</title>
<path fill="none" stroke="black" d="M3182,-182.5C3224.18,-182.5 3502.07,-136.22 3570.95,-130.98"/>
<polygon fill="black" stroke="black" points="3571.18,-134.47 3581,-130.5 3570.84,-127.48 3571.18,-134.47"/>
</g>
<!-- NeXusComponent[NXdetector, SampleRun] -->
<g id="node15" class="node">
<title>NeXusComponent[NXdetector, SampleRun]</title>
<polygon fill="none" stroke="black" points="1018,-226 848,-226 848,-195 1018,-195 1018,-226"/>
<text text-anchor="start" x="856" y="-213.4" font-family="Times,serif" font-size="12.00">[NXdetector, SampleRun]</text>
<text text-anchor="start" x="858" y="-202.2" font-family="Times,serif" font-size="11.00">via:</text>
<text text-anchor="start" x="879" y="-202.2" font-family="Times,serif" font-style="italic" font-size="11.00">load_nexus_component</text>
</g>
<!-- NeXusComponent[NXdetector, SampleRun]&#45;&gt;EmptyDetector[SampleRun] -->
<g id="edge13" class="edge">
<title>NeXusComponent[NXdetector, SampleRun]:e&#45;&gt;EmptyDetector[SampleRun]:w</title>
<path fill="none" stroke="black" d="M1019,-210.5C1055.44,-210.5 1054.85,-179.09 1090,-169.5 1168.97,-147.95 1728.34,-161.53 1841.91,-162.45"/>
<polygon fill="black" stroke="black" points="1841.98,-165.95 1852,-162.5 1842.02,-158.95 1841.98,-165.95"/>
</g>
<!-- NeXusTransformationChain[NXdetector, SampleRun] -->
<g id="node37" class="node">
<title>NeXusTransformationChain[NXdetector, SampleRun]</title>
<polygon fill="none" stroke="black" points="1282,-241 1112,-241 1112,-220 1282,-220 1282,-241"/>
<text text-anchor="start" x="1120" y="-227.4" font-family="Times,serif" font-size="12.00">[NXdetector, SampleRun]</text>
</g>
<!-- NeXusComponent[NXdetector, SampleRun]&#45;&gt;NeXusTransformationChain[NXdetector, SampleRun] -->
<g id="edge38" class="edge">
<title>NeXusComponent[NXdetector, SampleRun]:e&#45;&gt;NeXusTransformationChain[NXdetector, SampleRun]:w</title>
<path fill="none" stroke="black" d="M1019,-210.5C1057.25,-210.5 1067.48,-227.21 1100.91,-230.08"/>
<polygon fill="black" stroke="black" points="1100.86,-233.58 1111,-230.5 1101.15,-226.59 1100.86,-233.58"/>
</g>
<!-- McStasRawDetector[SampleRun] -->
<g id="node24" class="node">
<title>McStasRawDetector[SampleRun]</title>
<polygon fill="none" stroke="black" points="2428,-148 2173,-148 2173,-115 2428,-115 2428,-148"/>
<text text-anchor="start" x="2181" y="-133.8" font-family="Times,serif" font-size="14.00">McStasRawDetector[SampleRun]</text>
<text text-anchor="start" x="2201" y="-122.2" font-family="Times,serif" font-size="11.00">via:</text>
<text text-anchor="start" x="2222" y="-122.2" font-family="Times,serif" font-style="italic" font-size="11.00">assemble_detector_data_flatten</text>
</g>
<!-- EmptyDetector[SampleRun]&#45;&gt;McStasRawDetector[SampleRun] -->
<g id="edge21" class="edge">
<title>EmptyDetector[SampleRun]:e&#45;&gt;McStasRawDetector[SampleRun]:w</title>
<path fill="none" stroke="black" d="M2072,-162.5C2115.29,-162.5 2124.69,-136.15 2162.69,-132.04"/>
<polygon fill="black" stroke="black" points="2163.2,-135.52 2173,-131.5 2162.83,-128.53 2163.2,-135.52"/>
</g>
<!-- NeXusTransformation[NXdetector, SampleRun] -->
<g id="node17" class="node">
<title>NeXusTransformation[NXdetector, SampleRun]</title>
<polygon fill="none" stroke="black" points="1649,-231 1479,-231 1479,-210 1649,-210 1649,-231"/>
<text text-anchor="start" x="1487" y="-217.4" font-family="Times,serif" font-size="12.00">[NXdetector, SampleRun]</text>
</g>
<!-- NeXusTransformation[NXdetector, SampleRun]&#45;&gt;EmptyDetector[SampleRun] -->
<g id="edge14" class="edge">
<title>NeXusTransformation[NXdetector, SampleRun]:e&#45;&gt;EmptyDetector[SampleRun]:w</title>
<path fill="none" stroke="black" d="M1650,-220.5C1696.24,-220.5 1706.55,-208.25 1751,-195.5 1792.85,-183.5 1803.24,-165.58 1841.61,-162.85"/>
<polygon fill="black" stroke="black" points="1842.12,-166.34 1852,-162.5 1841.89,-159.34 1842.12,-166.34"/>
</g>
<!-- LookupTable -->
<g id="node18" class="node">
<title>LookupTable</title>
<polygon fill="none" stroke="black" points="2714.5,-60 2576.5,-60 2576.5,-27 2714.5,-27 2714.5,-60"/>
<text text-anchor="start" x="2600" y="-45.8" font-family="Times,serif" font-size="14.00">LookupTable</text>
<text text-anchor="start" x="2584.5" y="-34.2" font-family="Times,serif" font-size="11.00">via:</text>
<text text-anchor="start" x="2605.5" y="-34.2" font-family="Times,serif" font-style="italic" font-size="11.00">load_lookup_table</text>
</g>
<!-- ErrorLimitedLookupTable[NXdetector] -->
<g id="node19" class="node">
<title>ErrorLimitedLookupTable[NXdetector]</title>
<polygon fill="none" stroke="black" points="3169,-60 2876,-60 2876,-27 3169,-27 3169,-60"/>
<text text-anchor="start" x="2884" y="-45.8" font-family="Times,serif" font-size="14.00">ErrorLimitedLookupTable[NXdetector]</text>
<text text-anchor="start" x="2900.5" y="-34.2" font-family="Times,serif" font-size="11.00">via:</text>
<text text-anchor="start" x="2921.5" y="-34.2" font-family="Times,serif" font-style="italic" font-size="11.00">mask_large_uncertainty_in_lut_detector</text>
</g>
<!-- LookupTable&#45;&gt;ErrorLimitedLookupTable[NXdetector] -->
<g id="edge17" class="edge">
<title>LookupTable:e&#45;&gt;ErrorLimitedLookupTable[NXdetector]:w</title>
<path fill="none" stroke="black" d="M2715.5,-43.5C2782.58,-43.5 2801.9,-43.5 2864.13,-43.5"/>
<polygon fill="black" stroke="black" points="2864.5,-47 2874.5,-43.5 2864.5,-40 2864.5,-47"/>
</g>
<!-- ErrorLimitedLookupTable[NXdetector]&#45;&gt;WavelengthDetector[SampleRun] -->
<g id="edge55" class="edge">
<title>ErrorLimitedLookupTable[NXdetector]:e&#45;&gt;WavelengthDetector[SampleRun]:w</title>
<path fill="none" stroke="black" d="M3170.5,-43.5C3216.68,-43.5 3206.17,-107.78 3243.93,-117.32"/>
<polygon fill="black" stroke="black" points="3243.66,-120.81 3254,-118.5 3244.47,-113.86 3243.66,-120.81"/>
</g>
<!-- LookupTableRelativeErrorThreshold -->
<g id="node20" class="node">
<title>LookupTableRelativeErrorThreshold</title>
<polygon fill="none" stroke="black" points="2783,-23 2508,-23 2508,0 2783,0 2783,-23"/>
<text text-anchor="middle" x="2645.5" y="-7.8" font-family="Times,serif" font-size="14.00">LookupTableRelativeErrorThreshold</text>
</g>
<!-- LookupTableRelativeErrorThreshold&#45;&gt;ErrorLimitedLookupTable[NXdetector] -->
<g id="edge18" class="edge">
<title>LookupTableRelativeErrorThreshold:e&#45;&gt;ErrorLimitedLookupTable[NXdetector]:w</title>
<path fill="none" stroke="black" d="M2784.5,-11.5C2823.3,-11.5 2830.9,-38.24 2864.34,-42.83"/>
<polygon fill="black" stroke="black" points="2864.29,-46.34 2874.5,-43.5 2864.75,-39.35 2864.29,-46.34"/>
</g>
<!-- Filename[SampleRun] -->
<g id="node21" class="node">
<title>Filename[SampleRun]</title>
<polygon fill="none" stroke="black" points="175,-170 0,-170 0,-147 175,-147 175,-170"/>
<text text-anchor="middle" x="87.5" y="-154.8" font-family="Times,serif" font-size="14.00">Filename[SampleRun]</text>
</g>
<!-- NeXusFileSpec[SampleRun] -->
<g id="node22" class="node">
<title>NeXusFileSpec[SampleRun]</title>
<polygon fill="none" stroke="black" points="464,-162 247,-162 247,-129 464,-129 464,-162"/>
<text text-anchor="start" x="255" y="-147.8" font-family="Times,serif" font-size="14.00">NeXusFileSpec[SampleRun]</text>
<text text-anchor="start" x="285.5" y="-136.2" font-family="Times,serif" font-size="11.00">via:</text>
<text text-anchor="start" x="306.5" y="-136.2" font-family="Times,serif" font-style="italic" font-size="11.00">file_path_to_file_spec</text>
</g>
<!-- Filename[SampleRun]&#45;&gt;NeXusFileSpec[SampleRun] -->
<g id="edge36" class="edge">
<title>Filename[SampleRun]:e&#45;&gt;NeXusFileSpec[SampleRun]:w</title>
<path fill="none" stroke="black" d="M175,-158.5C203.83,-158.5 212.58,-148.28 236.86,-145.96"/>
<polygon fill="black" stroke="black" points="237.17,-149.45 247,-145.5 236.85,-142.46 237.17,-149.45"/>
</g>
<!-- NeXusFileSpec[SampleRun]&#45;&gt;SampleAngle[SampleRun] -->
<g id="edge53" class="edge">
<title>NeXusFileSpec[SampleRun]:e&#45;&gt;SampleAngle[SampleRun]:w</title>
<path fill="none" stroke="black" d="M464,-145.5C504.35,-145.5 509.42,-110.95 543.98,-105.28"/>
<polygon fill="black" stroke="black" points="544.3,-108.77 554,-104.5 543.76,-101.79 544.3,-108.77"/>
</g>
<!-- NeXusFileSpec[SampleRun]&#45;&gt;InstrumentAngle[SampleRun] -->
<g id="edge19" class="edge">
<title>NeXusFileSpec[SampleRun]:e&#45;&gt;InstrumentAngle[SampleRun]:w</title>
<path fill="none" stroke="black" d="M464,-145.5C508.62,-145.5 494.43,-79.21 529.86,-68.85"/>
<polygon fill="black" stroke="black" points="530.55,-72.29 540,-67.5 529.62,-65.35 530.55,-72.29"/>
</g>
<!-- NeXusComponentLocationSpec[NXdetector, SampleRun] -->
<g id="node28" class="node">
<title>NeXusComponentLocationSpec[NXdetector, SampleRun]</title>
<polygon fill="none" stroke="black" points="748,-179 564,-179 564,-148 748,-148 748,-179"/>
<text text-anchor="start" x="579" y="-166.4" font-family="Times,serif" font-size="12.00">[NXdetector, SampleRun]</text>
<text text-anchor="start" x="572" y="-155.2" font-family="Times,serif" font-size="11.00">via:</text>
<text text-anchor="start" x="593" y="-155.2" font-family="Times,serif" font-style="italic" font-size="11.00">component_spec_by_name</text>
</g>
<!-- NeXusFileSpec[SampleRun]&#45;&gt;NeXusComponentLocationSpec[NXdetector, SampleRun] -->
<g id="edge23" class="edge">
<title>NeXusFileSpec[SampleRun]:e&#45;&gt;NeXusComponentLocationSpec[NXdetector, SampleRun]:w</title>
<path fill="none" stroke="black" d="M464,-145.5C505.05,-145.5 516.47,-160.67 552.67,-163.16"/>
<polygon fill="black" stroke="black" points="552.89,-166.67 563,-163.5 553.12,-159.67 552.89,-166.67"/>
</g>
<!-- NeXusComponentLocationSpec[NXsample, SampleRun] -->
<g id="node30" class="node">
<title>NeXusComponentLocationSpec[NXsample, SampleRun]</title>
<polygon fill="none" stroke="black" points="742.5,-214 569.5,-214 569.5,-183 742.5,-183 742.5,-214"/>
<text text-anchor="start" x="582" y="-201.4" font-family="Times,serif" font-size="12.00">[NXsample, SampleRun]</text>
<text text-anchor="start" x="577.5" y="-190.2" font-family="Times,serif" font-size="11.00">via:</text>
<text text-anchor="start" x="598.5" y="-190.2" font-family="Times,serif" font-style="italic" font-size="11.00">unique_component_spec</text>
</g>
<!-- NeXusFileSpec[SampleRun]&#45;&gt;NeXusComponentLocationSpec[NXsample, SampleRun] -->
<g id="edge25" class="edge">
<title>NeXusFileSpec[SampleRun]:e&#45;&gt;NeXusComponentLocationSpec[NXsample, SampleRun]:w</title>
<path fill="none" stroke="black" d="M464,-145.5C512.23,-145.5 515.83,-191.31 557.79,-197.75"/>
<polygon fill="black" stroke="black" points="557.77,-201.26 568,-198.5 558.28,-194.28 557.77,-201.26"/>
</g>
<!-- NeXusComponentLocationSpec[NXsource, SampleRun] -->
<g id="node31" class="node">
<title>NeXusComponentLocationSpec[NXsource, SampleRun]</title>
<polygon fill="none" stroke="black" points="742.5,-249 569.5,-249 569.5,-218 742.5,-218 742.5,-249"/>
<text text-anchor="start" x="583.5" y="-236.4" font-family="Times,serif" font-size="12.00">[NXsource, SampleRun]</text>
<text text-anchor="start" x="577.5" y="-225.2" font-family="Times,serif" font-size="11.00">via:</text>
<text text-anchor="start" x="598.5" y="-225.2" font-family="Times,serif" font-style="italic" font-size="11.00">unique_component_spec</text>
</g>
<!-- NeXusFileSpec[SampleRun]&#45;&gt;NeXusComponentLocationSpec[NXsource, SampleRun] -->
<g id="edge26" class="edge">
<title>NeXusFileSpec[SampleRun]:e&#45;&gt;NeXusComponentLocationSpec[NXsource, SampleRun]:w</title>
<path fill="none" stroke="black" d="M464,-145.5C520.88,-145.5 509.24,-223.17 557.82,-232.57"/>
<polygon fill="black" stroke="black" points="557.72,-236.08 568,-233.5 558.36,-229.11 557.72,-236.08"/>
</g>
<!-- NeXusDataLocationSpec[NXdetector, SampleRun] -->
<g id="node34" class="node">
<title>NeXusDataLocationSpec[NXdetector, SampleRun]</title>
<polygon fill="none" stroke="black" points="1751,-118 1377,-118 1377,-85 1751,-85 1751,-118"/>
<text text-anchor="start" x="1385" y="-103.8" font-family="Times,serif" font-size="14.00">NeXusDataLocationSpec[NXdetector, SampleRun]</text>
<text text-anchor="start" x="1514" y="-92.2" font-family="Times,serif" font-size="11.00">via:</text>
<text text-anchor="start" x="1535" y="-92.2" font-family="Times,serif" font-style="italic" font-size="11.00">data_by_name</text>
</g>
<!-- NeXusFileSpec[SampleRun]&#45;&gt;NeXusDataLocationSpec[NXdetector, SampleRun] -->
<g id="edge32" class="edge">
<title>NeXusFileSpec[SampleRun]:e&#45;&gt;NeXusDataLocationSpec[NXdetector, SampleRun]:w</title>
<path fill="none" stroke="black" d="M464,-145.5C496.15,-145.5 503.93,-140.76 536,-138.5 719.33,-125.56 1173.59,-102.33 1366.88,-101.52"/>
<polygon fill="black" stroke="black" points="1367.01,-105.02 1377,-101.5 1366.99,-98.02 1367.01,-105.02"/>
</g>
<!-- LookupTableFilename -->
<g id="node23" class="node">
<title>LookupTableFilename</title>
<polygon fill="none" stroke="black" points="2387,-55 2214,-55 2214,-32 2387,-32 2387,-55"/>
<text text-anchor="middle" x="2300.5" y="-39.8" font-family="Times,serif" font-size="14.00">LookupTableFilename</text>
</g>
<!-- LookupTableFilename&#45;&gt;LookupTable -->
<g id="edge20" class="edge">
<title>LookupTableFilename:e&#45;&gt;LookupTable:w</title>
<path fill="none" stroke="black" d="M2388.5,-43.5C2468.04,-43.5 2490.49,-43.5 2565.12,-43.5"/>
<polygon fill="black" stroke="black" points="2565.5,-47 2575.5,-43.5 2565.5,-40 2565.5,-47"/>
</g>
<!-- McStasRawDetector[SampleRun]&#45;&gt;RawDetector[SampleRun] -->
<g id="edge51" class="edge">
<title>McStasRawDetector[SampleRun]:e&#45;&gt;RawDetector[SampleRun]:w</title>
<path fill="none" stroke="black" d="M2428,-131.5C2459.01,-131.5 2464.41,-107.49 2490.02,-102.43"/>
<polygon fill="black" stroke="black" points="2490.37,-105.91 2500,-101.5 2489.72,-98.94 2490.37,-105.91"/>
</g>
<!-- NeXusData[NXdetector, SampleRun] -->
<g id="node25" class="node">
<title>NeXusData[NXdetector, SampleRun]</title>
<polygon fill="none" stroke="black" points="2101,-130 1823,-130 1823,-97 2101,-97 2101,-130"/>
<text text-anchor="start" x="1831" y="-115.8" font-family="Times,serif" font-size="14.00">NeXusData[NXdetector, SampleRun]</text>
<text text-anchor="start" x="1905.5" y="-104.2" font-family="Times,serif" font-size="11.00">via:</text>
<text text-anchor="start" x="1926.5" y="-104.2" font-family="Times,serif" font-style="italic" font-size="11.00">load_nexus_data</text>
</g>
<!-- NeXusData[NXdetector, SampleRun]&#45;&gt;McStasRawDetector[SampleRun] -->
<g id="edge22" class="edge">
<title>NeXusData[NXdetector, SampleRun]:e&#45;&gt;McStasRawDetector[SampleRun]:w</title>
<path fill="none" stroke="black" d="M2101,-113.5C2130.25,-113.5 2138.3,-127.65 2162.75,-130.86"/>
<polygon fill="black" stroke="black" points="2162.8,-134.37 2173,-131.5 2163.24,-127.38 2162.8,-134.37"/>
</g>
<!-- NeXusClass[NXdetector] -->
<g id="node26" class="node">
<title>NeXusClass[NXdetector]</title>
<polygon fill="none" stroke="black" points="735,-328 577,-328 577,-297 735,-297 735,-328"/>
<text text-anchor="start" x="616.5" y="-315.4" font-family="Times,serif" font-size="12.00">[NXdetector]</text>
<text text-anchor="start" x="585" y="-304.2" font-family="Times,serif" font-size="11.00">via:</text>
<text text-anchor="start" x="606" y="-304.2" font-family="Times,serif" font-style="italic" font-size="11.00">nx_class_for_detector</text>
</g>
<!-- NeXusClass[NXdetector]&#45;&gt;NeXusComponent[NXdetector, SampleRun] -->
<g id="edge28" class="edge">
<title>NeXusClass[NXdetector]:e&#45;&gt;NeXusComponent[NXdetector, SampleRun]:w</title>
<path fill="none" stroke="black" d="M736,-312.5C799.34,-312.5 782.25,-221.35 836.79,-211.38"/>
<polygon fill="black" stroke="black" points="837.34,-214.85 847,-210.5 836.74,-207.87 837.34,-214.85"/>
</g>
<!-- NeXusClass[NXsource] -->
<g id="node27" class="node">
<title>NeXusClass[NXsource]</title>
<polygon fill="none" stroke="black" points="753,-363 559,-363 559,-332 753,-332 753,-363"/>
<text text-anchor="start" x="621.5" y="-350.4" font-family="Times,serif" font-size="12.00">[NXsource]</text>
<text text-anchor="start" x="567" y="-339.2" font-family="Times,serif" font-size="11.00">via:</text>
<text text-anchor="start" x="588" y="-339.2" font-family="Times,serif" font-style="italic" font-size="11.00">moderator_class_for_source</text>
</g>
<!-- NeXusComponent[NXsource, SampleRun] -->
<g id="node33" class="node">
<title>NeXusComponent[NXsource, SampleRun]</title>
<polygon fill="none" stroke="black" points="1016,-296 850,-296 850,-265 1016,-265 1016,-296"/>
<text text-anchor="start" x="860.5" y="-283.4" font-family="Times,serif" font-size="12.00">[NXsource, SampleRun]</text>
<text text-anchor="start" x="858" y="-272.2" font-family="Times,serif" font-size="11.00">via:</text>
<text text-anchor="start" x="879" y="-272.2" font-family="Times,serif" font-style="italic" font-size="11.00">load_nexus_component</text>
</g>
<!-- NeXusClass[NXsource]&#45;&gt;NeXusComponent[NXsource, SampleRun] -->
<g id="edge31" class="edge">
<title>NeXusClass[NXsource]:e&#45;&gt;NeXusComponent[NXsource, SampleRun]:w</title>
<path fill="none" stroke="black" d="M754,-347.5C802.03,-347.5 798.21,-289.59 838.95,-281.45"/>
<polygon fill="black" stroke="black" points="839.37,-284.92 849,-280.5 838.72,-277.95 839.37,-284.92"/>
</g>
<!-- NeXusComponentLocationSpec[NXdetector, SampleRun]&#45;&gt;NeXusComponent[NXdetector, SampleRun] -->
<g id="edge27" class="edge">
<title>NeXusComponentLocationSpec[NXdetector, SampleRun]:e&#45;&gt;NeXusComponent[NXdetector, SampleRun]:w</title>
<path fill="none" stroke="black" d="M749,-163.5C793.72,-163.5 798.23,-203.78 836.98,-209.76"/>
<polygon fill="black" stroke="black" points="836.77,-213.26 847,-210.5 837.28,-206.27 836.77,-213.26"/>
</g>
<!-- NeXusName[NXdetector] -->
<g id="node29" class="node">
<title>NeXusName[NXdetector]</title>
<polygon fill="none" stroke="black" points="454,-99 257,-99 257,-76 454,-76 454,-99"/>
<text text-anchor="middle" x="355.5" y="-83.8" font-family="Times,serif" font-size="14.00">NeXusName[NXdetector]</text>
</g>
<!-- NeXusName[NXdetector]&#45;&gt;NeXusComponentLocationSpec[NXdetector, SampleRun] -->
<g id="edge24" class="edge">
<title>NeXusName[NXdetector]:e&#45;&gt;NeXusComponentLocationSpec[NXdetector, SampleRun]:w</title>
<path fill="none" stroke="black" d="M455.5,-87.5C510.36,-87.5 505.41,-154.3 552.79,-162.65"/>
<polygon fill="black" stroke="black" points="552.74,-166.15 563,-163.5 553.33,-159.18 552.74,-166.15"/>
</g>
<!-- NeXusName[NXdetector]&#45;&gt;NeXusDataLocationSpec[NXdetector, SampleRun] -->
<g id="edge33" class="edge">
<title>NeXusName[NXdetector]:e&#45;&gt;NeXusDataLocationSpec[NXdetector, SampleRun]:w</title>
<path fill="none" stroke="black" d="M455.5,-87.5C494.88,-87.5 497.53,-58.92 536,-50.5 640.2,-27.7 669.43,-45.99 776,-50.5 1040.43,-61.7 1107.24,-100.5 1366.89,-101.48"/>
<polygon fill="black" stroke="black" points="1366.99,-104.98 1377,-101.5 1367.01,-97.98 1366.99,-104.98"/>
</g>
<!-- NeXusComponent[NXsample, SampleRun] -->
<g id="node32" class="node">
<title>NeXusComponent[NXsample, SampleRun]</title>
<polygon fill="none" stroke="black" points="1015,-261 851,-261 851,-230 1015,-230 1015,-261"/>
<text text-anchor="start" x="859" y="-248.4" font-family="Times,serif" font-size="12.00">[NXsample, SampleRun]</text>
<text text-anchor="start" x="868.5" y="-237.2" font-family="Times,serif" font-size="11.00">via:</text>
<text text-anchor="start" x="889.5" y="-237.2" font-family="Times,serif" font-style="italic" font-size="11.00">load_nexus_sample</text>
</g>
<!-- NeXusComponentLocationSpec[NXsample, SampleRun]&#45;&gt;NeXusComponent[NXsample, SampleRun] -->
<g id="edge29" class="edge">
<title>NeXusComponentLocationSpec[NXsample, SampleRun]:e&#45;&gt;NeXusComponent[NXsample, SampleRun]:w</title>
<path fill="none" stroke="black" d="M744,-198.5C791.91,-198.5 797.81,-239.12 839.82,-244.84"/>
<polygon fill="black" stroke="black" points="839.79,-248.34 850,-245.5 840.25,-241.36 839.79,-248.34"/>
</g>
<!-- NeXusComponentLocationSpec[NXsource, SampleRun]&#45;&gt;NeXusComponent[NXsource, SampleRun] -->
<g id="edge30" class="edge">
<title>NeXusComponentLocationSpec[NXsource, SampleRun]:e&#45;&gt;NeXusComponent[NXsource, SampleRun]:w</title>
<path fill="none" stroke="black" d="M744,-233.5C791.53,-233.5 797.25,-274.12 838.9,-279.84"/>
<polygon fill="black" stroke="black" points="838.79,-283.34 849,-280.5 839.25,-276.35 838.79,-283.34"/>
</g>
<!-- NeXusTransformationChain[NXsample, SampleRun] -->
<g id="node38" class="node">
<title>NeXusTransformationChain[NXsample, SampleRun]</title>
<polygon fill="none" stroke="black" points="1279,-266 1115,-266 1115,-245 1279,-245 1279,-266"/>
<text text-anchor="start" x="1123" y="-252.4" font-family="Times,serif" font-size="12.00">[NXsample, SampleRun]</text>
</g>
<!-- NeXusComponent[NXsample, SampleRun]&#45;&gt;NeXusTransformationChain[NXsample, SampleRun] -->
<g id="edge39" class="edge">
<title>NeXusComponent[NXsample, SampleRun]:e&#45;&gt;NeXusTransformationChain[NXsample, SampleRun]:w</title>
<path fill="none" stroke="black" d="M1016,-245.5C1056.19,-245.5 1068.28,-253.93 1103.86,-255.31"/>
<polygon fill="black" stroke="black" points="1103.94,-258.81 1114,-255.5 1104.07,-251.81 1103.94,-258.81"/>
</g>
<!-- NeXusTransformationChain[NXsource, SampleRun] -->
<g id="node39" class="node">
<title>NeXusTransformationChain[NXsource, SampleRun]</title>
<polygon fill="none" stroke="black" points="1277.5,-291 1116.5,-291 1116.5,-270 1277.5,-270 1277.5,-291"/>
<text text-anchor="start" x="1124.5" y="-277.4" font-family="Times,serif" font-size="12.00">[NXsource, SampleRun]</text>
</g>
<!-- NeXusComponent[NXsource, SampleRun]&#45;&gt;NeXusTransformationChain[NXsource, SampleRun] -->
<g id="edge40" class="edge">
<title>NeXusComponent[NXsource, SampleRun]:e&#45;&gt;NeXusTransformationChain[NXsource, SampleRun]:w</title>
<path fill="none" stroke="black" d="M1017,-280.5C1056.98,-280.5 1069.44,-280.5 1104.9,-280.5"/>
<polygon fill="black" stroke="black" points="1105,-284 1115,-280.5 1105,-277 1105,-284"/>
</g>
<!-- NeXusDataLocationSpec[NXdetector, SampleRun]&#45;&gt;NeXusData[NXdetector, SampleRun] -->
<g id="edge35" class="edge">
<title>NeXusDataLocationSpec[NXdetector, SampleRun]:e&#45;&gt;NeXusData[NXdetector, SampleRun]:w</title>
<path fill="none" stroke="black" d="M1751,-101.5C1779.77,-101.5 1788.62,-110.94 1812.88,-113.07"/>
<polygon fill="black" stroke="black" points="1812.86,-116.58 1823,-113.5 1813.16,-109.58 1812.86,-116.58"/>
</g>
<!-- TimeInterval[SampleRun] -->
<g id="node35" class="node">
<title>TimeInterval[SampleRun]</title>
<polygon fill="none" stroke="black" points="1297,-203 1097,-203 1097,-170 1297,-170 1297,-203"/>
<text text-anchor="start" x="1105" y="-188.8" font-family="Times,serif" font-size="14.00">TimeInterval[SampleRun]</text>
<text text-anchor="start" x="1137.5" y="-177.2" font-family="Times,serif" font-size="11.00">via:</text>
<text text-anchor="start" x="1158.5" y="-177.2" font-family="Times,serif" font-style="italic" font-size="11.00">full_time_interval</text>
</g>
<!-- TimeInterval[SampleRun]&#45;&gt;NeXusTransformation[NXdetector, SampleRun] -->
<g id="edge42" class="edge">
<title>TimeInterval[SampleRun]:e&#45;&gt;NeXusTransformation[NXdetector, SampleRun]:w</title>
<path fill="none" stroke="black" d="M1298,-186.5C1375.92,-186.5 1394.99,-217.64 1467.85,-220.32"/>
<polygon fill="black" stroke="black" points="1467.94,-223.82 1478,-220.5 1468.06,-216.82 1467.94,-223.82"/>
</g>
<!-- TimeInterval[SampleRun]&#45;&gt;NeXusDataLocationSpec[NXdetector, SampleRun] -->
<g id="edge34" class="edge">
<title>TimeInterval[SampleRun]:e&#45;&gt;NeXusDataLocationSpec[NXdetector, SampleRun]:w</title>
<path fill="none" stroke="black" d="M1298,-186.5C1345.75,-186.5 1328.59,-113.65 1366.71,-102.84"/>
<polygon fill="black" stroke="black" points="1367.53,-106.26 1377,-101.5 1366.63,-99.32 1367.53,-106.26"/>
</g>
<!-- NeXusTransformation[NXsample, SampleRun] -->
<g id="node40" class="node">
<title>NeXusTransformation[NXsample, SampleRun]</title>
<polygon fill="none" stroke="black" points="1646,-256 1482,-256 1482,-235 1646,-235 1646,-256"/>
<text text-anchor="start" x="1490" y="-242.4" font-family="Times,serif" font-size="12.00">[NXsample, SampleRun]</text>
</g>
<!-- TimeInterval[SampleRun]&#45;&gt;NeXusTransformation[NXsample, SampleRun] -->
<g id="edge44" class="edge">
<title>TimeInterval[SampleRun]:e&#45;&gt;NeXusTransformation[NXsample, SampleRun]:w</title>
<path fill="none" stroke="black" d="M1298,-186.5C1338.41,-186.5 1338.72,-218.57 1377,-231.5 1417.73,-245.26 1432.11,-245.55 1470.65,-245.51"/>
<polygon fill="black" stroke="black" points="1471,-249.01 1481,-245.5 1471,-242.01 1471,-249.01"/>
</g>
<!-- NeXusTransformation[NXsource, SampleRun] -->
<g id="node41" class="node">
<title>NeXusTransformation[NXsource, SampleRun]</title>
<polygon fill="none" stroke="black" points="1644.5,-281 1483.5,-281 1483.5,-260 1644.5,-260 1644.5,-281"/>
<text text-anchor="start" x="1491.5" y="-267.4" font-family="Times,serif" font-size="12.00">[NXsource, SampleRun]</text>
</g>
<!-- TimeInterval[SampleRun]&#45;&gt;NeXusTransformation[NXsource, SampleRun] -->
<g id="edge46" class="edge">
<title>TimeInterval[SampleRun]:e&#45;&gt;NeXusTransformation[NXsource, SampleRun]:w</title>
<path fill="none" stroke="black" d="M1298,-186.5C1344.91,-186.5 1334.34,-236.99 1377,-256.5 1416.56,-274.58 1432.46,-271.2 1471.77,-270.58"/>
<polygon fill="black" stroke="black" points="1472.03,-274.08 1482,-270.5 1471.97,-267.08 1472.03,-274.08"/>
</g>
<!-- PreopenNeXusFile -->
<g id="node36" class="node">
<title>PreopenNeXusFile</title>
<polygon fill="none" stroke="black" points="162,-143 13,-143 13,-120 162,-120 162,-143"/>
<text text-anchor="middle" x="87.5" y="-127.8" font-family="Times,serif" font-size="14.00">PreopenNeXusFile</text>
</g>
<!-- PreopenNeXusFile&#45;&gt;NeXusFileSpec[SampleRun] -->
<g id="edge37" class="edge">
<title>PreopenNeXusFile:e&#45;&gt;NeXusFileSpec[SampleRun]:w</title>
<path fill="none" stroke="black" d="M162.5,-131.5C196.85,-131.5 207.02,-142.9 236.64,-145.13"/>
<polygon fill="black" stroke="black" points="236.88,-148.64 247,-145.5 237.13,-141.64 236.88,-148.64"/>
</g>
<!-- NeXusTransformationChain[NXdetector, SampleRun]&#45;&gt;NeXusTransformation[NXdetector, SampleRun] -->
<g id="edge41" class="edge">
<title>NeXusTransformationChain[NXdetector, SampleRun]:e&#45;&gt;NeXusTransformation[NXdetector, SampleRun]:w</title>
<path fill="none" stroke="black" d="M1283,-230.5C1366.22,-230.5 1389.35,-221.3 1467.64,-220.55"/>
<polygon fill="black" stroke="black" points="1468.02,-224.05 1478,-220.5 1467.98,-217.05 1468.02,-224.05"/>
</g>
<!-- NeXusTransformationChain[NXsample, SampleRun]&#45;&gt;NeXusTransformation[NXsample, SampleRun] -->
<g id="edge43" class="edge">
<title>NeXusTransformationChain[NXsample, SampleRun]:e&#45;&gt;NeXusTransformation[NXsample, SampleRun]:w</title>
<path fill="none" stroke="black" d="M1280,-255.5C1365.95,-255.5 1389.73,-246.27 1470.82,-245.54"/>
<polygon fill="black" stroke="black" points="1471.02,-249.04 1481,-245.5 1470.98,-242.04 1471.02,-249.04"/>
</g>
<!-- NeXusTransformationChain[NXsource, SampleRun]&#45;&gt;NeXusTransformation[NXsource, SampleRun] -->
<g id="edge45" class="edge">
<title>NeXusTransformationChain[NXsource, SampleRun]:e&#45;&gt;NeXusTransformation[NXsource, SampleRun]:w</title>
<path fill="none" stroke="black" d="M1279,-280.5C1365.89,-280.5 1389.87,-271.25 1471.97,-270.54"/>
<polygon fill="black" stroke="black" points="1472.01,-274.04 1482,-270.5 1471.99,-267.04 1472.01,-274.04"/>
</g>
<!-- NeXusTransformation[NXsample, SampleRun]&#45;&gt;Position[NXsample, SampleRun] -->
<g id="edge47" class="edge">
<title>NeXusTransformation[NXsample, SampleRun]:e&#45;&gt;Position[NXsample, SampleRun]:w</title>
<path fill="none" stroke="black" d="M1647,-245.5C1725.54,-245.5 1744.69,-235.55 1823,-229.5 2147.99,-204.41 2231.47,-182.94 2552.45,-182.51"/>
<polygon fill="black" stroke="black" points="2552.5,-186.01 2562.5,-182.5 2552.5,-179.01 2552.5,-186.01"/>
</g>
<!-- NeXusTransformation[NXsource, SampleRun]&#45;&gt;Position[NXsource, SampleRun] -->
<g id="edge48" class="edge">
<title>NeXusTransformation[NXsource, SampleRun]:e&#45;&gt;Position[NXsource, SampleRun]:w</title>
<path fill="none" stroke="black" d="M1646,-270.5C2051.35,-270.5 2153.08,-208.54 2553.38,-207.51"/>
<polygon fill="black" stroke="black" points="2553.5,-211.01 2563.5,-207.5 2553.5,-204.01 2553.5,-211.01"/>
</g>
<!-- PulsePeriod -->
<g id="node42" class="node">
<title>PulsePeriod</title>
<polygon fill="none" stroke="black" points="2351,-111 2250,-111 2250,-88 2351,-88 2351,-111"/>
<text text-anchor="middle" x="2300.5" y="-95.8" font-family="Times,serif" font-size="14.00">PulsePeriod</text>
</g>
<!-- PulsePeriod&#45;&gt;RawDetector[SampleRun] -->
<g id="edge52" class="edge">
<title>PulsePeriod:e&#45;&gt;RawDetector[SampleRun]:w</title>
<path fill="none" stroke="black" d="M2352.5,-99.5C2414.48,-99.5 2432.5,-101.29 2489.67,-101.48"/>
<polygon fill="black" stroke="black" points="2489.99,-104.98 2500,-101.5 2490.01,-97.98 2489.99,-104.98"/>
</g>
<!-- PulseStrideOffset -->
<g id="node43" class="node">
<title>PulseStrideOffset</title>
<polygon fill="none" stroke="black" points="3094,-162 2951,-162 2951,-139 3094,-139 3094,-162"/>
<text text-anchor="middle" x="3022.5" y="-146.8" font-family="Times,serif" font-size="14.00">PulseStrideOffset</text>
</g>
<!-- PulseStrideOffset&#45;&gt;WavelengthDetector[SampleRun] -->
<g id="edge57" class="edge">
<title>PulseStrideOffset:e&#45;&gt;WavelengthDetector[SampleRun]:w</title>
<path fill="none" stroke="black" d="M3095.5,-150.5C3134.52,-150.5 3143.77,-143.32 3182,-135.5 3210.56,-129.66 3219.23,-120.81 3243.75,-118.88"/>
<polygon fill="black" stroke="black" points="3244.14,-122.37 3254,-118.5 3243.88,-115.37 3244.14,-122.37"/>
</g>
<!-- WavelengthDetector[SampleRun]&#45;&gt;QDetector[SampleRun] -->
<g id="edge49" class="edge">
<title>WavelengthDetector[SampleRun]:e&#45;&gt;QDetector[SampleRun]:w</title>
<path fill="none" stroke="black" d="M3509,-118.5C3537.77,-118.5 3546.62,-127.94 3570.88,-130.07"/>
<polygon fill="black" stroke="black" points="3570.86,-133.58 3581,-130.5 3571.16,-126.58 3570.86,-133.58"/>
</g>
</g>
</svg>
