<?xml version="1.0" encoding="UTF-8" standalone="no"?>
<!DOCTYPE svg PUBLIC "-//W3C//DTD SVG 1.1//EN"
 "http://www.w3.org/Graphics/SVG/1.1/DTD/svg11.dtd">
<!-- Generated by graphviz version 2.43.0 (0)
 -->
<!-- Title: %3 Pages: 1 -->
<svg width="840pt" height="215pt"
 viewBox="0.00 0.00 840.00 215.02" xmlns="http://www.w3.org/2000/svg" xmlns:xlink="http://www.w3.org/1999/xlink">
<g id="graph0" class="graph" transform="scale(1 1) rotate(0) translate(4 211.02)">
<title>%3</title>
<polygon fill="white" stroke="transparent" points="-4,4 -4,-211.02 836,-211.02 836,4 -4,4"/>
<!-- DiskChoppers[AnyRun] -->
<g id="node1" class="node">
<title>DiskChoppers[AnyRun]</title>
<polygon fill="none" stroke="black" points="206.5,-207.02 24.5,-207.02 24.5,-184.02 206.5,-184.02 206.5,-207.02"/>
<text text-anchor="middle" x="115.5" y="-191.82" font-family="Times,serif" font-size="14.00">DiskChoppers[AnyRun]</text>
</g>
<!-- SimulationResults -->
<g id="node3" class="node">
<title>SimulationResults</title>
<polygon fill="none" stroke="black" points="545,-158.02 303,-158.02 303,-125.02 545,-125.02 545,-158.02"/>
<text text-anchor="start" x="358.5" y="-143.82" font-family="Times,serif" font-size="14.00">SimulationResults</text>
<text text-anchor="start" x="311" y="-132.22" font-family="Times,serif" font-size="11.00">via:</text>
<text text-anchor="start" x="332" y="-132.22" font-family="Times,serif" font-style="italic" font-size="11.00">simulate_chopper_cascade_using_tof</text>
</g>
<!-- DiskChoppers[AnyRun]&#45;&gt;SimulationResults -->
<g id="edge7" class="edge">
<title>DiskChoppers[AnyRun]:e&#45;&gt;SimulationResults:w</title>
<path fill="none" stroke="black" d="M207.5,-195.52C252.64,-195.52 254.26,-149.24 292.94,-142.37"/>
<polygon fill="black" stroke="black" points="293.33,-145.85 303,-141.52 292.74,-138.87 293.33,-145.85"/>
</g>
<!-- DistanceResolution -->
<g id="node2" class="node">
<title>DistanceResolution</title>
<polygon fill="none" stroke="black" points="501.5,-121.02 346.5,-121.02 346.5,-98.02 501.5,-98.02 501.5,-121.02"/>
<text text-anchor="middle" x="424" y="-105.82" font-family="Times,serif" font-size="14.00">DistanceResolution</text>
</g>
<!-- LookupTable -->
<g id="node4" class="node">
<title>LookupTable</title>
<polygon fill="none" stroke="black" points="832,-85.02 617,-85.02 617,-52.02 832,-52.02 832,-85.02"/>
<text text-anchor="start" x="679" y="-70.82" font-family="Times,serif" font-size="14.00">LookupTable</text>
<text text-anchor="start" x="625" y="-59.22" font-family="Times,serif" font-size="11.00">via:</text>
<text text-anchor="start" x="646" y="-59.22" font-family="Times,serif" font-style="italic" font-size="11.00">make_wavelength_lookup_table</text>
</g>
<!-- DistanceResolution&#45;&gt;LookupTable -->
<g id="edge3" class="edge">
<title>DistanceResolution:e&#45;&gt;LookupTable:w</title>
<path fill="none" stroke="black" d="M503,-109.52C553.27,-109.52 562.11,-73.78 606.87,-69.04"/>
<polygon fill="black" stroke="black" points="607.19,-72.53 617,-68.52 606.83,-65.54 607.19,-72.53"/>
</g>
<!-- SimulationResults&#45;&gt;LookupTable -->
<g id="edge1" class="edge">
<title>SimulationResults:e&#45;&gt;LookupTable:w</title>
<path fill="none" stroke="black" d="M545,-141.52C586.83,-141.52 574.13,-80.01 607.02,-69.91"/>
<polygon fill="black" stroke="black" points="607.58,-73.37 617,-68.52 606.61,-66.44 607.58,-73.37"/>
</g>
<!-- LtotalRange -->
<g id="node5" class="node">
<title>LtotalRange</title>
<polygon fill="none" stroke="black" points="476,-94.02 372,-94.02 372,-71.02 476,-71.02 476,-94.02"/>
<text text-anchor="middle" x="424" y="-78.82" font-family="Times,serif" font-size="14.00">LtotalRange</text>
</g>
<!-- LtotalRange&#45;&gt;LookupTable -->
<g id="edge2" class="edge">
<title>LtotalRange:e&#45;&gt;LookupTable:w</title>
<path fill="none" stroke="black" d="M477,-82.52C535.99,-82.52 552.62,-70.06 606.82,-68.65"/>
<polygon fill="black" stroke="black" points="607.05,-72.15 617,-68.52 606.96,-65.15 607.05,-72.15"/>
</g>
<!-- TimeResolution -->
<g id="node6" class="node">
<title>TimeResolution</title>
<polygon fill="none" stroke="black" points="488,-67.02 360,-67.02 360,-44.02 488,-44.02 488,-67.02"/>
<text text-anchor="middle" x="424" y="-51.82" font-family="Times,serif" font-size="14.00">TimeResolution</text>
</g>
<!-- TimeResolution&#45;&gt;LookupTable -->
<g id="edge4" class="edge">
<title>TimeResolution:e&#45;&gt;LookupTable:w</title>
<path fill="none" stroke="black" d="M489,-55.52C542.61,-55.52 557.94,-66.95 606.77,-68.37"/>
<polygon fill="black" stroke="black" points="606.95,-71.88 617,-68.52 607.05,-64.88 606.95,-71.88"/>
</g>
<!-- PulsePeriod -->
<g id="node7" class="node">
<title>PulsePeriod</title>
<polygon fill="none" stroke="black" points="474.5,-40.02 373.5,-40.02 373.5,-17.02 474.5,-17.02 474.5,-40.02"/>
<text text-anchor="middle" x="424" y="-24.82" font-family="Times,serif" font-size="14.00">PulsePeriod</text>
</g>
<!-- PulsePeriod&#45;&gt;LookupTable -->
<g id="edge5" class="edge">
<title>PulsePeriod:e&#45;&gt;LookupTable:w</title>
<path fill="none" stroke="black" d="M476,-28.52C507.38,-28.52 514.79,-35.02 545,-43.52 574.04,-51.69 581.6,-65.14 606.83,-67.98"/>
<polygon fill="black" stroke="black" points="606.83,-71.49 617,-68.52 607.2,-64.5 606.83,-71.49"/>
</g>
<!-- PulseStride -->
<g id="node8" class="node">
<title>PulseStride</title>
<polygon fill="none" stroke="black" points="165.5,-47.02 65.5,-47.02 65.5,-24.02 165.5,-24.02 165.5,-47.02"/>
<text text-anchor="middle" x="115.5" y="-31.82" font-family="Times,serif" font-size="14.00">PulseStride</text>
</g>
<!-- PulseStride&#45;&gt;SimulationResults -->
<g id="edge10" class="edge">
<title>PulseStride:e&#45;&gt;SimulationResults:w</title>
<path fill="none" stroke="black" d="M166.5,-35.52C199.77,-35.52 204.4,-53.53 231,-73.52 263.16,-97.7 259.91,-134.49 292.73,-140.64"/>
<polygon fill="black" stroke="black" points="292.74,-144.15 303,-141.52 293.34,-137.17 292.74,-144.15"/>
</g>
<!-- PulseStride&#45;&gt;LookupTable -->
<g id="edge6" class="edge">
<title>PulseStride:e&#45;&gt;LookupTable:w</title>
<path fill="none" stroke="black" d="M166.5,-35.52C227.75,-35.52 241.89,-20.75 303,-16.52 410.3,-9.09 442.66,16.57 545,-16.52 579.04,-27.53 578.1,-61.29 607,-67.52"/>
<polygon fill="black" stroke="black" points="606.7,-71.01 617,-68.52 607.4,-64.05 606.7,-71.01"/>
</g>
<!-- NumberOfSimulatedNeutrons -->
<g id="node9" class="node">
<title>NumberOfSimulatedNeutrons</title>
<polygon fill="none" stroke="black" points="231,-180.02 0,-180.02 0,-157.02 231,-157.02 231,-180.02"/>
<text text-anchor="middle" x="115.5" y="-164.82" font-family="Times,serif" font-size="14.00">NumberOfSimulatedNeutrons</text>
</g>
<!-- NumberOfSimulatedNeutrons&#45;&gt;SimulationResults -->
<g id="edge9" class="edge">
<title>NumberOfSimulatedNeutrons:e&#45;&gt;SimulationResults:w</title>
<path fill="none" stroke="black" d="M231,-168.52C261.44,-168.52 267.66,-147.1 292.8,-142.42"/>
<polygon fill="black" stroke="black" points="293.35,-145.88 303,-141.52 292.73,-138.91 293.35,-145.88"/>
</g>
<!-- SimulationFacility -->
<g id="node10" class="node">
<title>SimulationFacility</title>
<polygon fill="none" stroke="black" points="188.5,-153.02 42.5,-153.02 42.5,-130.02 188.5,-130.02 188.5,-153.02"/>
<text text-anchor="middle" x="115.5" y="-137.82" font-family="Times,serif" font-size="14.00">SimulationFacility</text>
</g>
<!-- SimulationFacility&#45;&gt;SimulationResults -->
<g id="edge12" class="edge">
<title>SimulationFacility:e&#45;&gt;SimulationResults:w</title>
<path fill="none" stroke="black" d="M189.5,-141.52C236.4,-141.52 250.6,-141.52 292.89,-141.52"/>
<polygon fill="black" stroke="black" points="293,-145.02 303,-141.52 293,-138.02 293,-145.02"/>
</g>
<!-- SourcePosition -->
<g id="node11" class="node">
<title>SourcePosition</title>
<polygon fill="none" stroke="black" points="177,-126.02 54,-126.02 54,-103.02 177,-103.02 177,-126.02"/>
<text text-anchor="middle" x="115.5" y="-110.82" font-family="Times,serif" font-size="14.00">SourcePosition</text>
</g>
<!-- SourcePosition&#45;&gt;SimulationResults -->
<g id="edge8" class="edge">
<title>SourcePosition:e&#45;&gt;SimulationResults:w</title>
<path fill="none" stroke="black" d="M178.5,-114.52C231.58,-114.52 244.8,-138.25 292.89,-141.22"/>
<polygon fill="black" stroke="black" points="292.9,-144.72 303,-141.52 293.11,-137.72 292.9,-144.72"/>
</g>
<!-- SimulationSeed -->
<g id="node12" class="node">
<title>SimulationSeed</title>
<polygon fill="none" stroke="black" points="180,-99.02 51,-99.02 51,-76.02 180,-76.02 180,-99.02"/>
<text text-anchor="middle" x="115.5" y="-83.82" font-family="Times,serif" font-size="14.00">SimulationSeed</text>
</g>
<!-- SimulationSeed&#45;&gt;SimulationResults -->
<g id="edge11" class="edge">
<title>SimulationSeed:e&#45;&gt;SimulationResults:w</title>
<path fill="none" stroke="black" d="M181.5,-87.52C204.49,-87.52 209.79,-93.67 231,-102.52 261.17,-115.11 265.87,-136.56 292.91,-140.78"/>
<polygon fill="black" stroke="black" points="292.77,-144.28 303,-141.52 293.28,-137.3 292.77,-144.28"/>
</g>
</g>
</svg>
