<?xml version="1.0" encoding="UTF-8" standalone="no"?>
<!DOCTYPE svg PUBLIC "-//W3C//DTD SVG 1.1//EN"
 "http://www.w3.org/Graphics/SVG/1.1/DTD/svg11.dtd">
<!-- Generated by graphviz version 2.43.0 (0)
 -->
<!-- Title: %3 Pages: 1 -->
<svg width="4562pt" height="390pt"
 viewBox="0.00 0.00 4562.00 389.91" xmlns="http://www.w3.org/2000/svg" xmlns:xlink="http://www.w3.org/1999/xlink">
<g id="graph0" class="graph" transform="scale(1 1) rotate(0) translate(4 385.91)">
<title>%3</title>
<polygon fill="white" stroke="transparent" points="-4,4 -4,-385.91 4558,-385.91 4558,4 -4,4"/>
<g id="clust16" class="cluster">
<title>cluster_NeXusClass</title>
<polygon fill="#f0f0ff" stroke="#f0f0ff" points="551,-78.5 551,-184.5 761,-184.5 761,-78.5 551,-78.5"/>
<text text-anchor="middle" x="656" y="-169.3" font-family="Times,serif" font-size="14.00">NeXusClass</text>
</g>
<g id="clust25" class="cluster">
<title>cluster_Position</title>
<polygon fill="#f0f0ff" stroke="#f0f0ff" points="1872,-173.5 1872,-269.5 2052,-269.5 2052,-173.5 1872,-173.5"/>
<text text-anchor="start" x="1933" y="-255.3" font-family="Times,serif" font-size="14.00">Position</text>
<text text-anchor="start" x="1902" y="-243.7" font-family="Times,serif" font-size="11.00">via:</text>
<text text-anchor="start" x="1923" y="-243.7" font-family="Times,serif" font-style="italic" font-size="11.00">compute_position</text>
</g>
<g id="clust17" class="cluster">
<title>cluster_NeXusComponentLocationSpec</title>
<polygon fill="#f0f0ff" stroke="#f0f0ff" points="536,-192.5 536,-333.5 776,-333.5 776,-192.5 536,-192.5"/>
<text text-anchor="middle" x="656" y="-318.3" font-family="Times,serif" font-size="14.00">NeXusComponentLocationSpec</text>
</g>
<g id="clust18" class="cluster">
<title>cluster_NeXusComponent</title>
<polygon fill="#f0f0ff" stroke="#f0f0ff" points="840,-157.5 840,-298.5 1026,-298.5 1026,-157.5 840,-157.5"/>
<text text-anchor="middle" x="933" y="-283.3" font-family="Times,serif" font-size="14.00">NeXusComponent</text>
</g>
<g id="clust23" class="cluster">
<title>cluster_NeXusTransformationChain</title>
<polygon fill="#f0f0ff" stroke="#f0f0ff" points="1090,-173.5 1090,-294.5 1305,-294.5 1305,-173.5 1090,-173.5"/>
<text text-anchor="start" x="1098" y="-280.3" font-family="Times,serif" font-size="14.00">NeXusTransformationChain</text>
<text text-anchor="start" x="1115.5" y="-268.7" font-family="Times,serif" font-size="11.00">via:</text>
<text text-anchor="start" x="1136.5" y="-268.7" font-family="Times,serif" font-style="italic" font-size="11.00">get_transformation_chain</text>
</g>
<g id="clust24" class="cluster">
<title>cluster_NeXusTransformation</title>
<polygon fill="#f0f0ff" stroke="#f0f0ff" points="1471,-173.5 1471,-294.5 1657,-294.5 1657,-173.5 1471,-173.5"/>
<text text-anchor="start" x="1485.5" y="-280.3" font-family="Times,serif" font-size="14.00">NeXusTransformation</text>
<text text-anchor="start" x="1503" y="-268.7" font-family="Times,serif" font-size="11.00">via:</text>
<text text-anchor="start" x="1524" y="-268.7" font-family="Times,serif" font-style="italic" font-size="11.00">to_transformation</text>
</g>
<!-- CalibratedDetector[SampleRun] -->
<g id="node1" class="node">
<title>CalibratedDetector[SampleRun]</title>
<polygon fill="none" stroke="black" points="2085,-165 1839,-165 1839,-132 2085,-132 2085,-165"/>
<text text-anchor="start" x="1847" y="-150.8" font-family="Times,serif" font-size="14.00">CalibratedDetector[SampleRun]</text>
<text text-anchor="start" x="1885" y="-139.2" font-family="Times,serif" font-size="11.00">via:</text>
<text text-anchor="start" x="1906" y="-139.2" font-family="Times,serif" font-style="italic" font-size="11.00">get_calibrated_detector</text>
</g>
<!-- CalibratedBeamline[SampleRun] -->
<g id="node2" class="node">
<title>CalibratedBeamline[SampleRun]</title>
<polygon fill="none" stroke="black" points="2452,-221 2201,-221 2201,-188 2452,-188 2452,-221"/>
<text text-anchor="start" x="2209" y="-206.8" font-family="Times,serif" font-size="14.00">CalibratedBeamline[SampleRun]</text>
<text text-anchor="start" x="2260.5" y="-195.2" font-family="Times,serif" font-size="11.00">via:</text>
<text text-anchor="start" x="2281.5" y="-195.2" font-family="Times,serif" font-style="italic" font-size="11.00">assemble_beamline</text>
</g>
<!-- CalibratedDetector[SampleRun]&#45;&gt;CalibratedBeamline[SampleRun] -->
<g id="edge1" class="edge">
<title>CalibratedDetector[SampleRun]:e&#45;&gt;CalibratedBeamline[SampleRun]:w</title>
<path fill="none" stroke="black" d="M2086,-148.5C2139.11,-148.5 2143.48,-197.72 2190.5,-203.87"/>
<polygon fill="black" stroke="black" points="2190.3,-207.37 2200.5,-204.5 2190.74,-200.38 2190.3,-207.37"/>
</g>
<!-- McStasDetectorData[SampleRun] -->
<g id="node19" class="node">
<title>McStasDetectorData[SampleRun]</title>
<polygon fill="none" stroke="black" points="2810,-221 2552,-221 2552,-188 2810,-188 2810,-221"/>
<text text-anchor="start" x="2560" y="-206.8" font-family="Times,serif" font-size="14.00">McStasDetectorData[SampleRun]</text>
<text text-anchor="start" x="2581.5" y="-195.2" font-family="Times,serif" font-size="11.00">via:</text>
<text text-anchor="start" x="2602.5" y="-195.2" font-family="Times,serif" font-style="italic" font-size="11.00">assemble_detector_data_flatten</text>
</g>
<!-- CalibratedBeamline[SampleRun]&#45;&gt;McStasDetectorData[SampleRun] -->
<g id="edge25" class="edge">
<title>CalibratedBeamline[SampleRun]:e&#45;&gt;McStasDetectorData[SampleRun]:w</title>
<path fill="none" stroke="black" d="M2452.5,-204.5C2493.09,-204.5 2505.74,-204.5 2541.75,-204.5"/>
<polygon fill="black" stroke="black" points="2542,-208 2552,-204.5 2542,-201 2542,-208"/>
</g>
<!-- Position[NXsource, SampleRun] -->
<g id="node3" class="node">
<title>Position[NXsource, SampleRun]</title>
<polygon fill="none" stroke="black" points="2042.5,-203 1881.5,-203 1881.5,-182 2042.5,-182 2042.5,-203"/>
<text text-anchor="start" x="1889.5" y="-189.4" font-family="Times,serif" font-size="12.00">[NXsource, SampleRun]</text>
</g>
<!-- Position[NXsource, SampleRun]&#45;&gt;CalibratedBeamline[SampleRun] -->
<g id="edge2" class="edge">
<title>Position[NXsource, SampleRun]:e&#45;&gt;CalibratedBeamline[SampleRun]:w</title>
<path fill="none" stroke="black" d="M2044,-192.5C2110.22,-192.5 2128.88,-203.31 2190.27,-204.41"/>
<polygon fill="black" stroke="black" points="2190.47,-207.91 2200.5,-204.5 2190.53,-200.91 2190.47,-207.91"/>
</g>
<!-- Position[NXsample, SampleRun] -->
<g id="node4" class="node">
<title>Position[NXsample, SampleRun]</title>
<polygon fill="none" stroke="black" points="2044,-228 1880,-228 1880,-207 2044,-207 2044,-228"/>
<text text-anchor="start" x="1888" y="-214.4" font-family="Times,serif" font-size="12.00">[NXsample, SampleRun]</text>
</g>
<!-- Position[NXsample, SampleRun]&#45;&gt;CalibratedBeamline[SampleRun] -->
<g id="edge3" class="edge">
<title>Position[NXsample, SampleRun]:e&#45;&gt;CalibratedBeamline[SampleRun]:w</title>
<path fill="none" stroke="black" d="M2045,-217.5C2110.83,-217.5 2129.31,-205.79 2190.33,-204.6"/>
<polygon fill="black" stroke="black" points="2190.53,-208.1 2200.5,-204.5 2190.47,-201.1 2190.53,-208.1"/>
</g>
<!-- GravityVector -->
<g id="node5" class="node">
<title>GravityVector</title>
<polygon fill="none" stroke="black" points="2039,-348 1885,-348 1885,-315 2039,-315 2039,-348"/>
<text text-anchor="start" x="1912" y="-333.8" font-family="Times,serif" font-size="14.00">GravityVector</text>
<text text-anchor="start" x="1893" y="-322.2" font-family="Times,serif" font-size="11.00">via:</text>
<text text-anchor="start" x="1914" y="-322.2" font-family="Times,serif" font-style="italic" font-size="11.00">gravity_vector_neg_y</text>
</g>
<!-- GravityVector&#45;&gt;CalibratedBeamline[SampleRun] -->
<g id="edge4" class="edge">
<title>GravityVector:e&#45;&gt;CalibratedBeamline[SampleRun]:w</title>
<path fill="none" stroke="black" d="M2040,-331.5C2068.53,-331.5 2076.97,-326.88 2101,-311.5 2152.6,-278.48 2137.6,-212.54 2190.26,-205.17"/>
<polygon fill="black" stroke="black" points="2190.75,-208.65 2200.5,-204.5 2190.29,-201.66 2190.75,-208.65"/>
</g>
<!-- ElasticCoordTransformGraph -->
<g id="node18" class="node">
<title>ElasticCoordTransformGraph</title>
<polygon fill="none" stroke="black" points="2480,-338 2173,-338 2173,-305 2480,-305 2480,-338"/>
<text text-anchor="start" x="2221" y="-323.8" font-family="Times,serif" font-size="14.00">ElasticCoordTransformGraph</text>
<text text-anchor="start" x="2181" y="-312.2" font-family="Times,serif" font-size="11.00">via:</text>
<text text-anchor="start" x="2202" y="-312.2" font-family="Times,serif" font-style="italic" font-size="11.00">single_crystal_coordinate_transformation_graph</text>
</g>
<!-- GravityVector&#45;&gt;ElasticCoordTransformGraph -->
<g id="edge23" class="edge">
<title>GravityVector:e&#45;&gt;ElasticCoordTransformGraph:w</title>
<path fill="none" stroke="black" d="M2040,-331.5C2095.69,-331.5 2111.81,-322.67 2162.71,-321.61"/>
<polygon fill="black" stroke="black" points="2163.04,-325.1 2173,-321.5 2162.96,-318.1 2163.04,-325.1"/>
</g>
<!-- NeXusComponent[NXdetector, SampleRun] -->
<g id="node6" class="node">
<title>NeXusComponent[NXdetector, SampleRun]</title>
<polygon fill="none" stroke="black" points="1018,-232 848,-232 848,-201 1018,-201 1018,-232"/>
<text text-anchor="start" x="856" y="-219.4" font-family="Times,serif" font-size="12.00">[NXdetector, SampleRun]</text>
<text text-anchor="start" x="858" y="-208.2" font-family="Times,serif" font-size="11.00">via:</text>
<text text-anchor="start" x="879" y="-208.2" font-family="Times,serif" font-style="italic" font-size="11.00">load_nexus_component</text>
</g>
<!-- NeXusComponent[NXdetector, SampleRun]&#45;&gt;CalibratedDetector[SampleRun] -->
<g id="edge5" class="edge">
<title>NeXusComponent[NXdetector, SampleRun]:e&#45;&gt;CalibratedDetector[SampleRun]:w</title>
<path fill="none" stroke="black" d="M1019,-216.5C1056.12,-216.5 1054.43,-183.12 1090,-172.5 1160.4,-151.47 1677.63,-159.39 1751,-155.5 1786.11,-153.64 1797.18,-149.4 1827.81,-148.62"/>
<polygon fill="black" stroke="black" points="1828.04,-152.12 1838,-148.5 1827.96,-145.12 1828.04,-152.12"/>
</g>
<!-- NeXusTransformationChain[NXdetector, SampleRun] -->
<g id="node38" class="node">
<title>NeXusTransformationChain[NXdetector, SampleRun]</title>
<polygon fill="none" stroke="black" points="1282,-228 1112,-228 1112,-207 1282,-207 1282,-228"/>
<text text-anchor="start" x="1120" y="-214.4" font-family="Times,serif" font-size="12.00">[NXdetector, SampleRun]</text>
</g>
<!-- NeXusComponent[NXdetector, SampleRun]&#45;&gt;NeXusTransformationChain[NXdetector, SampleRun] -->
<g id="edge42" class="edge">
<title>NeXusComponent[NXdetector, SampleRun]:e&#45;&gt;NeXusTransformationChain[NXdetector, SampleRun]:w</title>
<path fill="none" stroke="black" d="M1019,-216.5C1056.22,-216.5 1068.03,-217.33 1100.68,-217.48"/>
<polygon fill="black" stroke="black" points="1100.99,-220.98 1111,-217.5 1101.01,-213.98 1100.99,-220.98"/>
</g>
<!-- NeXusTransformation[NXdetector, SampleRun] -->
<g id="node7" class="node">
<title>NeXusTransformation[NXdetector, SampleRun]</title>
<polygon fill="none" stroke="black" points="1649,-228 1479,-228 1479,-207 1649,-207 1649,-228"/>
<text text-anchor="start" x="1487" y="-214.4" font-family="Times,serif" font-size="12.00">[NXdetector, SampleRun]</text>
</g>
<!-- NeXusTransformation[NXdetector, SampleRun]&#45;&gt;CalibratedDetector[SampleRun] -->
<g id="edge6" class="edge">
<title>NeXusTransformation[NXdetector, SampleRun]:e&#45;&gt;CalibratedDetector[SampleRun]:w</title>
<path fill="none" stroke="black" d="M1650,-217.5C1695.32,-217.5 1708.44,-219.07 1751,-203.5 1790.44,-189.07 1792.23,-154.79 1827.65,-149.26"/>
<polygon fill="black" stroke="black" points="1828.28,-152.72 1838,-148.5 1827.77,-145.74 1828.28,-152.72"/>
</g>
<!-- DetectorPositionOffset[SampleRun] -->
<g id="node8" class="node">
<title>DetectorPositionOffset[SampleRun]</title>
<polygon fill="none" stroke="black" points="1699.5,-155 1428.5,-155 1428.5,-122 1699.5,-122 1699.5,-155"/>
<text text-anchor="start" x="1436.5" y="-140.8" font-family="Times,serif" font-size="14.00">DetectorPositionOffset[SampleRun]</text>
<text text-anchor="start" x="1476.5" y="-129.2" font-family="Times,serif" font-size="11.00">via:</text>
<text text-anchor="start" x="1497.5" y="-129.2" font-family="Times,serif" font-style="italic" font-size="11.00">no_detector_position_offset</text>
</g>
<!-- DetectorPositionOffset[SampleRun]&#45;&gt;CalibratedDetector[SampleRun] -->
<g id="edge7" class="edge">
<title>DetectorPositionOffset[SampleRun]:e&#45;&gt;CalibratedDetector[SampleRun]:w</title>
<path fill="none" stroke="black" d="M1701,-138.5C1758.47,-138.5 1775.04,-147.36 1827.73,-148.4"/>
<polygon fill="black" stroke="black" points="1827.97,-151.9 1838,-148.5 1828.03,-144.9 1827.97,-151.9"/>
</g>
<!-- DetectorBankSizes -->
<g id="node9" class="node">
<title>DetectorBankSizes</title>
<polygon fill="none" stroke="black" points="1640,-118 1488,-118 1488,-95 1640,-95 1640,-118"/>
<text text-anchor="middle" x="1564" y="-102.8" font-family="Times,serif" font-size="14.00">DetectorBankSizes</text>
</g>
<!-- DetectorBankSizes&#45;&gt;CalibratedDetector[SampleRun] -->
<g id="edge8" class="edge">
<title>DetectorBankSizes:e&#45;&gt;CalibratedDetector[SampleRun]:w</title>
<path fill="none" stroke="black" d="M1641,-106.5C1690.4,-106.5 1702.76,-111.84 1751,-122.5 1786.87,-130.42 1796.08,-145.46 1827.88,-148.1"/>
<polygon fill="black" stroke="black" points="1827.87,-151.6 1838,-148.5 1828.15,-144.61 1827.87,-151.6"/>
</g>
<!-- DetectorCountsWithQ[SampleRun] -->
<g id="node10" class="node">
<title>DetectorCountsWithQ[SampleRun]</title>
<polygon fill="none" stroke="black" points="4196,-293 3930,-293 3930,-260 4196,-260 4196,-293"/>
<text text-anchor="start" x="3938" y="-278.8" font-family="Times,serif" font-size="14.00">DetectorCountsWithQ[SampleRun]</text>
<text text-anchor="start" x="4007" y="-267.2" font-family="Times,serif" font-size="11.00">via:</text>
<text text-anchor="start" x="4028" y="-267.2" font-family="Times,serif" font-style="italic" font-size="11.00">convert_tof_to_q</text>
</g>
<!-- CountsWithQMapCoords[SampleRun] -->
<g id="node11" class="node">
<title>CountsWithQMapCoords[SampleRun]</title>
<polygon fill="none" stroke="black" points="4554,-274 4268,-274 4268,-241 4554,-241 4554,-274"/>
<text text-anchor="start" x="4276" y="-259.8" font-family="Times,serif" font-size="14.00">CountsWithQMapCoords[SampleRun]</text>
<text text-anchor="start" x="4321" y="-248.2" font-family="Times,serif" font-size="11.00">via:</text>
<text text-anchor="start" x="4342" y="-248.2" font-family="Times,serif" font-style="italic" font-size="11.00">project_momentum_transfer</text>
</g>
<!-- DetectorCountsWithQ[SampleRun]&#45;&gt;CountsWithQMapCoords[SampleRun] -->
<g id="edge9" class="edge">
<title>DetectorCountsWithQ[SampleRun]:e&#45;&gt;CountsWithQMapCoords[SampleRun]:w</title>
<path fill="none" stroke="black" d="M4196,-276.5C4225.35,-276.5 4233.24,-261.56 4257.72,-258.18"/>
<polygon fill="black" stroke="black" points="4258.25,-261.65 4268,-257.5 4257.79,-254.66 4258.25,-261.65"/>
</g>
<!-- QProjection -->
<g id="node12" class="node">
<title>QProjection</title>
<polygon fill="none" stroke="black" points="4138.5,-256 3987.5,-256 3987.5,-223 4138.5,-223 4138.5,-256"/>
<text text-anchor="start" x="4020.5" y="-241.8" font-family="Times,serif" font-size="14.00">QProjection</text>
<text text-anchor="start" x="3995.5" y="-230.2" font-family="Times,serif" font-size="11.00">via:</text>
<text text-anchor="start" x="4016.5" y="-230.2" font-family="Times,serif" font-style="italic" font-size="11.00">default_q_projection</text>
</g>
<!-- QProjection&#45;&gt;CountsWithQMapCoords[SampleRun] -->
<g id="edge10" class="edge">
<title>QProjection:e&#45;&gt;CountsWithQMapCoords[SampleRun]:w</title>
<path fill="none" stroke="black" d="M4140,-239.5C4193.86,-239.5 4208.74,-255.32 4257.73,-257.3"/>
<polygon fill="black" stroke="black" points="4257.93,-260.8 4268,-257.5 4258.07,-253.8 4257.93,-260.8"/>
</g>
<!-- DetectorData[SampleRun] -->
<g id="node13" class="node">
<title>DetectorData[SampleRun]</title>
<polygon fill="none" stroke="black" points="3173,-221 2882,-221 2882,-188 3173,-188 3173,-221"/>
<text text-anchor="start" x="2933" y="-206.8" font-family="Times,serif" font-size="14.00">DetectorData[SampleRun]</text>
<text text-anchor="start" x="2890" y="-195.2" font-family="Times,serif" font-size="11.00">via:</text>
<text text-anchor="start" x="2911" y="-195.2" font-family="Times,serif" font-style="italic" font-size="11.00">convert_simulated_time_to_event_time_offset</text>
</g>
<!-- DataGroupedByRotation[SampleRun] -->
<g id="node14" class="node">
<title>DataGroupedByRotation[SampleRun]</title>
<polygon fill="none" stroke="black" points="3544,-150 3260,-150 3260,-117 3544,-117 3544,-150"/>
<text text-anchor="start" x="3268" y="-135.8" font-family="Times,serif" font-size="14.00">DataGroupedByRotation[SampleRun]</text>
<text text-anchor="start" x="3341" y="-124.2" font-family="Times,serif" font-size="11.00">via:</text>
<text text-anchor="start" x="3362" y="-124.2" font-family="Times,serif" font-style="italic" font-size="11.00">group_by_rotation</text>
</g>
<!-- DetectorData[SampleRun]&#45;&gt;DataGroupedByRotation[SampleRun] -->
<g id="edge11" class="edge">
<title>DetectorData[SampleRun]:e&#45;&gt;DataGroupedByRotation[SampleRun]:w</title>
<path fill="none" stroke="black" d="M3173,-204.5C3218.89,-204.5 3211.04,-143.65 3248.95,-134.62"/>
<polygon fill="black" stroke="black" points="3249.45,-138.08 3259,-133.5 3248.67,-131.12 3249.45,-138.08"/>
</g>
<!-- DetectorLtotal[SampleRun] -->
<g id="node21" class="node">
<title>DetectorLtotal[SampleRun]</title>
<polygon fill="none" stroke="black" points="3559,-221 3245,-221 3245,-188 3559,-188 3559,-221"/>
<text text-anchor="start" x="3303.5" y="-206.8" font-family="Times,serif" font-size="14.00">DetectorLtotal[SampleRun]</text>
<text text-anchor="start" x="3253" y="-195.2" font-family="Times,serif" font-size="11.00">via:</text>
<text text-anchor="start" x="3274" y="-195.2" font-family="Times,serif" font-style="italic" font-size="11.00">detector_ltotal_from_straight_line_approximation</text>
</g>
<!-- DetectorData[SampleRun]&#45;&gt;DetectorLtotal[SampleRun] -->
<g id="edge18" class="edge">
<title>DetectorData[SampleRun]:e&#45;&gt;DetectorLtotal[SampleRun]:w</title>
<path fill="none" stroke="black" d="M3173,-204.5C3201.38,-204.5 3210.88,-204.5 3234.98,-204.5"/>
<polygon fill="black" stroke="black" points="3235,-208 3245,-204.5 3235,-201 3235,-208"/>
</g>
<!-- DetectorTofData[SampleRun] -->
<g id="node17" class="node">
<title>DetectorTofData[SampleRun]</title>
<polygon fill="none" stroke="black" points="3858,-258 3631,-258 3631,-225 3858,-225 3858,-258"/>
<text text-anchor="start" x="3639" y="-243.8" font-family="Times,serif" font-size="14.00">DetectorTofData[SampleRun]</text>
<text text-anchor="start" x="3654.5" y="-232.2" font-family="Times,serif" font-size="11.00">via:</text>
<text text-anchor="start" x="3675.5" y="-232.2" font-family="Times,serif" font-style="italic" font-size="11.00">detector_time_of_flight_data</text>
</g>
<!-- DataGroupedByRotation[SampleRun]&#45;&gt;DetectorTofData[SampleRun] -->
<g id="edge19" class="edge">
<title>DataGroupedByRotation[SampleRun]:e&#45;&gt;DetectorTofData[SampleRun]:w</title>
<path fill="none" stroke="black" d="M3545,-133.5C3602.64,-133.5 3573.73,-228.82 3620.89,-240.36"/>
<polygon fill="black" stroke="black" points="3620.67,-243.86 3631,-241.5 3621.46,-236.9 3620.67,-243.86"/>
</g>
<!-- SampleAngle[SampleRun] -->
<g id="node15" class="node">
<title>SampleAngle[SampleRun]</title>
<polygon fill="none" stroke="black" points="757.5,-70 554.5,-70 554.5,-37 757.5,-37 757.5,-70"/>
<text text-anchor="start" x="562.5" y="-55.8" font-family="Times,serif" font-size="14.00">SampleAngle[SampleRun]</text>
<text text-anchor="start" x="592.5" y="-44.2" font-family="Times,serif" font-size="11.00">via:</text>
<text text-anchor="start" x="613.5" y="-44.2" font-family="Times,serif" font-style="italic" font-size="11.00">load_sample_angle</text>
</g>
<!-- SampleAngle[SampleRun]&#45;&gt;DataGroupedByRotation[SampleRun] -->
<g id="edge12" class="edge">
<title>SampleAngle[SampleRun]:e&#45;&gt;DataGroupedByRotation[SampleRun]:w</title>
<path fill="none" stroke="black" d="M758,-53.5C952.85,-53.5 1001.15,-72.5 1196,-72.5 1196,-72.5 1196,-72.5 2682,-72.5 2936.47,-72.5 2999.48,-131.9 3248.9,-133.47"/>
<polygon fill="black" stroke="black" points="3248.99,-136.97 3259,-133.5 3249.01,-129.97 3248.99,-136.97"/>
</g>
<!-- InstrumentAngle[SampleRun] -->
<g id="node16" class="node">
<title>InstrumentAngle[SampleRun]</title>
<polygon fill="none" stroke="black" points="771,-33 541,-33 541,0 771,0 771,-33"/>
<text text-anchor="start" x="549" y="-18.8" font-family="Times,serif" font-size="14.00">InstrumentAngle[SampleRun]</text>
<text text-anchor="start" x="582" y="-7.2" font-family="Times,serif" font-size="11.00">via:</text>
<text text-anchor="start" x="603" y="-7.2" font-family="Times,serif" font-style="italic" font-size="11.00">load_instrument_angle</text>
</g>
<!-- InstrumentAngle[SampleRun]&#45;&gt;DataGroupedByRotation[SampleRun] -->
<g id="edge13" class="edge">
<title>InstrumentAngle[SampleRun]:e&#45;&gt;DataGroupedByRotation[SampleRun]:w</title>
<path fill="none" stroke="black" d="M772,-16.5C960.56,-16.5 1007.44,-31.5 1196,-31.5 1196,-31.5 1196,-31.5 2682,-31.5 2901.54,-31.5 2963.88,-18.67 3173,-85.5 3211.11,-97.68 3214.83,-127.7 3248.62,-132.77"/>
<polygon fill="black" stroke="black" points="3248.78,-136.29 3259,-133.5 3249.27,-129.3 3248.78,-136.29"/>
</g>
<!-- DetectorTofData[SampleRun]&#45;&gt;DetectorCountsWithQ[SampleRun] -->
<g id="edge14" class="edge">
<title>DetectorTofData[SampleRun]:e&#45;&gt;DetectorCountsWithQ[SampleRun]:w</title>
<path fill="none" stroke="black" d="M3858,-241.5C3889.83,-241.5 3893.86,-269.51 3919.82,-275.41"/>
<polygon fill="black" stroke="black" points="3919.69,-278.92 3930,-276.5 3920.43,-271.96 3919.69,-278.92"/>
</g>
<!-- ElasticCoordTransformGraph&#45;&gt;DetectorCountsWithQ[SampleRun] -->
<g id="edge15" class="edge">
<title>ElasticCoordTransformGraph:e&#45;&gt;DetectorCountsWithQ[SampleRun]:w</title>
<path fill="none" stroke="black" d="M2480,-321.5C2722.93,-321.5 2783.57,-311.5 3026.5,-311.5 3026.5,-311.5 3026.5,-311.5 3403,-311.5 3634.3,-311.5 3693.54,-277.52 3919.8,-276.52"/>
<polygon fill="black" stroke="black" points="3920.01,-280.02 3930,-276.5 3919.99,-273.02 3920.01,-280.02"/>
</g>
<!-- McStasDetectorData[SampleRun]&#45;&gt;DetectorData[SampleRun] -->
<g id="edge16" class="edge">
<title>McStasDetectorData[SampleRun]:e&#45;&gt;DetectorData[SampleRun]:w</title>
<path fill="none" stroke="black" d="M2810,-204.5C2838.38,-204.5 2847.88,-204.5 2871.98,-204.5"/>
<polygon fill="black" stroke="black" points="2872,-208 2882,-204.5 2872,-201 2872,-208"/>
</g>
<!-- PulsePeriod -->
<g id="node20" class="node">
<title>PulsePeriod</title>
<polygon fill="none" stroke="black" points="2731.5,-248 2630.5,-248 2630.5,-225 2731.5,-225 2731.5,-248"/>
<text text-anchor="middle" x="2681" y="-232.8" font-family="Times,serif" font-size="14.00">PulsePeriod</text>
</g>
<!-- PulsePeriod&#45;&gt;DetectorData[SampleRun] -->
<g id="edge17" class="edge">
<title>PulsePeriod:e&#45;&gt;DetectorData[SampleRun]:w</title>
<path fill="none" stroke="black" d="M2733,-236.5C2767.87,-236.5 2775.92,-228.84 2810,-221.5 2838.5,-215.36 2847.22,-206.74 2871.75,-204.87"/>
<polygon fill="black" stroke="black" points="2872.13,-208.36 2882,-204.5 2871.88,-201.36 2872.13,-208.36"/>
</g>
<!-- DetectorLtotal[SampleRun]&#45;&gt;DetectorTofData[SampleRun] -->
<g id="edge21" class="edge">
<title>DetectorLtotal[SampleRun]:e&#45;&gt;DetectorTofData[SampleRun]:w</title>
<path fill="none" stroke="black" d="M3559,-204.5C3591.18,-204.5 3594.61,-234.11 3620.73,-240.35"/>
<polygon fill="black" stroke="black" points="3620.67,-243.87 3631,-241.5 3621.45,-236.91 3620.67,-243.87"/>
</g>
<!-- TimeOfFlightLookupTable -->
<g id="node22" class="node">
<title>TimeOfFlightLookupTable</title>
<polygon fill="none" stroke="black" points="3502.5,-258 3301.5,-258 3301.5,-225 3502.5,-225 3502.5,-258"/>
<text text-anchor="start" x="3309.5" y="-243.8" font-family="Times,serif" font-size="14.00">TimeOfFlightLookupTable</text>
<text text-anchor="start" x="3331" y="-232.2" font-family="Times,serif" font-size="11.00">via:</text>
<text text-anchor="start" x="3352" y="-232.2" font-family="Times,serif" font-style="italic" font-size="11.00">load_tof_lookup_table</text>
</g>
<!-- TimeOfFlightLookupTable&#45;&gt;DetectorTofData[SampleRun] -->
<g id="edge20" class="edge">
<title>TimeOfFlightLookupTable:e&#45;&gt;DetectorTofData[SampleRun]:w</title>
<path fill="none" stroke="black" d="M3504,-241.5C3556.92,-241.5 3572.63,-241.5 3620.89,-241.5"/>
<polygon fill="black" stroke="black" points="3621,-245 3631,-241.5 3621,-238 3621,-245"/>
</g>
<!-- PulseStrideOffset -->
<g id="node23" class="node">
<title>PulseStrideOffset</title>
<polygon fill="none" stroke="black" points="3473.5,-285 3330.5,-285 3330.5,-262 3473.5,-262 3473.5,-285"/>
<text text-anchor="middle" x="3402" y="-269.8" font-family="Times,serif" font-size="14.00">PulseStrideOffset</text>
</g>
<!-- PulseStrideOffset&#45;&gt;DetectorTofData[SampleRun] -->
<g id="edge22" class="edge">
<title>PulseStrideOffset:e&#45;&gt;DetectorTofData[SampleRun]:w</title>
<path fill="none" stroke="black" d="M3475,-273.5C3512.92,-273.5 3521.86,-266.19 3559,-258.5 3587.55,-252.59 3596.23,-243.79 3620.75,-241.88"/>
<polygon fill="black" stroke="black" points="3621.14,-245.37 3631,-241.5 3620.88,-238.37 3621.14,-245.37"/>
</g>
<!-- Filename[SampleRun] -->
<g id="node24" class="node">
<title>Filename[SampleRun]</title>
<polygon fill="none" stroke="black" points="175,-260 0,-260 0,-237 175,-237 175,-260"/>
<text text-anchor="middle" x="87.5" y="-244.8" font-family="Times,serif" font-size="14.00">Filename[SampleRun]</text>
</g>
<!-- NeXusFileSpec[SampleRun] -->
<g id="node25" class="node">
<title>NeXusFileSpec[SampleRun]</title>
<polygon fill="none" stroke="black" points="464,-251 247,-251 247,-218 464,-218 464,-251"/>
<text text-anchor="start" x="255" y="-236.8" font-family="Times,serif" font-size="14.00">NeXusFileSpec[SampleRun]</text>
<text text-anchor="start" x="285.5" y="-225.2" font-family="Times,serif" font-size="11.00">via:</text>
<text text-anchor="start" x="306.5" y="-225.2" font-family="Times,serif" font-style="italic" font-size="11.00">file_path_to_file_spec</text>
</g>
<!-- Filename[SampleRun]&#45;&gt;NeXusFileSpec[SampleRun] -->
<g id="edge40" class="edge">
<title>Filename[SampleRun]:e&#45;&gt;NeXusFileSpec[SampleRun]:w</title>
<path fill="none" stroke="black" d="M175,-248.5C203.91,-248.5 212.53,-237.49 236.84,-235"/>
<polygon fill="black" stroke="black" points="237.18,-238.49 247,-234.5 236.84,-231.49 237.18,-238.49"/>
</g>
<!-- NeXusFileSpec[SampleRun]&#45;&gt;SampleAngle[SampleRun] -->
<g id="edge53" class="edge">
<title>NeXusFileSpec[SampleRun]:e&#45;&gt;SampleAngle[SampleRun]:w</title>
<path fill="none" stroke="black" d="M464,-234.5C550.16,-234.5 471.21,-68.04 543.83,-54.39"/>
<polygon fill="black" stroke="black" points="544.34,-57.86 554,-53.5 543.73,-50.88 544.34,-57.86"/>
</g>
<!-- NeXusFileSpec[SampleRun]&#45;&gt;InstrumentAngle[SampleRun] -->
<g id="edge24" class="edge">
<title>NeXusFileSpec[SampleRun]:e&#45;&gt;InstrumentAngle[SampleRun]:w</title>
<path fill="none" stroke="black" d="M464,-234.5C563,-234.5 446.19,-31.56 530.02,-17.29"/>
<polygon fill="black" stroke="black" points="530.31,-20.78 540,-16.5 529.76,-13.8 530.31,-20.78"/>
</g>
<!-- NeXusComponentLocationSpec[NXdetector, SampleRun] -->
<g id="node29" class="node">
<title>NeXusComponentLocationSpec[NXdetector, SampleRun]</title>
<polygon fill="none" stroke="black" points="748,-302 564,-302 564,-271 748,-271 748,-302"/>
<text text-anchor="start" x="579" y="-289.4" font-family="Times,serif" font-size="12.00">[NXdetector, SampleRun]</text>
<text text-anchor="start" x="572" y="-278.2" font-family="Times,serif" font-size="11.00">via:</text>
<text text-anchor="start" x="593" y="-278.2" font-family="Times,serif" font-style="italic" font-size="11.00">component_spec_by_name</text>
</g>
<!-- NeXusFileSpec[SampleRun]&#45;&gt;NeXusComponentLocationSpec[NXdetector, SampleRun] -->
<g id="edge27" class="edge">
<title>NeXusFileSpec[SampleRun]:e&#45;&gt;NeXusComponentLocationSpec[NXdetector, SampleRun]:w</title>
<path fill="none" stroke="black" d="M464,-234.5C510.11,-234.5 513.1,-279.26 552.97,-285.72"/>
<polygon fill="black" stroke="black" points="552.76,-289.22 563,-286.5 553.3,-282.24 552.76,-289.22"/>
</g>
<!-- NeXusComponentLocationSpec[NXsample, SampleRun] -->
<g id="node31" class="node">
<title>NeXusComponentLocationSpec[NXsample, SampleRun]</title>
<polygon fill="none" stroke="black" points="742.5,-267 569.5,-267 569.5,-236 742.5,-236 742.5,-267"/>
<text text-anchor="start" x="582" y="-254.4" font-family="Times,serif" font-size="12.00">[NXsample, SampleRun]</text>
<text text-anchor="start" x="577.5" y="-243.2" font-family="Times,serif" font-size="11.00">via:</text>
<text text-anchor="start" x="598.5" y="-243.2" font-family="Times,serif" font-style="italic" font-size="11.00">unique_component_spec</text>
</g>
<!-- NeXusFileSpec[SampleRun]&#45;&gt;NeXusComponentLocationSpec[NXsample, SampleRun] -->
<g id="edge29" class="edge">
<title>NeXusFileSpec[SampleRun]:e&#45;&gt;NeXusComponentLocationSpec[NXsample, SampleRun]:w</title>
<path fill="none" stroke="black" d="M464,-234.5C507.18,-234.5 519.33,-248.95 557.66,-251.2"/>
<polygon fill="black" stroke="black" points="557.9,-254.71 568,-251.5 558.1,-247.72 557.9,-254.71"/>
</g>
<!-- NeXusComponentLocationSpec[NXsource, SampleRun] -->
<g id="node32" class="node">
<title>NeXusComponentLocationSpec[NXsource, SampleRun]</title>
<polygon fill="none" stroke="black" points="742.5,-232 569.5,-232 569.5,-201 742.5,-201 742.5,-232"/>
<text text-anchor="start" x="583.5" y="-219.4" font-family="Times,serif" font-size="12.00">[NXsource, SampleRun]</text>
<text text-anchor="start" x="577.5" y="-208.2" font-family="Times,serif" font-size="11.00">via:</text>
<text text-anchor="start" x="598.5" y="-208.2" font-family="Times,serif" font-style="italic" font-size="11.00">unique_component_spec</text>
</g>
<!-- NeXusFileSpec[SampleRun]&#45;&gt;NeXusComponentLocationSpec[NXsource, SampleRun] -->
<g id="edge30" class="edge">
<title>NeXusFileSpec[SampleRun]:e&#45;&gt;NeXusComponentLocationSpec[NXsource, SampleRun]:w</title>
<path fill="none" stroke="black" d="M464,-234.5C507.24,-234.5 519.28,-219.2 557.64,-216.81"/>
<polygon fill="black" stroke="black" points="558.11,-220.3 568,-216.5 557.9,-213.3 558.11,-220.3"/>
</g>
<!-- NeXusDataLocationSpec[NXdetector, SampleRun] -->
<g id="node35" class="node">
<title>NeXusDataLocationSpec[NXdetector, SampleRun]</title>
<polygon fill="none" stroke="black" points="1751,-349 1377,-349 1377,-316 1751,-316 1751,-349"/>
<text text-anchor="start" x="1385" y="-334.8" font-family="Times,serif" font-size="14.00">NeXusDataLocationSpec[NXdetector, SampleRun]</text>
<text text-anchor="start" x="1514" y="-323.2" font-family="Times,serif" font-size="11.00">via:</text>
<text text-anchor="start" x="1535" y="-323.2" font-family="Times,serif" font-style="italic" font-size="11.00">data_by_name</text>
</g>
<!-- NeXusFileSpec[SampleRun]&#45;&gt;NeXusDataLocationSpec[NXdetector, SampleRun] -->
<g id="edge36" class="edge">
<title>NeXusFileSpec[SampleRun]:e&#45;&gt;NeXusDataLocationSpec[NXdetector, SampleRun]:w</title>
<path fill="none" stroke="black" d="M464,-234.5C518.77,-234.5 487.32,-309.4 536,-334.5 590.71,-362.71 1028.44,-337.33 1090,-337.5 1185.56,-337.76 1209.5,-340.81 1305,-337.5 1333.43,-336.51 1342.83,-333.35 1366.96,-332.64"/>
<polygon fill="black" stroke="black" points="1367.05,-336.14 1377,-332.5 1366.95,-329.14 1367.05,-336.14"/>
</g>
<!-- NeXusData[NXdetector, SampleRun] -->
<g id="node26" class="node">
<title>NeXusData[NXdetector, SampleRun]</title>
<polygon fill="none" stroke="black" points="2101,-311 1823,-311 1823,-278 2101,-278 2101,-311"/>
<text text-anchor="start" x="1831" y="-296.8" font-family="Times,serif" font-size="14.00">NeXusData[NXdetector, SampleRun]</text>
<text text-anchor="start" x="1905.5" y="-285.2" font-family="Times,serif" font-size="11.00">via:</text>
<text text-anchor="start" x="1926.5" y="-285.2" font-family="Times,serif" font-style="italic" font-size="11.00">load_nexus_data</text>
</g>
<!-- NeXusData[NXdetector, SampleRun]&#45;&gt;McStasDetectorData[SampleRun] -->
<g id="edge26" class="edge">
<title>NeXusData[NXdetector, SampleRun]:e&#45;&gt;McStasDetectorData[SampleRun]:w</title>
<path fill="none" stroke="black" d="M2101,-294.5C2272.37,-294.5 2312.82,-261.17 2480,-223.5 2508.63,-217.05 2517.08,-207.1 2541.7,-204.93"/>
<polygon fill="black" stroke="black" points="2542.15,-208.41 2552,-204.5 2541.86,-201.42 2542.15,-208.41"/>
</g>
<!-- NeXusClass[NXdetector] -->
<g id="node27" class="node">
<title>NeXusClass[NXdetector]</title>
<polygon fill="none" stroke="black" points="735,-153 577,-153 577,-122 735,-122 735,-153"/>
<text text-anchor="start" x="616.5" y="-140.4" font-family="Times,serif" font-size="12.00">[NXdetector]</text>
<text text-anchor="start" x="585" y="-129.2" font-family="Times,serif" font-size="11.00">via:</text>
<text text-anchor="start" x="606" y="-129.2" font-family="Times,serif" font-style="italic" font-size="11.00">nx_class_for_detector</text>
</g>
<!-- NeXusClass[NXdetector]&#45;&gt;NeXusComponent[NXdetector, SampleRun] -->
<g id="edge32" class="edge">
<title>NeXusClass[NXdetector]:e&#45;&gt;NeXusComponent[NXdetector, SampleRun]:w</title>
<path fill="none" stroke="black" d="M736,-137.5C792.89,-137.5 787.41,-207.22 836.75,-215.67"/>
<polygon fill="black" stroke="black" points="836.75,-219.18 847,-216.5 837.32,-212.2 836.75,-219.18"/>
</g>
<!-- NeXusClass[NXsource] -->
<g id="node28" class="node">
<title>NeXusClass[NXsource]</title>
<polygon fill="none" stroke="black" points="753,-118 559,-118 559,-87 753,-87 753,-118"/>
<text text-anchor="start" x="621.5" y="-105.4" font-family="Times,serif" font-size="12.00">[NXsource]</text>
<text text-anchor="start" x="567" y="-94.2" font-family="Times,serif" font-size="11.00">via:</text>
<text text-anchor="start" x="588" y="-94.2" font-family="Times,serif" font-style="italic" font-size="11.00">moderator_class_for_source</text>
</g>
<!-- NeXusComponent[NXsource, SampleRun] -->
<g id="node34" class="node">
<title>NeXusComponent[NXsource, SampleRun]</title>
<polygon fill="none" stroke="black" points="1016,-197 850,-197 850,-166 1016,-166 1016,-197"/>
<text text-anchor="start" x="860.5" y="-184.4" font-family="Times,serif" font-size="12.00">[NXsource, SampleRun]</text>
<text text-anchor="start" x="858" y="-173.2" font-family="Times,serif" font-size="11.00">via:</text>
<text text-anchor="start" x="879" y="-173.2" font-family="Times,serif" font-style="italic" font-size="11.00">load_nexus_component</text>
</g>
<!-- NeXusClass[NXsource]&#45;&gt;NeXusComponent[NXsource, SampleRun] -->
<g id="edge35" class="edge">
<title>NeXusClass[NXsource]:e&#45;&gt;NeXusComponent[NXsource, SampleRun]:w</title>
<path fill="none" stroke="black" d="M754,-102.5C805.27,-102.5 795.75,-171.36 838.94,-180.5"/>
<polygon fill="black" stroke="black" points="838.7,-183.99 849,-181.5 839.39,-177.03 838.7,-183.99"/>
</g>
<!-- NeXusComponentLocationSpec[NXdetector, SampleRun]&#45;&gt;NeXusComponent[NXdetector, SampleRun] -->
<g id="edge31" class="edge">
<title>NeXusComponentLocationSpec[NXdetector, SampleRun]:e&#45;&gt;NeXusComponent[NXdetector, SampleRun]:w</title>
<path fill="none" stroke="black" d="M749,-286.5C798.87,-286.5 794.42,-225.74 836.86,-217.44"/>
<polygon fill="black" stroke="black" points="837.36,-220.91 847,-216.5 836.72,-213.93 837.36,-220.91"/>
</g>
<!-- NeXusName[NXdetector] -->
<g id="node30" class="node">
<title>NeXusName[NXdetector]</title>
<polygon fill="none" stroke="black" points="454,-332 257,-332 257,-309 454,-309 454,-332"/>
<text text-anchor="middle" x="355.5" y="-316.8" font-family="Times,serif" font-size="14.00">NeXusName[NXdetector]</text>
</g>
<!-- NeXusName[NXdetector]&#45;&gt;NeXusComponentLocationSpec[NXdetector, SampleRun] -->
<g id="edge28" class="edge">
<title>NeXusName[NXdetector]:e&#45;&gt;NeXusComponentLocationSpec[NXdetector, SampleRun]:w</title>
<path fill="none" stroke="black" d="M455.5,-320.5C501.99,-320.5 511.61,-291.24 552.77,-287.01"/>
<polygon fill="black" stroke="black" points="553.19,-290.49 563,-286.5 552.84,-283.5 553.19,-290.49"/>
</g>
<!-- NeXusName[NXdetector]&#45;&gt;NeXusDataLocationSpec[NXdetector, SampleRun] -->
<g id="edge37" class="edge">
<title>NeXusName[NXdetector]:e&#45;&gt;NeXusDataLocationSpec[NXdetector, SampleRun]:w</title>
<path fill="none" stroke="black" d="M455.5,-320.5C493.24,-320.5 498.76,-341.42 536,-347.5 873.31,-402.56 965.02,-382.54 1305,-347.5 1333.83,-344.53 1342.44,-335.03 1366.81,-332.92"/>
<polygon fill="black" stroke="black" points="1367.15,-336.41 1377,-332.5 1366.86,-329.41 1367.15,-336.41"/>
</g>
<!-- NeXusComponent[NXsample, SampleRun] -->
<g id="node33" class="node">
<title>NeXusComponent[NXsample, SampleRun]</title>
<polygon fill="none" stroke="black" points="1015,-267 851,-267 851,-236 1015,-236 1015,-267"/>
<text text-anchor="start" x="859" y="-254.4" font-family="Times,serif" font-size="12.00">[NXsample, SampleRun]</text>
<text text-anchor="start" x="868.5" y="-243.2" font-family="Times,serif" font-size="11.00">via:</text>
<text text-anchor="start" x="889.5" y="-243.2" font-family="Times,serif" font-style="italic" font-size="11.00">load_nexus_sample</text>
</g>
<!-- NeXusComponentLocationSpec[NXsample, SampleRun]&#45;&gt;NeXusComponent[NXsample, SampleRun] -->
<g id="edge33" class="edge">
<title>NeXusComponentLocationSpec[NXsample, SampleRun]:e&#45;&gt;NeXusComponent[NXsample, SampleRun]:w</title>
<path fill="none" stroke="black" d="M744,-251.5C787.43,-251.5 800.83,-251.5 839.57,-251.5"/>
<polygon fill="black" stroke="black" points="840,-255 850,-251.5 840,-248 840,-255"/>
</g>
<!-- NeXusComponentLocationSpec[NXsource, SampleRun]&#45;&gt;NeXusComponent[NXsource, SampleRun] -->
<g id="edge34" class="edge">
<title>NeXusComponentLocationSpec[NXsource, SampleRun]:e&#45;&gt;NeXusComponent[NXsource, SampleRun]:w</title>
<path fill="none" stroke="black" d="M744,-216.5C789.64,-216.5 798.63,-186.38 838.97,-182.02"/>
<polygon fill="black" stroke="black" points="839.2,-185.52 849,-181.5 838.83,-178.52 839.2,-185.52"/>
</g>
<!-- NeXusTransformationChain[NXsample, SampleRun] -->
<g id="node39" class="node">
<title>NeXusTransformationChain[NXsample, SampleRun]</title>
<polygon fill="none" stroke="black" points="1279,-253 1115,-253 1115,-232 1279,-232 1279,-253"/>
<text text-anchor="start" x="1123" y="-239.4" font-family="Times,serif" font-size="12.00">[NXsample, SampleRun]</text>
</g>
<!-- NeXusComponent[NXsample, SampleRun]&#45;&gt;NeXusTransformationChain[NXsample, SampleRun] -->
<g id="edge43" class="edge">
<title>NeXusComponent[NXsample, SampleRun]:e&#45;&gt;NeXusTransformationChain[NXsample, SampleRun]:w</title>
<path fill="none" stroke="black" d="M1016,-251.5C1056.15,-251.5 1068.31,-243.92 1103.87,-242.67"/>
<polygon fill="black" stroke="black" points="1104.06,-246.17 1114,-242.5 1103.94,-239.17 1104.06,-246.17"/>
</g>
<!-- NeXusTransformationChain[NXsource, SampleRun] -->
<g id="node40" class="node">
<title>NeXusTransformationChain[NXsource, SampleRun]</title>
<polygon fill="none" stroke="black" points="1277.5,-203 1116.5,-203 1116.5,-182 1277.5,-182 1277.5,-203"/>
<text text-anchor="start" x="1124.5" y="-189.4" font-family="Times,serif" font-size="12.00">[NXsource, SampleRun]</text>
</g>
<!-- NeXusComponent[NXsource, SampleRun]&#45;&gt;NeXusTransformationChain[NXsource, SampleRun] -->
<g id="edge44" class="edge">
<title>NeXusComponent[NXsource, SampleRun]:e&#45;&gt;NeXusTransformationChain[NXsource, SampleRun]:w</title>
<path fill="none" stroke="black" d="M1017,-181.5C1057.23,-181.5 1069.25,-190.77 1104.85,-192.29"/>
<polygon fill="black" stroke="black" points="1104.93,-195.79 1115,-192.5 1105.07,-188.79 1104.93,-195.79"/>
</g>
<!-- NeXusDataLocationSpec[NXdetector, SampleRun]&#45;&gt;NeXusData[NXdetector, SampleRun] -->
<g id="edge39" class="edge">
<title>NeXusDataLocationSpec[NXdetector, SampleRun]:e&#45;&gt;NeXusData[NXdetector, SampleRun]:w</title>
<path fill="none" stroke="black" d="M1751,-332.5C1783.51,-332.5 1786.51,-301.83 1813.03,-295.6"/>
<polygon fill="black" stroke="black" points="1813.44,-299.07 1823,-294.5 1812.68,-292.11 1813.44,-299.07"/>
</g>
<!-- TimeInterval[SampleRun] -->
<g id="node36" class="node">
<title>TimeInterval[SampleRun]</title>
<polygon fill="none" stroke="black" points="1297,-336 1097,-336 1097,-303 1297,-303 1297,-336"/>
<text text-anchor="start" x="1105" y="-321.8" font-family="Times,serif" font-size="14.00">TimeInterval[SampleRun]</text>
<text text-anchor="start" x="1137.5" y="-310.2" font-family="Times,serif" font-size="11.00">via:</text>
<text text-anchor="start" x="1158.5" y="-310.2" font-family="Times,serif" font-style="italic" font-size="11.00">full_time_interval</text>
</g>
<!-- TimeInterval[SampleRun]&#45;&gt;NeXusTransformation[NXdetector, SampleRun] -->
<g id="edge46" class="edge">
<title>TimeInterval[SampleRun]:e&#45;&gt;NeXusTransformation[NXdetector, SampleRun]:w</title>
<path fill="none" stroke="black" d="M1298,-319.5C1350.23,-319.5 1330.93,-257.1 1377,-232.5 1413.9,-212.79 1430.03,-216.67 1467.88,-217.4"/>
<polygon fill="black" stroke="black" points="1467.97,-220.9 1478,-217.5 1468.04,-213.9 1467.97,-220.9"/>
</g>
<!-- TimeInterval[SampleRun]&#45;&gt;NeXusDataLocationSpec[NXdetector, SampleRun] -->
<g id="edge38" class="edge">
<title>TimeInterval[SampleRun]:e&#45;&gt;NeXusDataLocationSpec[NXdetector, SampleRun]:w</title>
<path fill="none" stroke="black" d="M1298,-319.5C1329.97,-319.5 1339.54,-329.99 1366.96,-332.12"/>
<polygon fill="black" stroke="black" points="1366.88,-335.62 1377,-332.5 1367.14,-328.63 1366.88,-335.62"/>
</g>
<!-- NeXusTransformation[NXsample, SampleRun] -->
<g id="node41" class="node">
<title>NeXusTransformation[NXsample, SampleRun]</title>
<polygon fill="none" stroke="black" points="1646,-253 1482,-253 1482,-232 1646,-232 1646,-253"/>
<text text-anchor="start" x="1490" y="-239.4" font-family="Times,serif" font-size="12.00">[NXsample, SampleRun]</text>
</g>
<!-- TimeInterval[SampleRun]&#45;&gt;NeXusTransformation[NXsample, SampleRun] -->
<g id="edge48" class="edge">
<title>TimeInterval[SampleRun]:e&#45;&gt;NeXusTransformation[NXsample, SampleRun]:w</title>
<path fill="none" stroke="black" d="M1298,-319.5C1382.62,-319.5 1392.09,-248.69 1470.54,-242.88"/>
<polygon fill="black" stroke="black" points="1471.13,-246.36 1481,-242.5 1470.88,-239.36 1471.13,-246.36"/>
</g>
<!-- NeXusTransformation[NXsource, SampleRun] -->
<g id="node42" class="node">
<title>NeXusTransformation[NXsource, SampleRun]</title>
<polygon fill="none" stroke="black" points="1644.5,-203 1483.5,-203 1483.5,-182 1644.5,-182 1644.5,-203"/>
<text text-anchor="start" x="1491.5" y="-189.4" font-family="Times,serif" font-size="12.00">[NXsource, SampleRun]</text>
</g>
<!-- TimeInterval[SampleRun]&#45;&gt;NeXusTransformation[NXsource, SampleRun] -->
<g id="edge50" class="edge">
<title>TimeInterval[SampleRun]:e&#45;&gt;NeXusTransformation[NXsource, SampleRun]:w</title>
<path fill="none" stroke="black" d="M1298,-319.5C1358.91,-319.5 1325.04,-239.3 1377,-207.5 1414.22,-184.72 1432.12,-191.26 1471.97,-192.36"/>
<polygon fill="black" stroke="black" points="1471.95,-195.86 1482,-192.5 1472.05,-188.86 1471.95,-195.86"/>
</g>
<!-- PreopenNeXusFile -->
<g id="node37" class="node">
<title>PreopenNeXusFile</title>
<polygon fill="none" stroke="black" points="162,-233 13,-233 13,-210 162,-210 162,-233"/>
<text text-anchor="middle" x="87.5" y="-217.8" font-family="Times,serif" font-size="14.00">PreopenNeXusFile</text>
</g>
<!-- PreopenNeXusFile&#45;&gt;NeXusFileSpec[SampleRun] -->
<g id="edge41" class="edge">
<title>PreopenNeXusFile:e&#45;&gt;NeXusFileSpec[SampleRun]:w</title>
<path fill="none" stroke="black" d="M162.5,-221.5C196.79,-221.5 207.06,-232.08 236.66,-234.15"/>
<polygon fill="black" stroke="black" points="236.89,-237.66 247,-234.5 237.12,-230.67 236.89,-237.66"/>
</g>
<!-- NeXusTransformationChain[NXdetector, SampleRun]&#45;&gt;NeXusTransformation[NXdetector, SampleRun] -->
<g id="edge45" class="edge">
<title>NeXusTransformationChain[NXdetector, SampleRun]:e&#45;&gt;NeXusTransformation[NXdetector, SampleRun]:w</title>
<path fill="none" stroke="black" d="M1283,-217.5C1366.11,-217.5 1389.45,-217.5 1467.66,-217.5"/>
<polygon fill="black" stroke="black" points="1468,-221 1478,-217.5 1468,-214 1468,-221"/>
</g>
<!-- NeXusTransformationChain[NXsample, SampleRun]&#45;&gt;NeXusTransformation[NXsample, SampleRun] -->
<g id="edge47" class="edge">
<title>NeXusTransformationChain[NXsample, SampleRun]:e&#45;&gt;NeXusTransformation[NXsample, SampleRun]:w</title>
<path fill="none" stroke="black" d="M1280,-242.5C1365.84,-242.5 1389.82,-242.5 1470.83,-242.5"/>
<polygon fill="black" stroke="black" points="1471,-246 1481,-242.5 1471,-239 1471,-246"/>
</g>
<!-- NeXusTransformationChain[NXsource, SampleRun]&#45;&gt;NeXusTransformation[NXsource, SampleRun] -->
<g id="edge49" class="edge">
<title>NeXusTransformationChain[NXsource, SampleRun]:e&#45;&gt;NeXusTransformation[NXsource, SampleRun]:w</title>
<path fill="none" stroke="black" d="M1279,-192.5C1365.79,-192.5 1389.96,-192.5 1471.98,-192.5"/>
<polygon fill="black" stroke="black" points="1472,-196 1482,-192.5 1472,-189 1472,-196"/>
</g>
<!-- NeXusTransformation[NXsample, SampleRun]&#45;&gt;Position[NXsample, SampleRun] -->
<g id="edge51" class="edge">
<title>NeXusTransformation[NXsample, SampleRun]:e&#45;&gt;Position[NXsample, SampleRun]:w</title>
<path fill="none" stroke="black" d="M1647,-242.5C1747.26,-242.5 1773.57,-219.13 1868.93,-217.58"/>
<polygon fill="black" stroke="black" points="1869.03,-221.08 1879,-217.5 1868.97,-214.08 1869.03,-221.08"/>
</g>
<!-- NeXusTransformation[NXsource, SampleRun]&#45;&gt;Position[NXsource, SampleRun] -->
<g id="edge52" class="edge">
<title>NeXusTransformation[NXsource, SampleRun]:e&#45;&gt;Position[NXsource, SampleRun]:w</title>
<path fill="none" stroke="black" d="M1646,-192.5C1746.55,-192.5 1774.19,-192.5 1869.89,-192.5"/>
<polygon fill="black" stroke="black" points="1870,-196 1880,-192.5 1870,-189 1870,-196"/>
</g>
<!-- TimeOfFlightLookupTableFilename -->
<g id="node43" class="node">
<title>TimeOfFlightLookupTableFilename</title>
<polygon fill="none" stroke="black" points="3161,-253 2894,-253 2894,-230 3161,-230 3161,-253"/>
<text text-anchor="middle" x="3027.5" y="-237.8" font-family="Times,serif" font-size="14.00">TimeOfFlightLookupTableFilename</text>
</g>
<!-- TimeOfFlightLookupTableFilename&#45;&gt;TimeOfFlightLookupTable -->
<g id="edge54" class="edge">
<title>TimeOfFlightLookupTableFilename:e&#45;&gt;TimeOfFlightLookupTable:w</title>
<path fill="none" stroke="black" d="M3162.5,-241.5C3220.03,-241.5 3236.94,-241.5 3289.71,-241.5"/>
<polygon fill="black" stroke="black" points="3290,-245 3300,-241.5 3290,-238 3290,-245"/>
</g>
</g>
</svg>
