<?xml version="1.0" encoding="UTF-8" standalone="no"?>
<!DOCTYPE svg PUBLIC "-//W3C//DTD SVG 1.1//EN"
 "http://www.w3.org/Graphics/SVG/1.1/DTD/svg11.dtd">
<!-- Generated by graphviz version 2.43.0 (0)
 -->
<!-- Title: %3 Pages: 1 -->
<svg width="4070pt" height="370pt"
 viewBox="0.00 0.00 4070.00 369.50" xmlns="http://www.w3.org/2000/svg" xmlns:xlink="http://www.w3.org/1999/xlink">
<g id="graph0" class="graph" transform="scale(1 1) rotate(0) translate(4 365.5)">
<title>%3</title>
<polygon fill="white" stroke="transparent" points="-4,4 -4,-365.5 4066,-365.5 4066,4 -4,4"/>
<g id="clust12" class="cluster">
<title>cluster_NeXusClass</title>
<polygon fill="#f0f0ff" stroke="#f0f0ff" points="551,-247.5 551,-353.5 761,-353.5 761,-247.5 551,-247.5"/>
<text text-anchor="middle" x="656" y="-338.3" font-family="Times,serif" font-size="14.00">NeXusClass</text>
</g>
<g id="clust21" class="cluster">
<title>cluster_Position</title>
<polygon fill="#f0f0ff" stroke="#f0f0ff" points="2555.5,-174.5 2555.5,-270.5 2735.5,-270.5 2735.5,-174.5 2555.5,-174.5"/>
<text text-anchor="start" x="2616.5" y="-256.3" font-family="Times,serif" font-size="14.00">Position</text>
<text text-anchor="start" x="2585.5" y="-244.7" font-family="Times,serif" font-size="11.00">via:</text>
<text text-anchor="start" x="2606.5" y="-244.7" font-family="Times,serif" font-style="italic" font-size="11.00">compute_position</text>
</g>
<g id="clust13" class="cluster">
<title>cluster_NeXusComponentLocationSpec</title>
<polygon fill="#f0f0ff" stroke="#f0f0ff" points="536,-98.5 536,-239.5 776,-239.5 776,-98.5 536,-98.5"/>
<text text-anchor="middle" x="656" y="-224.3" font-family="Times,serif" font-size="14.00">NeXusComponentLocationSpec</text>
</g>
<g id="clust14" class="cluster">
<title>cluster_NeXusComponent</title>
<polygon fill="#f0f0ff" stroke="#f0f0ff" points="840,-152.5 840,-293.5 1026,-293.5 1026,-152.5 840,-152.5"/>
<text text-anchor="middle" x="933" y="-278.3" font-family="Times,serif" font-size="14.00">NeXusComponent</text>
</g>
<g id="clust19" class="cluster">
<title>cluster_NeXusTransformationChain</title>
<polygon fill="#f0f0ff" stroke="#f0f0ff" points="1090,-177.5 1090,-298.5 1305,-298.5 1305,-177.5 1090,-177.5"/>
<text text-anchor="start" x="1098" y="-284.3" font-family="Times,serif" font-size="14.00">NeXusTransformationChain</text>
<text text-anchor="start" x="1115.5" y="-272.7" font-family="Times,serif" font-size="11.00">via:</text>
<text text-anchor="start" x="1136.5" y="-272.7" font-family="Times,serif" font-style="italic" font-size="11.00">get_transformation_chain</text>
</g>
<g id="clust20" class="cluster">
<title>cluster_NeXusTransformation</title>
<polygon fill="#f0f0ff" stroke="#f0f0ff" points="1471,-177.5 1471,-298.5 1657,-298.5 1657,-177.5 1471,-177.5"/>
<text text-anchor="start" x="1485.5" y="-284.3" font-family="Times,serif" font-size="14.00">NeXusTransformation</text>
<text text-anchor="start" x="1503" y="-272.7" font-family="Times,serif" font-size="11.00">via:</text>
<text text-anchor="start" x="1524" y="-272.7" font-family="Times,serif" font-style="italic" font-size="11.00">to_transformation</text>
</g>
<!-- QDetector[SampleRun] -->
<g id="node1" class="node">
<title>QDetector[SampleRun]</title>
<polygon fill="none" stroke="black" points="3704,-187 3522,-187 3522,-154 3704,-154 3704,-187"/>
<text text-anchor="start" x="3530" y="-172.8" font-family="Times,serif" font-size="14.00">QDetector[SampleRun]</text>
<text text-anchor="start" x="3557" y="-161.2" font-family="Times,serif" font-size="11.00">via:</text>
<text text-anchor="start" x="3578" y="-161.2" font-family="Times,serif" font-style="italic" font-size="11.00">convert_tof_to_q</text>
</g>
<!-- CountsWithQMapCoords[SampleRun] -->
<g id="node2" class="node">
<title>CountsWithQMapCoords[SampleRun]</title>
<polygon fill="none" stroke="black" points="4062,-168 3776,-168 3776,-135 4062,-135 4062,-168"/>
<text text-anchor="start" x="3784" y="-153.8" font-family="Times,serif" font-size="14.00">CountsWithQMapCoords[SampleRun]</text>
<text text-anchor="start" x="3829" y="-142.2" font-family="Times,serif" font-size="11.00">via:</text>
<text text-anchor="start" x="3850" y="-142.2" font-family="Times,serif" font-style="italic" font-size="11.00">project_momentum_transfer</text>
</g>
<!-- QDetector[SampleRun]&#45;&gt;CountsWithQMapCoords[SampleRun] -->
<g id="edge1" class="edge">
<title>QDetector[SampleRun]:e&#45;&gt;CountsWithQMapCoords[SampleRun]:w</title>
<path fill="none" stroke="black" d="M3704,-170.5C3733.35,-170.5 3741.24,-155.56 3765.72,-152.18"/>
<polygon fill="black" stroke="black" points="3766.25,-155.65 3776,-151.5 3765.79,-148.66 3766.25,-155.65"/>
</g>
<!-- QProjection -->
<g id="node3" class="node">
<title>QProjection</title>
<polygon fill="none" stroke="black" points="3688.5,-150 3537.5,-150 3537.5,-117 3688.5,-117 3688.5,-150"/>
<text text-anchor="start" x="3570.5" y="-135.8" font-family="Times,serif" font-size="14.00">QProjection</text>
<text text-anchor="start" x="3545.5" y="-124.2" font-family="Times,serif" font-size="11.00">via:</text>
<text text-anchor="start" x="3566.5" y="-124.2" font-family="Times,serif" font-style="italic" font-size="11.00">default_q_projection</text>
</g>
<!-- QProjection&#45;&gt;CountsWithQMapCoords[SampleRun] -->
<g id="edge2" class="edge">
<title>QProjection:e&#45;&gt;CountsWithQMapCoords[SampleRun]:w</title>
<path fill="none" stroke="black" d="M3690,-133.5C3725.39,-133.5 3735.19,-148.28 3765.79,-151.06"/>
<polygon fill="black" stroke="black" points="3765.86,-154.56 3776,-151.5 3766.16,-147.57 3765.86,-154.56"/>
</g>
<!-- RawDetector[SampleRun] -->
<g id="node4" class="node">
<title>RawDetector[SampleRun]</title>
<polygon fill="none" stroke="black" points="2791,-95 2500,-95 2500,-62 2791,-62 2791,-95"/>
<text text-anchor="start" x="2552.5" y="-80.8" font-family="Times,serif" font-size="14.00">RawDetector[SampleRun]</text>
<text text-anchor="start" x="2508" y="-69.2" font-family="Times,serif" font-size="11.00">via:</text>
<text text-anchor="start" x="2529" y="-69.2" font-family="Times,serif" font-style="italic" font-size="11.00">convert_simulated_time_to_event_time_offset</text>
</g>
<!-- DataGroupedByRotation[SampleRun] -->
<g id="node5" class="node">
<title>DataGroupedByRotation[SampleRun]</title>
<polygon fill="none" stroke="black" points="3164.5,-82 2880.5,-82 2880.5,-49 3164.5,-49 3164.5,-82"/>
<text text-anchor="start" x="2888.5" y="-67.8" font-family="Times,serif" font-size="14.00">DataGroupedByRotation[SampleRun]</text>
<text text-anchor="start" x="2961.5" y="-56.2" font-family="Times,serif" font-size="11.00">via:</text>
<text text-anchor="start" x="2982.5" y="-56.2" font-family="Times,serif" font-style="italic" font-size="11.00">group_by_rotation</text>
</g>
<!-- RawDetector[SampleRun]&#45;&gt;DataGroupedByRotation[SampleRun] -->
<g id="edge3" class="edge">
<title>RawDetector[SampleRun]:e&#45;&gt;DataGroupedByRotation[SampleRun]:w</title>
<path fill="none" stroke="black" d="M2791,-78.5C2827.18,-78.5 2837.88,-67.73 2869.49,-65.8"/>
<polygon fill="black" stroke="black" points="2869.61,-69.29 2879.5,-65.5 2869.4,-62.3 2869.61,-69.29"/>
</g>
<!-- DetectorLtotal[SampleRun] -->
<g id="node9" class="node">
<title>DetectorLtotal[SampleRun]</title>
<polygon fill="none" stroke="black" points="3179.5,-165 2865.5,-165 2865.5,-132 3179.5,-132 3179.5,-165"/>
<text text-anchor="start" x="2924" y="-150.8" font-family="Times,serif" font-size="14.00">DetectorLtotal[SampleRun]</text>
<text text-anchor="start" x="2873.5" y="-139.2" font-family="Times,serif" font-size="11.00">via:</text>
<text text-anchor="start" x="2894.5" y="-139.2" font-family="Times,serif" font-style="italic" font-size="11.00">detector_ltotal_from_straight_line_approximation</text>
</g>
<!-- RawDetector[SampleRun]&#45;&gt;DetectorLtotal[SampleRun] -->
<g id="edge6" class="edge">
<title>RawDetector[SampleRun]:e&#45;&gt;DetectorLtotal[SampleRun]:w</title>
<path fill="none" stroke="black" d="M2791,-78.5C2832.41,-78.5 2821.72,-137.49 2854.58,-147.16"/>
<polygon fill="black" stroke="black" points="2854.12,-150.63 2864.5,-148.5 2855.06,-143.7 2854.12,-150.63"/>
</g>
<!-- TofDetector[SampleRun] -->
<g id="node40" class="node">
<title>TofDetector[SampleRun]</title>
<polygon fill="none" stroke="black" points="3450,-165 3254,-165 3254,-132 3450,-132 3450,-165"/>
<text text-anchor="start" x="3263.5" y="-150.8" font-family="Times,serif" font-size="14.00">TofDetector[SampleRun]</text>
<text text-anchor="start" x="3262" y="-139.2" font-family="Times,serif" font-size="11.00">via:</text>
<text text-anchor="start" x="3283" y="-139.2" font-family="Times,serif" font-style="italic" font-size="11.00">detector_time_of_flight_data</text>
</g>
<!-- DataGroupedByRotation[SampleRun]&#45;&gt;TofDetector[SampleRun] -->
<g id="edge52" class="edge">
<title>DataGroupedByRotation[SampleRun]:e&#45;&gt;TofDetector[SampleRun]:w</title>
<path fill="none" stroke="black" d="M3165.5,-65.5C3215.74,-65.5 3202.38,-137.54 3243.92,-147.39"/>
<polygon fill="black" stroke="black" points="3243.68,-150.88 3254,-148.5 3244.44,-143.93 3243.68,-150.88"/>
</g>
<!-- SampleAngle[SampleRun] -->
<g id="node6" class="node">
<title>SampleAngle[SampleRun]</title>
<polygon fill="none" stroke="black" points="757.5,-70 554.5,-70 554.5,-37 757.5,-37 757.5,-70"/>
<text text-anchor="start" x="562.5" y="-55.8" font-family="Times,serif" font-size="14.00">SampleAngle[SampleRun]</text>
<text text-anchor="start" x="592.5" y="-44.2" font-family="Times,serif" font-size="11.00">via:</text>
<text text-anchor="start" x="613.5" y="-44.2" font-family="Times,serif" font-style="italic" font-size="11.00">load_sample_angle</text>
</g>
<!-- SampleAngle[SampleRun]&#45;&gt;DataGroupedByRotation[SampleRun] -->
<g id="edge4" class="edge">
<title>SampleAngle[SampleRun]:e&#45;&gt;DataGroupedByRotation[SampleRun]:w</title>
<path fill="none" stroke="black" d="M758,-53.5C952.67,-53.5 1001.33,-53.5 1196,-53.5 1196,-53.5 1196,-53.5 2301.5,-53.5 2519.08,-53.5 2573.56,-52.81 2791,-60.5 2826.68,-61.76 2838.02,-64.84 2869.15,-65.41"/>
<polygon fill="black" stroke="black" points="2869.47,-68.91 2879.5,-65.5 2869.53,-61.91 2869.47,-68.91"/>
</g>
<!-- InstrumentAngle[SampleRun] -->
<g id="node7" class="node">
<title>InstrumentAngle[SampleRun]</title>
<polygon fill="none" stroke="black" points="771,-33 541,-33 541,0 771,0 771,-33"/>
<text text-anchor="start" x="549" y="-18.8" font-family="Times,serif" font-size="14.00">InstrumentAngle[SampleRun]</text>
<text text-anchor="start" x="582" y="-7.2" font-family="Times,serif" font-size="11.00">via:</text>
<text text-anchor="start" x="603" y="-7.2" font-family="Times,serif" font-style="italic" font-size="11.00">load_instrument_angle</text>
</g>
<!-- InstrumentAngle[SampleRun]&#45;&gt;DataGroupedByRotation[SampleRun] -->
<g id="edge5" class="edge">
<title>InstrumentAngle[SampleRun]:e&#45;&gt;DataGroupedByRotation[SampleRun]:w</title>
<path fill="none" stroke="black" d="M772,-16.5C960.55,-16.5 1007.45,-30.5 1196,-30.5 1196,-30.5 1196,-30.5 2301.5,-30.5 2519.28,-30.5 2574.21,-31.76 2791,-52.5 2827.02,-55.95 2837.85,-63.89 2869.48,-65.29"/>
<polygon fill="black" stroke="black" points="2869.43,-68.79 2879.5,-65.5 2869.58,-61.79 2869.43,-68.79"/>
</g>
<!-- DetectorBankSizes -->
<g id="node8" class="node">
<title>DetectorBankSizes</title>
<polygon fill="none" stroke="black" points="1640,-169 1488,-169 1488,-146 1640,-146 1640,-169"/>
<text text-anchor="middle" x="1564" y="-153.8" font-family="Times,serif" font-size="14.00">DetectorBankSizes</text>
</g>
<!-- EmptyDetector[SampleRun] -->
<g id="node16" class="node">
<title>EmptyDetector[SampleRun]</title>
<polygon fill="none" stroke="black" points="2071,-142 1853,-142 1853,-109 2071,-109 2071,-142"/>
<text text-anchor="start" x="1861" y="-127.8" font-family="Times,serif" font-size="14.00">EmptyDetector[SampleRun]</text>
<text text-anchor="start" x="1885" y="-116.2" font-family="Times,serif" font-size="11.00">via:</text>
<text text-anchor="start" x="1906" y="-116.2" font-family="Times,serif" font-style="italic" font-size="11.00">get_calibrated_detector</text>
</g>
<!-- DetectorBankSizes&#45;&gt;EmptyDetector[SampleRun] -->
<g id="edge16" class="edge">
<title>DetectorBankSizes:e&#45;&gt;EmptyDetector[SampleRun]:w</title>
<path fill="none" stroke="black" d="M1641,-157.5C1690.34,-157.5 1702.22,-149.93 1751,-142.5 1792.49,-136.18 1804.63,-127.07 1841.94,-125.68"/>
<polygon fill="black" stroke="black" points="1842.06,-129.18 1852,-125.5 1841.94,-122.18 1842.06,-129.18"/>
</g>
<!-- DetectorLtotal[SampleRun]&#45;&gt;TofDetector[SampleRun] -->
<g id="edge54" class="edge">
<title>DetectorLtotal[SampleRun]:e&#45;&gt;TofDetector[SampleRun]:w</title>
<path fill="none" stroke="black" d="M3180.5,-148.5C3209.47,-148.5 3219.17,-148.5 3243.77,-148.5"/>
<polygon fill="black" stroke="black" points="3244,-152 3254,-148.5 3244,-145 3244,-152"/>
</g>
<!-- Position[NXsource, SampleRun] -->
<g id="node10" class="node">
<title>Position[NXsource, SampleRun]</title>
<polygon fill="none" stroke="black" points="2726,-229 2565,-229 2565,-208 2726,-208 2726,-229"/>
<text text-anchor="start" x="2573" y="-215.4" font-family="Times,serif" font-size="12.00">[NXsource, SampleRun]</text>
</g>
<!-- Position[NXsource, SampleRun]&#45;&gt;DetectorLtotal[SampleRun] -->
<g id="edge7" class="edge">
<title>Position[NXsource, SampleRun]:e&#45;&gt;DetectorLtotal[SampleRun]:w</title>
<path fill="none" stroke="black" d="M2727.5,-218.5C2756.4,-218.5 2764.78,-216.65 2791,-204.5 2824.91,-188.78 2823.96,-155.29 2854.48,-149.39"/>
<polygon fill="black" stroke="black" points="2854.85,-152.88 2864.5,-148.5 2854.23,-145.9 2854.85,-152.88"/>
</g>
<!-- ElasticCoordTransformGraph[SampleRun] -->
<g id="node14" class="node">
<title>ElasticCoordTransformGraph[SampleRun]</title>
<polygon fill="none" stroke="black" points="3182,-229 2863,-229 2863,-196 3182,-196 3182,-229"/>
<text text-anchor="start" x="2871" y="-214.8" font-family="Times,serif" font-size="14.00">ElasticCoordTransformGraph[SampleRun]</text>
<text text-anchor="start" x="2877" y="-203.2" font-family="Times,serif" font-size="11.00">via:</text>
<text text-anchor="start" x="2898" y="-203.2" font-family="Times,serif" font-style="italic" font-size="11.00">single_crystal_coordinate_transformation_graph</text>
</g>
<!-- Position[NXsource, SampleRun]&#45;&gt;ElasticCoordTransformGraph[SampleRun] -->
<g id="edge10" class="edge">
<title>Position[NXsource, SampleRun]:e&#45;&gt;ElasticCoordTransformGraph[SampleRun]:w</title>
<path fill="none" stroke="black" d="M2727.5,-218.5C2784.25,-218.5 2800.81,-213.18 2852.85,-212.56"/>
<polygon fill="black" stroke="black" points="2853.02,-216.06 2863,-212.5 2852.98,-209.06 2853.02,-216.06"/>
</g>
<!-- Position[NXsample, SampleRun] -->
<g id="node11" class="node">
<title>Position[NXsample, SampleRun]</title>
<polygon fill="none" stroke="black" points="2727.5,-204 2563.5,-204 2563.5,-183 2727.5,-183 2727.5,-204"/>
<text text-anchor="start" x="2571.5" y="-190.4" font-family="Times,serif" font-size="12.00">[NXsample, SampleRun]</text>
</g>
<!-- Position[NXsample, SampleRun]&#45;&gt;DetectorLtotal[SampleRun] -->
<g id="edge8" class="edge">
<title>Position[NXsample, SampleRun]:e&#45;&gt;DetectorLtotal[SampleRun]:w</title>
<path fill="none" stroke="black" d="M2728.5,-193.5C2788.56,-193.5 2799.67,-153.45 2854.19,-148.92"/>
<polygon fill="black" stroke="black" points="2854.65,-152.4 2864.5,-148.5 2854.37,-145.41 2854.65,-152.4"/>
</g>
<!-- Position[NXsample, SampleRun]&#45;&gt;ElasticCoordTransformGraph[SampleRun] -->
<g id="edge11" class="edge">
<title>Position[NXsample, SampleRun]:e&#45;&gt;ElasticCoordTransformGraph[SampleRun]:w</title>
<path fill="none" stroke="black" d="M2728.5,-193.5C2785.33,-193.5 2800.86,-210.34 2852.85,-212.31"/>
<polygon fill="black" stroke="black" points="2852.94,-215.81 2863,-212.5 2853.07,-208.82 2852.94,-215.81"/>
</g>
<!-- GravityVector -->
<g id="node12" class="node">
<title>GravityVector</title>
<polygon fill="none" stroke="black" points="2722.5,-166 2568.5,-166 2568.5,-133 2722.5,-133 2722.5,-166"/>
<text text-anchor="start" x="2595.5" y="-151.8" font-family="Times,serif" font-size="14.00">GravityVector</text>
<text text-anchor="start" x="2576.5" y="-140.2" font-family="Times,serif" font-size="11.00">via:</text>
<text text-anchor="start" x="2597.5" y="-140.2" font-family="Times,serif" font-style="italic" font-size="11.00">gravity_vector_neg_y</text>
</g>
<!-- GravityVector&#45;&gt;DetectorLtotal[SampleRun] -->
<g id="edge9" class="edge">
<title>GravityVector:e&#45;&gt;DetectorLtotal[SampleRun]:w</title>
<path fill="none" stroke="black" d="M2723.5,-149.5C2782.62,-149.5 2799.91,-148.61 2854.29,-148.51"/>
<polygon fill="black" stroke="black" points="2854.5,-152.01 2864.5,-148.5 2854.5,-145.01 2854.5,-152.01"/>
</g>
<!-- GravityVector&#45;&gt;ElasticCoordTransformGraph[SampleRun] -->
<g id="edge12" class="edge">
<title>GravityVector:e&#45;&gt;ElasticCoordTransformGraph[SampleRun]:w</title>
<path fill="none" stroke="black" d="M2723.5,-149.5C2755.34,-149.5 2761.91,-160.55 2791,-173.5 2820.87,-186.8 2825.81,-207.68 2852.9,-211.79"/>
<polygon fill="black" stroke="black" points="2852.78,-215.29 2863,-212.5 2853.27,-208.3 2852.78,-215.29"/>
</g>
<!-- DetectorPositionOffset[SampleRun] -->
<g id="node13" class="node">
<title>DetectorPositionOffset[SampleRun]</title>
<polygon fill="none" stroke="black" points="1699.5,-142 1428.5,-142 1428.5,-109 1699.5,-109 1699.5,-142"/>
<text text-anchor="start" x="1436.5" y="-127.8" font-family="Times,serif" font-size="14.00">DetectorPositionOffset[SampleRun]</text>
<text text-anchor="start" x="1476.5" y="-116.2" font-family="Times,serif" font-size="11.00">via:</text>
<text text-anchor="start" x="1497.5" y="-116.2" font-family="Times,serif" font-style="italic" font-size="11.00">no_detector_position_offset</text>
</g>
<!-- DetectorPositionOffset[SampleRun]&#45;&gt;EmptyDetector[SampleRun] -->
<g id="edge15" class="edge">
<title>DetectorPositionOffset[SampleRun]:e&#45;&gt;EmptyDetector[SampleRun]:w</title>
<path fill="none" stroke="black" d="M1701,-125.5C1764.57,-125.5 1782.98,-125.5 1841.79,-125.5"/>
<polygon fill="black" stroke="black" points="1842,-129 1852,-125.5 1842,-122 1842,-129"/>
</g>
<!-- ElasticCoordTransformGraph[SampleRun]&#45;&gt;QDetector[SampleRun] -->
<g id="edge47" class="edge">
<title>ElasticCoordTransformGraph[SampleRun]:e&#45;&gt;QDetector[SampleRun]:w</title>
<path fill="none" stroke="black" d="M3182,-212.5C3330.84,-212.5 3368.09,-172.37 3511.91,-170.56"/>
<polygon fill="black" stroke="black" points="3512.02,-174.06 3522,-170.5 3511.98,-167.06 3512.02,-174.06"/>
</g>
<!-- NeXusComponent[NXdetector, SampleRun] -->
<g id="node15" class="node">
<title>NeXusComponent[NXdetector, SampleRun]</title>
<polygon fill="none" stroke="black" points="1018,-227 848,-227 848,-196 1018,-196 1018,-227"/>
<text text-anchor="start" x="856" y="-214.4" font-family="Times,serif" font-size="12.00">[NXdetector, SampleRun]</text>
<text text-anchor="start" x="858" y="-203.2" font-family="Times,serif" font-size="11.00">via:</text>
<text text-anchor="start" x="879" y="-203.2" font-family="Times,serif" font-style="italic" font-size="11.00">load_nexus_component</text>
</g>
<!-- NeXusComponent[NXdetector, SampleRun]&#45;&gt;EmptyDetector[SampleRun] -->
<g id="edge13" class="edge">
<title>NeXusComponent[NXdetector, SampleRun]:e&#45;&gt;EmptyDetector[SampleRun]:w</title>
<path fill="none" stroke="black" d="M1019,-211.5C1065.55,-211.5 1048.25,-155.09 1090,-134.5 1155.92,-101.99 1677.75,-102.38 1751,-108.5 1792.82,-111.99 1804.68,-123.49 1841.95,-125.27"/>
<polygon fill="black" stroke="black" points="1841.92,-128.77 1852,-125.5 1842.08,-121.77 1841.92,-128.77"/>
</g>
<!-- NeXusTransformationChain[NXdetector, SampleRun] -->
<g id="node33" class="node">
<title>NeXusTransformationChain[NXdetector, SampleRun]</title>
<polygon fill="none" stroke="black" points="1282,-232 1112,-232 1112,-211 1282,-211 1282,-232"/>
<text text-anchor="start" x="1120" y="-218.4" font-family="Times,serif" font-size="12.00">[NXdetector, SampleRun]</text>
</g>
<!-- NeXusComponent[NXdetector, SampleRun]&#45;&gt;NeXusTransformationChain[NXdetector, SampleRun] -->
<g id="edge35" class="edge">
<title>NeXusComponent[NXdetector, SampleRun]:e&#45;&gt;NeXusTransformationChain[NXdetector, SampleRun]:w</title>
<path fill="none" stroke="black" d="M1019,-211.5C1056.43,-211.5 1067.87,-219.78 1100.63,-221.27"/>
<polygon fill="black" stroke="black" points="1100.93,-224.78 1111,-221.5 1101.08,-217.78 1100.93,-224.78"/>
</g>
<!-- McStasRawDetector[SampleRun] -->
<g id="node20" class="node">
<title>McStasRawDetector[SampleRun]</title>
<polygon fill="none" stroke="black" points="2428,-124 2173,-124 2173,-91 2428,-91 2428,-124"/>
<text text-anchor="start" x="2181" y="-109.8" font-family="Times,serif" font-size="14.00">McStasRawDetector[SampleRun]</text>
<text text-anchor="start" x="2201" y="-98.2" font-family="Times,serif" font-size="11.00">via:</text>
<text text-anchor="start" x="2222" y="-98.2" font-family="Times,serif" font-style="italic" font-size="11.00">assemble_detector_data_flatten</text>
</g>
<!-- EmptyDetector[SampleRun]&#45;&gt;McStasRawDetector[SampleRun] -->
<g id="edge18" class="edge">
<title>EmptyDetector[SampleRun]:e&#45;&gt;McStasRawDetector[SampleRun]:w</title>
<path fill="none" stroke="black" d="M2072,-125.5C2114.03,-125.5 2125.65,-110.2 2162.93,-107.81"/>
<polygon fill="black" stroke="black" points="2163.11,-111.31 2173,-107.5 2162.9,-104.31 2163.11,-111.31"/>
</g>
<!-- NeXusTransformation[NXdetector, SampleRun] -->
<g id="node17" class="node">
<title>NeXusTransformation[NXdetector, SampleRun]</title>
<polygon fill="none" stroke="black" points="1649,-232 1479,-232 1479,-211 1649,-211 1649,-232"/>
<text text-anchor="start" x="1487" y="-218.4" font-family="Times,serif" font-size="12.00">[NXdetector, SampleRun]</text>
</g>
<!-- NeXusTransformation[NXdetector, SampleRun]&#45;&gt;EmptyDetector[SampleRun] -->
<g id="edge14" class="edge">
<title>NeXusTransformation[NXdetector, SampleRun]:e&#45;&gt;EmptyDetector[SampleRun]:w</title>
<path fill="none" stroke="black" d="M1650,-221.5C1695.32,-221.5 1709.43,-225.56 1751,-207.5 1800.72,-185.9 1795.17,-132.73 1841.92,-126.17"/>
<polygon fill="black" stroke="black" points="1842.25,-129.65 1852,-125.5 1841.79,-122.67 1842.25,-129.65"/>
</g>
<!-- Filename[SampleRun] -->
<g id="node18" class="node">
<title>Filename[SampleRun]</title>
<polygon fill="none" stroke="black" points="175,-125 0,-125 0,-102 175,-102 175,-125"/>
<text text-anchor="middle" x="87.5" y="-109.8" font-family="Times,serif" font-size="14.00">Filename[SampleRun]</text>
</g>
<!-- NeXusFileSpec[SampleRun] -->
<g id="node19" class="node">
<title>NeXusFileSpec[SampleRun]</title>
<polygon fill="none" stroke="black" points="464,-116 247,-116 247,-83 464,-83 464,-116"/>
<text text-anchor="start" x="255" y="-101.8" font-family="Times,serif" font-size="14.00">NeXusFileSpec[SampleRun]</text>
<text text-anchor="start" x="285.5" y="-90.2" font-family="Times,serif" font-size="11.00">via:</text>
<text text-anchor="start" x="306.5" y="-90.2" font-family="Times,serif" font-style="italic" font-size="11.00">file_path_to_file_spec</text>
</g>
<!-- Filename[SampleRun]&#45;&gt;NeXusFileSpec[SampleRun] -->
<g id="edge33" class="edge">
<title>Filename[SampleRun]:e&#45;&gt;NeXusFileSpec[SampleRun]:w</title>
<path fill="none" stroke="black" d="M175,-113.5C203.91,-113.5 212.53,-102.49 236.84,-100"/>
<polygon fill="black" stroke="black" points="237.18,-103.49 247,-99.5 236.84,-96.49 237.18,-103.49"/>
</g>
<!-- NeXusFileSpec[SampleRun]&#45;&gt;SampleAngle[SampleRun] -->
<g id="edge50" class="edge">
<title>NeXusFileSpec[SampleRun]:e&#45;&gt;SampleAngle[SampleRun]:w</title>
<path fill="none" stroke="black" d="M464,-99.5C505.24,-99.5 508.75,-60.74 543.8,-54.38"/>
<polygon fill="black" stroke="black" points="544.34,-57.84 554,-53.5 543.74,-50.87 544.34,-57.84"/>
</g>
<!-- NeXusFileSpec[SampleRun]&#45;&gt;InstrumentAngle[SampleRun] -->
<g id="edge17" class="edge">
<title>NeXusFileSpec[SampleRun]:e&#45;&gt;InstrumentAngle[SampleRun]:w</title>
<path fill="none" stroke="black" d="M464,-99.5C510.31,-99.5 493.14,-28.36 530.03,-17.8"/>
<polygon fill="black" stroke="black" points="530.54,-21.27 540,-16.5 529.63,-14.33 530.54,-21.27"/>
</g>
<!-- NeXusComponentLocationSpec[NXdetector, SampleRun] -->
<g id="node24" class="node">
<title>NeXusComponentLocationSpec[NXdetector, SampleRun]</title>
<polygon fill="none" stroke="black" points="748,-208 564,-208 564,-177 748,-177 748,-208"/>
<text text-anchor="start" x="579" y="-195.4" font-family="Times,serif" font-size="12.00">[NXdetector, SampleRun]</text>
<text text-anchor="start" x="572" y="-184.2" font-family="Times,serif" font-size="11.00">via:</text>
<text text-anchor="start" x="593" y="-184.2" font-family="Times,serif" font-style="italic" font-size="11.00">component_spec_by_name</text>
</g>
<!-- NeXusFileSpec[SampleRun]&#45;&gt;NeXusComponentLocationSpec[NXdetector, SampleRun] -->
<g id="edge20" class="edge">
<title>NeXusFileSpec[SampleRun]:e&#45;&gt;NeXusComponentLocationSpec[NXdetector, SampleRun]:w</title>
<path fill="none" stroke="black" d="M464,-99.5C520.71,-99.5 504.96,-181.58 552.9,-191.52"/>
<polygon fill="black" stroke="black" points="552.71,-195.02 563,-192.5 553.39,-188.05 552.71,-195.02"/>
</g>
<!-- NeXusComponentLocationSpec[NXsample, SampleRun] -->
<g id="node26" class="node">
<title>NeXusComponentLocationSpec[NXsample, SampleRun]</title>
<polygon fill="none" stroke="black" points="742.5,-138 569.5,-138 569.5,-107 742.5,-107 742.5,-138"/>
<text text-anchor="start" x="582" y="-125.4" font-family="Times,serif" font-size="12.00">[NXsample, SampleRun]</text>
<text text-anchor="start" x="577.5" y="-114.2" font-family="Times,serif" font-size="11.00">via:</text>
<text text-anchor="start" x="598.5" y="-114.2" font-family="Times,serif" font-style="italic" font-size="11.00">unique_component_spec</text>
</g>
<!-- NeXusFileSpec[SampleRun]&#45;&gt;NeXusComponentLocationSpec[NXsample, SampleRun] -->
<g id="edge22" class="edge">
<title>NeXusFileSpec[SampleRun]:e&#45;&gt;NeXusComponentLocationSpec[NXsample, SampleRun]:w</title>
<path fill="none" stroke="black" d="M464,-99.5C507.64,-99.5 518.97,-119.05 557.56,-122.1"/>
<polygon fill="black" stroke="black" points="557.87,-125.62 568,-122.5 558.14,-118.62 557.87,-125.62"/>
</g>
<!-- NeXusComponentLocationSpec[NXsource, SampleRun] -->
<g id="node27" class="node">
<title>NeXusComponentLocationSpec[NXsource, SampleRun]</title>
<polygon fill="none" stroke="black" points="742.5,-173 569.5,-173 569.5,-142 742.5,-142 742.5,-173"/>
<text text-anchor="start" x="583.5" y="-160.4" font-family="Times,serif" font-size="12.00">[NXsource, SampleRun]</text>
<text text-anchor="start" x="577.5" y="-149.2" font-family="Times,serif" font-size="11.00">via:</text>
<text text-anchor="start" x="598.5" y="-149.2" font-family="Times,serif" font-style="italic" font-size="11.00">unique_component_spec</text>
</g>
<!-- NeXusFileSpec[SampleRun]&#45;&gt;NeXusComponentLocationSpec[NXsource, SampleRun] -->
<g id="edge23" class="edge">
<title>NeXusFileSpec[SampleRun]:e&#45;&gt;NeXusComponentLocationSpec[NXsource, SampleRun]:w</title>
<path fill="none" stroke="black" d="M464,-99.5C513.31,-99.5 515.07,-149.84 557.88,-156.72"/>
<polygon fill="black" stroke="black" points="557.76,-160.23 568,-157.5 558.3,-153.25 557.76,-160.23"/>
</g>
<!-- NeXusDataLocationSpec[NXdetector, SampleRun] -->
<g id="node30" class="node">
<title>NeXusDataLocationSpec[NXdetector, SampleRun]</title>
<polygon fill="none" stroke="black" points="1751,-94 1377,-94 1377,-61 1751,-61 1751,-94"/>
<text text-anchor="start" x="1385" y="-79.8" font-family="Times,serif" font-size="14.00">NeXusDataLocationSpec[NXdetector, SampleRun]</text>
<text text-anchor="start" x="1514" y="-68.2" font-family="Times,serif" font-size="11.00">via:</text>
<text text-anchor="start" x="1535" y="-68.2" font-family="Times,serif" font-style="italic" font-size="11.00">data_by_name</text>
</g>
<!-- NeXusFileSpec[SampleRun]&#45;&gt;NeXusDataLocationSpec[NXdetector, SampleRun] -->
<g id="edge29" class="edge">
<title>NeXusFileSpec[SampleRun]:e&#45;&gt;NeXusDataLocationSpec[NXdetector, SampleRun]:w</title>
<path fill="none" stroke="black" d="M464,-99.5C496.69,-99.5 503.5,-87.99 536,-84.5 718.56,-64.92 1173.73,-77.06 1366.89,-77.49"/>
<polygon fill="black" stroke="black" points="1367,-80.99 1377,-77.5 1367,-73.99 1367,-80.99"/>
</g>
<!-- McStasRawDetector[SampleRun]&#45;&gt;RawDetector[SampleRun] -->
<g id="edge48" class="edge">
<title>McStasRawDetector[SampleRun]:e&#45;&gt;RawDetector[SampleRun]:w</title>
<path fill="none" stroke="black" d="M2428,-107.5C2458.72,-107.5 2464.47,-84.5 2489.73,-79.46"/>
<polygon fill="black" stroke="black" points="2490.37,-82.92 2500,-78.5 2489.72,-75.95 2490.37,-82.92"/>
</g>
<!-- NeXusData[NXdetector, SampleRun] -->
<g id="node21" class="node">
<title>NeXusData[NXdetector, SampleRun]</title>
<polygon fill="none" stroke="black" points="2101,-100 1823,-100 1823,-67 2101,-67 2101,-100"/>
<text text-anchor="start" x="1831" y="-85.8" font-family="Times,serif" font-size="14.00">NeXusData[NXdetector, SampleRun]</text>
<text text-anchor="start" x="1905.5" y="-74.2" font-family="Times,serif" font-size="11.00">via:</text>
<text text-anchor="start" x="1926.5" y="-74.2" font-family="Times,serif" font-style="italic" font-size="11.00">load_nexus_data</text>
</g>
<!-- NeXusData[NXdetector, SampleRun]&#45;&gt;McStasRawDetector[SampleRun] -->
<g id="edge19" class="edge">
<title>NeXusData[NXdetector, SampleRun]:e&#45;&gt;McStasRawDetector[SampleRun]:w</title>
<path fill="none" stroke="black" d="M2101,-83.5C2131.04,-83.5 2137.93,-102.54 2162.9,-106.7"/>
<polygon fill="black" stroke="black" points="2162.76,-110.2 2173,-107.5 2163.31,-103.22 2162.76,-110.2"/>
</g>
<!-- NeXusClass[NXdetector] -->
<g id="node22" class="node">
<title>NeXusClass[NXdetector]</title>
<polygon fill="none" stroke="black" points="735,-287 577,-287 577,-256 735,-256 735,-287"/>
<text text-anchor="start" x="616.5" y="-274.4" font-family="Times,serif" font-size="12.00">[NXdetector]</text>
<text text-anchor="start" x="585" y="-263.2" font-family="Times,serif" font-size="11.00">via:</text>
<text text-anchor="start" x="606" y="-263.2" font-family="Times,serif" font-style="italic" font-size="11.00">nx_class_for_detector</text>
</g>
<!-- NeXusClass[NXdetector]&#45;&gt;NeXusComponent[NXdetector, SampleRun] -->
<g id="edge25" class="edge">
<title>NeXusClass[NXdetector]:e&#45;&gt;NeXusComponent[NXdetector, SampleRun]:w</title>
<path fill="none" stroke="black" d="M736,-271.5C788.46,-271.5 790.83,-218.99 836.84,-212.22"/>
<polygon fill="black" stroke="black" points="837.27,-215.69 847,-211.5 836.78,-208.71 837.27,-215.69"/>
</g>
<!-- NeXusClass[NXsource] -->
<g id="node23" class="node">
<title>NeXusClass[NXsource]</title>
<polygon fill="none" stroke="black" points="753,-322 559,-322 559,-291 753,-291 753,-322"/>
<text text-anchor="start" x="621.5" y="-309.4" font-family="Times,serif" font-size="12.00">[NXsource]</text>
<text text-anchor="start" x="567" y="-298.2" font-family="Times,serif" font-size="11.00">via:</text>
<text text-anchor="start" x="588" y="-298.2" font-family="Times,serif" font-style="italic" font-size="11.00">moderator_class_for_source</text>
</g>
<!-- NeXusComponent[NXsource, SampleRun] -->
<g id="node29" class="node">
<title>NeXusComponent[NXsource, SampleRun]</title>
<polygon fill="none" stroke="black" points="1016,-262 850,-262 850,-231 1016,-231 1016,-262"/>
<text text-anchor="start" x="860.5" y="-249.4" font-family="Times,serif" font-size="12.00">[NXsource, SampleRun]</text>
<text text-anchor="start" x="858" y="-238.2" font-family="Times,serif" font-size="11.00">via:</text>
<text text-anchor="start" x="879" y="-238.2" font-family="Times,serif" font-style="italic" font-size="11.00">load_nexus_component</text>
</g>
<!-- NeXusClass[NXsource]&#45;&gt;NeXusComponent[NXsource, SampleRun] -->
<g id="edge28" class="edge">
<title>NeXusClass[NXsource]:e&#45;&gt;NeXusComponent[NXsource, SampleRun]:w</title>
<path fill="none" stroke="black" d="M754,-306.5C800.23,-306.5 799.48,-255.08 838.74,-247.44"/>
<polygon fill="black" stroke="black" points="839.36,-250.9 849,-246.5 838.72,-243.93 839.36,-250.9"/>
</g>
<!-- NeXusComponentLocationSpec[NXdetector, SampleRun]&#45;&gt;NeXusComponent[NXdetector, SampleRun] -->
<g id="edge24" class="edge">
<title>NeXusComponentLocationSpec[NXdetector, SampleRun]:e&#45;&gt;NeXusComponent[NXdetector, SampleRun]:w</title>
<path fill="none" stroke="black" d="M749,-192.5C789.73,-192.5 800.88,-208.51 836.75,-211.14"/>
<polygon fill="black" stroke="black" points="836.88,-214.64 847,-211.5 837.13,-207.65 836.88,-214.64"/>
</g>
<!-- NeXusName[NXdetector] -->
<g id="node25" class="node">
<title>NeXusName[NXdetector]</title>
<polygon fill="none" stroke="black" points="454,-173 257,-173 257,-150 454,-150 454,-173"/>
<text text-anchor="middle" x="355.5" y="-157.8" font-family="Times,serif" font-size="14.00">NeXusName[NXdetector]</text>
</g>
<!-- NeXusName[NXdetector]&#45;&gt;NeXusComponentLocationSpec[NXdetector, SampleRun] -->
<g id="edge21" class="edge">
<title>NeXusName[NXdetector]:e&#45;&gt;NeXusComponentLocationSpec[NXdetector, SampleRun]:w</title>
<path fill="none" stroke="black" d="M455.5,-161.5C501.63,-161.5 511.89,-188.18 552.84,-192.04"/>
<polygon fill="black" stroke="black" points="552.85,-195.54 563,-192.5 553.17,-188.55 552.85,-195.54"/>
</g>
<!-- NeXusName[NXdetector]&#45;&gt;NeXusDataLocationSpec[NXdetector, SampleRun] -->
<g id="edge30" class="edge">
<title>NeXusName[NXdetector]:e&#45;&gt;NeXusDataLocationSpec[NXdetector, SampleRun]:w</title>
<path fill="none" stroke="black" d="M455.5,-161.5C501.21,-161.5 493.03,-113.07 536,-97.5 576.18,-82.94 1262.28,-80.59 1305,-79.5 1333.38,-78.77 1342.87,-77.76 1366.98,-77.54"/>
<polygon fill="black" stroke="black" points="1367.02,-81.04 1377,-77.5 1366.98,-74.04 1367.02,-81.04"/>
</g>
<!-- NeXusComponent[NXsample, SampleRun] -->
<g id="node28" class="node">
<title>NeXusComponent[NXsample, SampleRun]</title>
<polygon fill="none" stroke="black" points="1015,-192 851,-192 851,-161 1015,-161 1015,-192"/>
<text text-anchor="start" x="859" y="-179.4" font-family="Times,serif" font-size="12.00">[NXsample, SampleRun]</text>
<text text-anchor="start" x="868.5" y="-168.2" font-family="Times,serif" font-size="11.00">via:</text>
<text text-anchor="start" x="889.5" y="-168.2" font-family="Times,serif" font-style="italic" font-size="11.00">load_nexus_sample</text>
</g>
<!-- NeXusComponentLocationSpec[NXsample, SampleRun]&#45;&gt;NeXusComponent[NXsample, SampleRun] -->
<g id="edge26" class="edge">
<title>NeXusComponentLocationSpec[NXsample, SampleRun]:e&#45;&gt;NeXusComponent[NXsample, SampleRun]:w</title>
<path fill="none" stroke="black" d="M744,-122.5C793.26,-122.5 796.85,-169.37 839.86,-175.78"/>
<polygon fill="black" stroke="black" points="839.78,-179.28 850,-176.5 840.27,-172.3 839.78,-179.28"/>
</g>
<!-- NeXusComponentLocationSpec[NXsource, SampleRun]&#45;&gt;NeXusComponent[NXsource, SampleRun] -->
<g id="edge27" class="edge">
<title>NeXusComponentLocationSpec[NXsource, SampleRun]:e&#45;&gt;NeXusComponent[NXsource, SampleRun]:w</title>
<path fill="none" stroke="black" d="M744,-157.5C801.59,-157.5 789.59,-236.38 839.02,-245.62"/>
<polygon fill="black" stroke="black" points="838.73,-249.11 849,-246.5 839.35,-242.13 838.73,-249.11"/>
</g>
<!-- NeXusTransformationChain[NXsample, SampleRun] -->
<g id="node34" class="node">
<title>NeXusTransformationChain[NXsample, SampleRun]</title>
<polygon fill="none" stroke="black" points="1279,-207 1115,-207 1115,-186 1279,-186 1279,-207"/>
<text text-anchor="start" x="1123" y="-193.4" font-family="Times,serif" font-size="12.00">[NXsample, SampleRun]</text>
</g>
<!-- NeXusComponent[NXsample, SampleRun]&#45;&gt;NeXusTransformationChain[NXsample, SampleRun] -->
<g id="edge36" class="edge">
<title>NeXusComponent[NXsample, SampleRun]:e&#45;&gt;NeXusTransformationChain[NXsample, SampleRun]:w</title>
<path fill="none" stroke="black" d="M1016,-176.5C1056.81,-176.5 1067.82,-193.35 1103.74,-196.12"/>
<polygon fill="black" stroke="black" points="1103.88,-199.63 1114,-196.5 1104.14,-192.63 1103.88,-199.63"/>
</g>
<!-- NeXusTransformationChain[NXsource, SampleRun] -->
<g id="node35" class="node">
<title>NeXusTransformationChain[NXsource, SampleRun]</title>
<polygon fill="none" stroke="black" points="1277.5,-257 1116.5,-257 1116.5,-236 1277.5,-236 1277.5,-257"/>
<text text-anchor="start" x="1124.5" y="-243.4" font-family="Times,serif" font-size="12.00">[NXsource, SampleRun]</text>
</g>
<!-- NeXusComponent[NXsource, SampleRun]&#45;&gt;NeXusTransformationChain[NXsource, SampleRun] -->
<g id="edge37" class="edge">
<title>NeXusComponent[NXsource, SampleRun]:e&#45;&gt;NeXusTransformationChain[NXsource, SampleRun]:w</title>
<path fill="none" stroke="black" d="M1017,-246.5C1056.98,-246.5 1069.44,-246.5 1104.9,-246.5"/>
<polygon fill="black" stroke="black" points="1105,-250 1115,-246.5 1105,-243 1105,-250"/>
</g>
<!-- NeXusDataLocationSpec[NXdetector, SampleRun]&#45;&gt;NeXusData[NXdetector, SampleRun] -->
<g id="edge32" class="edge">
<title>NeXusDataLocationSpec[NXdetector, SampleRun]:e&#45;&gt;NeXusData[NXdetector, SampleRun]:w</title>
<path fill="none" stroke="black" d="M1751,-77.5C1779.47,-77.5 1788.81,-82.22 1812.95,-83.29"/>
<polygon fill="black" stroke="black" points="1812.93,-86.79 1823,-83.5 1813.08,-79.79 1812.93,-86.79"/>
</g>
<!-- TimeInterval[SampleRun] -->
<g id="node31" class="node">
<title>TimeInterval[SampleRun]</title>
<polygon fill="none" stroke="black" points="1297,-169 1097,-169 1097,-136 1297,-136 1297,-169"/>
<text text-anchor="start" x="1105" y="-154.8" font-family="Times,serif" font-size="14.00">TimeInterval[SampleRun]</text>
<text text-anchor="start" x="1137.5" y="-143.2" font-family="Times,serif" font-size="11.00">via:</text>
<text text-anchor="start" x="1158.5" y="-143.2" font-family="Times,serif" font-style="italic" font-size="11.00">full_time_interval</text>
</g>
<!-- TimeInterval[SampleRun]&#45;&gt;NeXusTransformation[NXdetector, SampleRun] -->
<g id="edge39" class="edge">
<title>TimeInterval[SampleRun]:e&#45;&gt;NeXusTransformation[NXdetector, SampleRun]:w</title>
<path fill="none" stroke="black" d="M1298,-152.5C1340.78,-152.5 1337.16,-191.91 1377,-207.5 1415.91,-222.72 1430.4,-221.78 1467.93,-221.54"/>
<polygon fill="black" stroke="black" points="1468.01,-225.04 1478,-221.5 1467.99,-218.04 1468.01,-225.04"/>
</g>
<!-- TimeInterval[SampleRun]&#45;&gt;NeXusDataLocationSpec[NXdetector, SampleRun] -->
<g id="edge31" class="edge">
<title>TimeInterval[SampleRun]:e&#45;&gt;NeXusDataLocationSpec[NXdetector, SampleRun]:w</title>
<path fill="none" stroke="black" d="M1298,-152.5C1342.63,-152.5 1330.97,-88.76 1366.8,-78.8"/>
<polygon fill="black" stroke="black" points="1367.52,-82.24 1377,-77.5 1366.64,-75.29 1367.52,-82.24"/>
</g>
<!-- NeXusTransformation[NXsample, SampleRun] -->
<g id="node36" class="node">
<title>NeXusTransformation[NXsample, SampleRun]</title>
<polygon fill="none" stroke="black" points="1646,-207 1482,-207 1482,-186 1646,-186 1646,-207"/>
<text text-anchor="start" x="1490" y="-193.4" font-family="Times,serif" font-size="12.00">[NXsample, SampleRun]</text>
</g>
<!-- TimeInterval[SampleRun]&#45;&gt;NeXusTransformation[NXsample, SampleRun] -->
<g id="edge41" class="edge">
<title>TimeInterval[SampleRun]:e&#45;&gt;NeXusTransformation[NXsample, SampleRun]:w</title>
<path fill="none" stroke="black" d="M1298,-152.5C1298,-152.5 1433.15,-185 1471.16,-194.13"/>
<polygon fill="black" stroke="black" points="1470.46,-197.57 1481,-196.5 1472.1,-190.76 1470.46,-197.57"/>
</g>
<!-- NeXusTransformation[NXsource, SampleRun] -->
<g id="node37" class="node">
<title>NeXusTransformation[NXsource, SampleRun]</title>
<polygon fill="none" stroke="black" points="1644.5,-257 1483.5,-257 1483.5,-236 1644.5,-236 1644.5,-257"/>
<text text-anchor="start" x="1491.5" y="-243.4" font-family="Times,serif" font-size="12.00">[NXsource, SampleRun]</text>
</g>
<!-- TimeInterval[SampleRun]&#45;&gt;NeXusTransformation[NXsource, SampleRun] -->
<g id="edge43" class="edge">
<title>TimeInterval[SampleRun]:e&#45;&gt;NeXusTransformation[NXsource, SampleRun]:w</title>
<path fill="none" stroke="black" d="M1298,-152.5C1347.97,-152.5 1332.27,-210.22 1377,-232.5 1415.93,-251.89 1432.36,-247.4 1471.76,-246.61"/>
<polygon fill="black" stroke="black" points="1472.04,-250.1 1482,-246.5 1471.96,-243.1 1472.04,-250.1"/>
</g>
<!-- PreopenNeXusFile -->
<g id="node32" class="node">
<title>PreopenNeXusFile</title>
<polygon fill="none" stroke="black" points="162,-98 13,-98 13,-75 162,-75 162,-98"/>
<text text-anchor="middle" x="87.5" y="-82.8" font-family="Times,serif" font-size="14.00">PreopenNeXusFile</text>
</g>
<!-- PreopenNeXusFile&#45;&gt;NeXusFileSpec[SampleRun] -->
<g id="edge34" class="edge">
<title>PreopenNeXusFile:e&#45;&gt;NeXusFileSpec[SampleRun]:w</title>
<path fill="none" stroke="black" d="M162.5,-86.5C196.79,-86.5 207.06,-97.08 236.66,-99.15"/>
<polygon fill="black" stroke="black" points="236.89,-102.66 247,-99.5 237.12,-95.67 236.89,-102.66"/>
</g>
<!-- NeXusTransformationChain[NXdetector, SampleRun]&#45;&gt;NeXusTransformation[NXdetector, SampleRun] -->
<g id="edge38" class="edge">
<title>NeXusTransformationChain[NXdetector, SampleRun]:e&#45;&gt;NeXusTransformation[NXdetector, SampleRun]:w</title>
<path fill="none" stroke="black" d="M1283,-221.5C1366.11,-221.5 1389.45,-221.5 1467.66,-221.5"/>
<polygon fill="black" stroke="black" points="1468,-225 1478,-221.5 1468,-218 1468,-225"/>
</g>
<!-- NeXusTransformationChain[NXsample, SampleRun]&#45;&gt;NeXusTransformation[NXsample, SampleRun] -->
<g id="edge40" class="edge">
<title>NeXusTransformationChain[NXsample, SampleRun]:e&#45;&gt;NeXusTransformation[NXsample, SampleRun]:w</title>
<path fill="none" stroke="black" d="M1280,-196.5C1365.84,-196.5 1389.82,-196.5 1470.83,-196.5"/>
<polygon fill="black" stroke="black" points="1471,-200 1481,-196.5 1471,-193 1471,-200"/>
</g>
<!-- NeXusTransformationChain[NXsource, SampleRun]&#45;&gt;NeXusTransformation[NXsource, SampleRun] -->
<g id="edge42" class="edge">
<title>NeXusTransformationChain[NXsource, SampleRun]:e&#45;&gt;NeXusTransformation[NXsource, SampleRun]:w</title>
<path fill="none" stroke="black" d="M1279,-246.5C1365.79,-246.5 1389.96,-246.5 1471.98,-246.5"/>
<polygon fill="black" stroke="black" points="1472,-250 1482,-246.5 1472,-243 1472,-250"/>
</g>
<!-- NeXusTransformation[NXsample, SampleRun]&#45;&gt;Position[NXsample, SampleRun] -->
<g id="edge44" class="edge">
<title>NeXusTransformation[NXsample, SampleRun]:e&#45;&gt;Position[NXsample, SampleRun]:w</title>
<path fill="none" stroke="black" d="M1647,-196.5C2050.51,-196.5 2153.9,-193.55 2552.43,-193.5"/>
<polygon fill="black" stroke="black" points="2552.5,-197 2562.5,-193.5 2552.5,-190 2552.5,-197"/>
</g>
<!-- NeXusTransformation[NXsource, SampleRun]&#45;&gt;Position[NXsource, SampleRun] -->
<g id="edge45" class="edge">
<title>NeXusTransformation[NXsource, SampleRun]:e&#45;&gt;Position[NXsource, SampleRun]:w</title>
<path fill="none" stroke="black" d="M1646,-246.5C2050.58,-246.5 2153.83,-218.96 2553.4,-218.51"/>
<polygon fill="black" stroke="black" points="2553.5,-222.01 2563.5,-218.5 2553.5,-215.01 2553.5,-222.01"/>
</g>
<!-- PulsePeriod -->
<g id="node38" class="node">
<title>PulsePeriod</title>
<polygon fill="none" stroke="black" points="2351,-87 2250,-87 2250,-64 2351,-64 2351,-87"/>
<text text-anchor="middle" x="2300.5" y="-71.8" font-family="Times,serif" font-size="14.00">PulsePeriod</text>
</g>
<!-- PulsePeriod&#45;&gt;RawDetector[SampleRun] -->
<g id="edge49" class="edge">
<title>PulsePeriod:e&#45;&gt;RawDetector[SampleRun]:w</title>
<path fill="none" stroke="black" d="M2352.5,-75.5C2414.48,-75.5 2432.49,-78.18 2489.67,-78.47"/>
<polygon fill="black" stroke="black" points="2489.99,-81.97 2500,-78.5 2490.01,-74.97 2489.99,-81.97"/>
</g>
<!-- PulseStrideOffset -->
<g id="node39" class="node">
<title>PulseStrideOffset</title>
<polygon fill="none" stroke="black" points="3094,-192 2951,-192 2951,-169 3094,-169 3094,-192"/>
<text text-anchor="middle" x="3022.5" y="-176.8" font-family="Times,serif" font-size="14.00">PulseStrideOffset</text>
</g>
<!-- PulseStrideOffset&#45;&gt;TofDetector[SampleRun] -->
<g id="edge55" class="edge">
<title>PulseStrideOffset:e&#45;&gt;TofDetector[SampleRun]:w</title>
<path fill="none" stroke="black" d="M3095.5,-180.5C3134.52,-180.5 3143.77,-173.32 3182,-165.5 3210.56,-159.66 3219.23,-150.81 3243.75,-148.88"/>
<polygon fill="black" stroke="black" points="3244.14,-152.37 3254,-148.5 3243.88,-145.37 3244.14,-152.37"/>
</g>
<!-- TofDetector[SampleRun]&#45;&gt;QDetector[SampleRun] -->
<g id="edge46" class="edge">
<title>TofDetector[SampleRun]:e&#45;&gt;QDetector[SampleRun]:w</title>
<path fill="none" stroke="black" d="M3450,-148.5C3479.8,-148.5 3487.09,-165.95 3511.97,-169.77"/>
<polygon fill="black" stroke="black" points="3511.77,-173.26 3522,-170.5 3512.28,-166.28 3511.77,-173.26"/>
</g>
<!-- TimeOfFlightLookupTableFilename -->
<g id="node41" class="node">
<title>TimeOfFlightLookupTableFilename</title>
<polygon fill="none" stroke="black" points="2779,-123 2512,-123 2512,-100 2779,-100 2779,-123"/>
<text text-anchor="middle" x="2645.5" y="-107.8" font-family="Times,serif" font-size="14.00">TimeOfFlightLookupTableFilename</text>
</g>
<!-- TimeOfFlightLookupTable -->
<g id="node42" class="node">
<title>TimeOfFlightLookupTable</title>
<polygon fill="none" stroke="black" points="3123,-128 2922,-128 2922,-95 3123,-95 3123,-128"/>
<text text-anchor="start" x="2930" y="-113.8" font-family="Times,serif" font-size="14.00">TimeOfFlightLookupTable</text>
<text text-anchor="start" x="2951.5" y="-102.2" font-family="Times,serif" font-size="11.00">via:</text>
<text text-anchor="start" x="2972.5" y="-102.2" font-family="Times,serif" font-style="italic" font-size="11.00">load_tof_lookup_table</text>
</g>
<!-- TimeOfFlightLookupTableFilename&#45;&gt;TimeOfFlightLookupTable -->
<g id="edge51" class="edge">
<title>TimeOfFlightLookupTableFilename:e&#45;&gt;TimeOfFlightLookupTable:w</title>
<path fill="none" stroke="black" d="M2780.5,-111.5C2839.2,-111.5 2856.37,-111.5 2910.36,-111.5"/>
<polygon fill="black" stroke="black" points="2910.5,-115 2920.5,-111.5 2910.5,-108 2910.5,-115"/>
</g>
<!-- TimeOfFlightLookupTable&#45;&gt;TofDetector[SampleRun] -->
<g id="edge53" class="edge">
<title>TimeOfFlightLookupTable:e&#45;&gt;TofDetector[SampleRun]:w</title>
<path fill="none" stroke="black" d="M3124.5,-111.5C3180.85,-111.5 3192.82,-144.29 3243.97,-148.13"/>
<polygon fill="black" stroke="black" points="3243.88,-151.63 3254,-148.5 3244.13,-144.64 3243.88,-151.63"/>
</g>
</g>
</svg>
