<?xml version="1.0" encoding="UTF-8" standalone="no"?>
<!DOCTYPE svg PUBLIC "-//W3C//DTD SVG 1.1//EN"
 "http://www.w3.org/Graphics/SVG/1.1/DTD/svg11.dtd">
<!-- Generated by graphviz version 2.43.0 (0)
 -->
<!-- Title: %3 Pages: 1 -->
<svg width="859pt" height="236pt"
 viewBox="0.00 0.00 859.00 236.00" xmlns="http://www.w3.org/2000/svg" xmlns:xlink="http://www.w3.org/1999/xlink">
<g id="graph0" class="graph" transform="scale(1 1) rotate(0) translate(4 232)">
<title>%3</title>
<polygon fill="white" stroke="transparent" points="-4,4 -4,-232 855,-232 855,4 -4,4"/>
<!-- DiskChoppers[AnyRun] -->
<g id="node1" class="node">
<title>DiskChoppers[AnyRun]</title>
<polygon fill="none" stroke="black" points="206.5,-228 24.5,-228 24.5,-205 206.5,-205 206.5,-228"/>
<text text-anchor="middle" x="115.5" y="-212.8" font-family="Times,serif" font-size="14.00">DiskChoppers[AnyRun]</text>
</g>
<!-- SimulationResults -->
<g id="node9" class="node">
<title>SimulationResults</title>
<polygon fill="none" stroke="black" points="561.5,-179 319.5,-179 319.5,-146 561.5,-146 561.5,-179"/>
<text text-anchor="start" x="375" y="-164.8" font-family="Times,serif" font-size="14.00">SimulationResults</text>
<text text-anchor="start" x="327.5" y="-153.2" font-family="Times,serif" font-size="11.00">via:</text>
<text text-anchor="start" x="348.5" y="-153.2" font-family="Times,serif" font-style="italic" font-size="11.00">simulate_chopper_cascade_using_tof</text>
</g>
<!-- DiskChoppers[AnyRun]&#45;&gt;SimulationResults -->
<g id="edge1" class="edge">
<title>DiskChoppers[AnyRun]:e&#45;&gt;SimulationResults:w</title>
<path fill="none" stroke="black" d="M207.5,-216.5C258.72,-216.5 263.23,-169.43 308.25,-163.18"/>
<polygon fill="black" stroke="black" points="308.75,-166.66 318.5,-162.5 308.29,-159.67 308.75,-166.66"/>
</g>
<!-- DistanceResolution -->
<g id="node2" class="node">
<title>DistanceResolution</title>
<polygon fill="none" stroke="black" points="518,-142 363,-142 363,-119 518,-119 518,-142"/>
<text text-anchor="middle" x="440.5" y="-126.8" font-family="Times,serif" font-size="14.00">DistanceResolution</text>
</g>
<!-- TimeOfFlightLookupTable -->
<g id="node12" class="node">
<title>TimeOfFlightLookupTable</title>
<polygon fill="none" stroke="black" points="851,-93 650,-93 650,-60 851,-60 851,-93"/>
<text text-anchor="start" x="658" y="-78.8" font-family="Times,serif" font-size="14.00">TimeOfFlightLookupTable</text>
<text text-anchor="start" x="676" y="-67.2" font-family="Times,serif" font-size="11.00">via:</text>
<text text-anchor="start" x="697" y="-67.2" font-family="Times,serif" font-style="italic" font-size="11.00">make_tof_lookup_table</text>
</g>
<!-- DistanceResolution&#45;&gt;TimeOfFlightLookupTable -->
<g id="edge9" class="edge">
<title>DistanceResolution:e&#45;&gt;TimeOfFlightLookupTable:w</title>
<path fill="none" stroke="black" d="M519.5,-130.5C546.45,-130.5 552.93,-124.41 578,-114.5 608.23,-102.55 613.05,-81.4 639.96,-77.23"/>
<polygon fill="black" stroke="black" points="640.28,-80.71 650,-76.5 639.77,-73.73 640.28,-80.71"/>
</g>
<!-- LookupTableRelativeErrorThreshold -->
<g id="node3" class="node">
<title>LookupTableRelativeErrorThreshold</title>
<polygon fill="none" stroke="black" points="578,-115 303,-115 303,-92 578,-92 578,-115"/>
<text text-anchor="middle" x="440.5" y="-99.8" font-family="Times,serif" font-size="14.00">LookupTableRelativeErrorThreshold</text>
</g>
<!-- LookupTableRelativeErrorThreshold&#45;&gt;TimeOfFlightLookupTable -->
<g id="edge13" class="edge">
<title>LookupTableRelativeErrorThreshold:e&#45;&gt;TimeOfFlightLookupTable:w</title>
<path fill="none" stroke="black" d="M578,-103.5C608.44,-103.5 614.66,-82.08 639.8,-77.4"/>
<polygon fill="black" stroke="black" points="640.35,-80.86 650,-76.5 639.73,-73.89 640.35,-80.86"/>
</g>
<!-- LtotalRange -->
<g id="node4" class="node">
<title>LtotalRange</title>
<polygon fill="none" stroke="black" points="492.5,-88 388.5,-88 388.5,-65 492.5,-65 492.5,-88"/>
<text text-anchor="middle" x="440.5" y="-72.8" font-family="Times,serif" font-size="14.00">LtotalRange</text>
</g>
<!-- LtotalRange&#45;&gt;TimeOfFlightLookupTable -->
<g id="edge8" class="edge">
<title>LtotalRange:e&#45;&gt;TimeOfFlightLookupTable:w</title>
<path fill="none" stroke="black" d="M493.5,-76.5C559.52,-76.5 578.54,-76.5 639.79,-76.5"/>
<polygon fill="black" stroke="black" points="640,-80 650,-76.5 640,-73 640,-80"/>
</g>
<!-- NumberOfSimulatedNeutrons -->
<g id="node5" class="node">
<title>NumberOfSimulatedNeutrons</title>
<polygon fill="none" stroke="black" points="231,-201 0,-201 0,-178 231,-178 231,-201"/>
<text text-anchor="middle" x="115.5" y="-185.8" font-family="Times,serif" font-size="14.00">NumberOfSimulatedNeutrons</text>
</g>
<!-- NumberOfSimulatedNeutrons&#45;&gt;SimulationResults -->
<g id="edge3" class="edge">
<title>NumberOfSimulatedNeutrons:e&#45;&gt;SimulationResults:w</title>
<path fill="none" stroke="black" d="M231,-189.5C268.04,-189.5 276.43,-167.13 308.32,-163.11"/>
<polygon fill="black" stroke="black" points="308.73,-166.6 318.5,-162.5 308.31,-159.61 308.73,-166.6"/>
</g>
<!-- PulsePeriod -->
<g id="node6" class="node">
<title>PulsePeriod</title>
<polygon fill="none" stroke="black" points="491,-61 390,-61 390,-38 491,-38 491,-61"/>
<text text-anchor="middle" x="440.5" y="-45.8" font-family="Times,serif" font-size="14.00">PulsePeriod</text>
</g>
<!-- PulsePeriod&#45;&gt;TimeOfFlightLookupTable -->
<g id="edge11" class="edge">
<title>PulsePeriod:e&#45;&gt;TimeOfFlightLookupTable:w</title>
<path fill="none" stroke="black" d="M492.5,-49.5C524.96,-49.5 600,-72.06 639.78,-75.94"/>
<polygon fill="black" stroke="black" points="639.82,-79.44 650,-76.5 640.21,-72.45 639.82,-79.44"/>
</g>
<!-- PulseStride -->
<g id="node7" class="node">
<title>PulseStride</title>
<polygon fill="none" stroke="black" points="165.5,-68 65.5,-68 65.5,-45 165.5,-45 165.5,-68"/>
<text text-anchor="middle" x="115.5" y="-52.8" font-family="Times,serif" font-size="14.00">PulseStride</text>
</g>
<!-- PulseStride&#45;&gt;SimulationResults -->
<g id="edge4" class="edge">
<title>PulseStride:e&#45;&gt;SimulationResults:w</title>
<path fill="none" stroke="black" d="M166.5,-56.5C245.32,-56.5 237.06,-153.59 308.39,-161.93"/>
<polygon fill="black" stroke="black" points="308.32,-165.43 318.5,-162.5 308.71,-158.44 308.32,-165.43"/>
</g>
<!-- PulseStride&#45;&gt;TimeOfFlightLookupTable -->
<g id="edge12" class="edge">
<title>PulseStride:e&#45;&gt;TimeOfFlightLookupTable:w</title>
<path fill="none" stroke="black" d="M166.5,-56.5C227.75,-56.5 241.89,-41.73 303,-37.5 363.97,-33.28 518.76,-22.49 578,-37.5 609.69,-45.53 613.18,-70.61 639.95,-75.62"/>
<polygon fill="black" stroke="black" points="639.73,-79.12 650,-76.5 640.34,-72.14 639.73,-79.12"/>
</g>
<!-- SimulationFacility -->
<g id="node8" class="node">
<title>SimulationFacility</title>
<polygon fill="none" stroke="black" points="188.5,-174 42.5,-174 42.5,-151 188.5,-151 188.5,-174"/>
<text text-anchor="middle" x="115.5" y="-158.8" font-family="Times,serif" font-size="14.00">SimulationFacility</text>
</g>
<!-- SimulationFacility&#45;&gt;SimulationResults -->
<g id="edge6" class="edge">
<title>SimulationFacility:e&#45;&gt;SimulationResults:w</title>
<path fill="none" stroke="black" d="M189.5,-162.5C243.25,-162.5 259.21,-162.5 308.23,-162.5"/>
<polygon fill="black" stroke="black" points="308.5,-166 318.5,-162.5 308.5,-159 308.5,-166"/>
</g>
<!-- SimulationResults&#45;&gt;TimeOfFlightLookupTable -->
<g id="edge7" class="edge">
<title>SimulationResults:e&#45;&gt;TimeOfFlightLookupTable:w</title>
<path fill="none" stroke="black" d="M562.5,-162.5C613.3,-162.5 598.06,-87.86 639.84,-77.65"/>
<polygon fill="black" stroke="black" points="640.46,-81.1 650,-76.5 639.67,-74.15 640.46,-81.1"/>
</g>
<!-- SourcePosition -->
<g id="node10" class="node">
<title>SourcePosition</title>
<polygon fill="none" stroke="black" points="177,-147 54,-147 54,-124 177,-124 177,-147"/>
<text text-anchor="middle" x="115.5" y="-131.8" font-family="Times,serif" font-size="14.00">SourcePosition</text>
</g>
<!-- SourcePosition&#45;&gt;SimulationResults -->
<g id="edge2" class="edge">
<title>SourcePosition:e&#45;&gt;SimulationResults:w</title>
<path fill="none" stroke="black" d="M178.5,-135.5C238.28,-135.5 253.47,-159.53 308.2,-162.25"/>
<polygon fill="black" stroke="black" points="308.42,-165.76 318.5,-162.5 308.59,-158.76 308.42,-165.76"/>
</g>
<!-- SimulationSeed -->
<g id="node11" class="node">
<title>SimulationSeed</title>
<polygon fill="none" stroke="black" points="180,-120 51,-120 51,-97 180,-97 180,-120"/>
<text text-anchor="middle" x="115.5" y="-104.8" font-family="Times,serif" font-size="14.00">SimulationSeed</text>
</g>
<!-- SimulationSeed&#45;&gt;SimulationResults -->
<g id="edge5" class="edge">
<title>SimulationSeed:e&#45;&gt;SimulationResults:w</title>
<path fill="none" stroke="black" d="M181.5,-108.5C243.37,-108.5 252.21,-156.76 308.28,-162.03"/>
<polygon fill="black" stroke="black" points="308.35,-165.54 318.5,-162.5 308.67,-158.55 308.35,-165.54"/>
</g>
<!-- TimeResolution -->
<g id="node13" class="node">
<title>TimeResolution</title>
<polygon fill="none" stroke="black" points="504.5,-23 376.5,-23 376.5,0 504.5,0 504.5,-23"/>
<text text-anchor="middle" x="440.5" y="-7.8" font-family="Times,serif" font-size="14.00">TimeResolution</text>
</g>
<!-- TimeResolution&#45;&gt;TimeOfFlightLookupTable -->
<g id="edge10" class="edge">
<title>TimeResolution:e&#45;&gt;TimeOfFlightLookupTable:w</title>
<path fill="none" stroke="black" d="M505.5,-11.5C538.4,-11.5 547.76,-13.52 578,-26.5 610.3,-40.37 611.21,-69.92 639.7,-75.56"/>
<polygon fill="black" stroke="black" points="639.72,-79.08 650,-76.5 640.36,-72.1 639.72,-79.08"/>
</g>
</g>
</svg>
